<svg width="20" height="24" viewBox="0 0 20 24" fill="none" xmlns="http://www.w3.org/2000/svg">
<path d="M20 24L14.75 18.7826L15.38 20.8696H2.5C1.83696 20.8696 1.20107 20.5947 0.732233 20.1055C0.263392 19.6163 0 18.9527 0 18.2609V2.6087C0 1.91683 0.263392 1.25329 0.732233 0.764069C1.20107 0.274844 1.83696 0 2.5 0H17.5C18.163 0 18.7989 0.274844 19.2678 0.764069C19.7366 1.25329 20 1.91683 20 2.6087V24ZM10 6.05217C7.32 6.05217 5.44 7.25217 5.44 7.25217C6.47 6.29217 8.27 5.73913 8.27 5.73913L8.1 5.56174C6.41 5.59304 4.88 6.81391 4.88 6.81391C3.16 10.56 3.27 13.7948 3.27 13.7948C4.67 15.6835 6.75 15.5478 6.75 15.5478L7.46 14.6087C6.21 14.327 5.42 13.1687 5.42 13.1687C5.42 13.1687 7.3 14.5043 10 14.5043C12.7 14.5043 14.58 13.1687 14.58 13.1687C14.58 13.1687 13.79 14.327 12.54 14.6087L13.25 15.5478C13.25 15.5478 15.33 15.6835 16.73 13.7948C16.73 13.7948 16.84 10.56 15.12 6.81391C15.12 6.81391 13.59 5.59304 11.9 5.56174L11.73 5.73913C11.73 5.73913 13.53 6.29217 14.56 7.25217C14.56 7.25217 12.68 6.05217 10 6.05217ZM7.93 10.007C8.58 10.007 9.11 10.6017 9.1 11.3322C9.1 12.0522 8.58 12.6574 7.93 12.6574C7.29 12.6574 6.77 12.0522 6.77 11.3322C6.77 10.6017 7.28 10.007 7.93 10.007ZM12.1 10.007C12.75 10.007 13.27 10.6017 13.27 11.3322C13.27 12.0522 12.75 12.6574 12.1 12.6574C11.46 12.6574 10.94 12.0522 10.94 11.3322C10.94 10.6017 11.45 10.007 12.1 10.007Z" fill="#C4C4C4"/>
</svg>
