<svg width="40" height="40" viewBox="0 0 40 40" fill="none" xmlns="http://www.w3.org/2000/svg">
<path fill-rule="evenodd" clip-rule="evenodd" d="M20 40C8.95375 40 0 31.0462 0 20C0 8.95375 8.95375 0 20 0C31.0462 0 40 8.95375 40 20C40 31.0462 31.0462 40 20 40ZM13.1025 21.12V30H21.2887C22.8013 30 24.11 29.7375 25.2163 29.2162C26.3225 28.6925 27.225 27.9788 27.9263 27.0725C28.6262 26.1675 29.1475 25.1075 29.4888 23.8937C29.83 22.68 30 21.3813 30 20C30.0086 18.6847 29.8361 17.3745 29.4875 16.1063C29.1475 14.8938 28.6262 13.8325 27.925 12.9275C27.225 12.0212 26.3225 11.3075 25.2163 10.7837C24.11 10.2625 22.8 10 21.2875 10H13.1012V18.2625H11.25V21.12H13.1025ZM16.56 18.2638V12.8575H19.9613C21.3075 12.8575 22.4088 13.0387 23.2663 13.4037C24.1238 13.7675 24.7963 14.2712 25.285 14.9162C25.7849 15.587 26.1252 16.3629 26.28 17.185C26.455 18.0538 26.5425 18.9912 26.5425 20C26.5485 20.9447 26.4606 21.8877 26.28 22.815C26.105 23.6838 25.7738 24.44 25.285 25.0837C24.7963 25.7287 24.1225 26.2325 23.2663 26.5963C22.4088 26.9613 21.3075 27.1425 19.9613 27.1425H16.56V21.12H21.9525V18.2638H16.56Z" fill="white"/>
</svg>
