<svg width="40" height="40" viewBox="0 0 40 40" fill="none" xmlns="http://www.w3.org/2000/svg">
<path d="M20 0C16.0444 0 12.1776 1.17298 8.8886 3.37061C5.59962 5.56823 3.03617 8.69181 1.52242 12.3463C0.00866572 16.0009 -0.387401 20.0222 0.384303 23.9018C1.15601 27.7814 3.06082 31.3451 5.85787 34.1421C8.65492 36.9392 12.2186 38.844 16.0982 39.6157C19.9778 40.3874 23.9992 39.9913 27.6537 38.4776C31.3082 36.9638 34.4318 34.4004 36.6294 31.1114C38.827 27.8224 40 23.9556 40 20C40 14.6957 37.8929 9.60859 34.1421 5.85786C30.3914 2.10714 25.3043 0 20 0V0ZM19.5633 6.13H23.87C23.9581 6.13011 24.045 6.15058 24.1239 6.18981C24.2027 6.22904 24.2715 6.28597 24.3247 6.35616C24.378 6.42634 24.4143 6.50788 24.4308 6.59442C24.4473 6.68095 24.4436 6.77013 24.42 6.855L21.0367 18.385L24.2117 17.415L23.5317 19.7233L20.325 20.6567L18.245 27.68H29.3717C29.4599 27.6805 29.5467 27.7013 29.6255 27.741C29.7043 27.7806 29.7728 27.838 29.8258 27.9085C29.8787 27.979 29.9146 28.0608 29.9307 28.1476C29.9467 28.2343 29.9425 28.3235 29.9183 28.4083L28.9483 31.7417C28.9019 31.9002 28.8054 32.0395 28.6732 32.1387C28.541 32.2378 28.3802 32.2915 28.215 32.2917H11.2217L14.0933 22.5883L10.9167 23.555L11.6167 21.2867L14.8 20.32L18.8367 6.68667C18.8809 6.52725 18.976 6.38663 19.1075 6.28616C19.2389 6.18569 19.3996 6.13086 19.565 6.13H19.5633Z" fill="white"/>
</svg>
