<svg width="24" height="24" viewBox="0 0 24 24" fill="none" xmlns="http://www.w3.org/2000/svg">
<path d="M15.6 2C15.6 0.895431 14.7046 0 13.6 0H10.4C9.29543 0 8.4 0.89543 8.4 2V6.39531C8.4 7.49988 7.50457 8.39531 6.4 8.39531H2C0.895432 8.39531 0 9.29074 0 10.3953V13.6047C0 14.7093 0.895431 15.6047 2 15.6047H6.4C7.50457 15.6047 8.4 16.5001 8.4 17.6047V22C8.4 23.1046 9.29543 24 10.4 24H13.6C14.7046 24 15.6 23.1046 15.6 22V17.6047C15.6 16.5001 16.4954 15.6047 17.6 15.6047H22C23.1046 15.6047 24 14.7093 24 13.6047V10.3953C24 9.29075 23.1046 8.39531 22 8.39531H17.6C16.4954 8.39531 15.6 7.49988 15.6 6.39531V2Z" fill="white"/>
</svg>
