<svg width="40" height="40" viewBox="0 0 40 40" fill="none" xmlns="http://www.w3.org/2000/svg">
<path fill-rule="evenodd" clip-rule="evenodd" d="M20 40C31.0457 40 40 31.0457 40 20C40 8.9543 31.0457 0 20 0C8.9543 0 0 8.9543 0 20C0 31.0457 8.9543 40 20 40ZM14.8813 22.8931V26.6683L13.9458 25.4511L14.8453 22.999L14.8813 22.8931ZM13.8737 25.3623L13.8741 25.3628L14.7196 23.0695L14.8636 22.6814L12.7407 23.881L13.8737 25.3623ZM14.8634 26.7918L13.9099 25.5569L12.7765 28.6441L14.8634 26.7918ZM12.7228 28.5383V24.0045L12.8128 24.128L13.8382 25.4687L12.7228 28.5383ZM16.4826 21.7641L17.508 21.182L18.1737 20.7939L18.8393 21.9229L19.8827 23.687L16.4826 21.7641ZM19.9549 19.7882L19.0554 20.2998L18.2638 20.7585L18.9295 21.8875L19.9549 23.6163V19.7882ZM16.3921 17.7772V21.7112L17.4535 21.1114L18.1371 20.7232L16.3921 17.7772ZM19.9007 19.7177L19.9187 19.7001L16.4826 17.7772L18.2096 20.688L19.2711 20.0882L19.9187 19.7177H19.9007ZM14.4499 18.6416L12.7228 15.7485V19.5766L14.4499 18.6416ZM14.5037 20.635L13.1364 19.8588L12.7586 19.6471L14.4857 18.7122L16.2127 21.6053L14.9714 20.8997L14.5037 20.635ZM14.5216 18.5888L12.7765 15.678L16.2666 17.6538L14.5216 18.5888ZM16.3027 21.57L14.5757 18.677V18.6769L16.3027 17.7243V21.57ZM9.57415 16.754L8.40478 17.1951L12.5425 19.5413L10.4737 16.4189L9.57415 16.754ZM9.79038 15.4132L10.42 16.3482L9.52052 16.6834L8.33317 17.1244V13.2257L9.79038 15.4132ZM12.5433 15.5544L12.3993 15.6073L10.5104 16.313L9.97065 15.5015L8.45947 13.2434L12.5433 15.5544ZM11.5712 17.9183L10.5457 16.3835L12.5606 15.6426H12.6326V19.506L11.5712 17.9183ZM8.33317 21.5524L9.95229 24.2868L10.42 25.0806L8.33317 26.2626V21.5524ZM11.7329 23.44L11.7333 23.4402L11.8592 24.2692L11.8951 24.2515L11.7872 23.5106L11.7876 23.5108L11.8955 24.2515L11.9495 24.2338L11.9495 24.2337L12.5789 23.881L11.8416 23.5813L11.8416 23.5811L12.5792 23.881L12.3093 23.7222L12.3075 23.7215L12.0211 23.5635L12.0201 23.5631L11.9128 23.4929L8.42269 21.5171L10.5096 25.0454L11.8588 24.2691L11.7329 23.44ZM12.5426 28.6971L10.4737 25.1689L8.38688 26.3508L12.5426 28.6971ZM10.5457 25.1159L10.6897 25.0454L11.877 24.375L12.5427 28.503L10.5457 25.1159ZM12.6323 23.9339L11.9666 24.322L11.9666 24.3221L11.9129 24.3396L11.913 24.3398L11.8771 24.375L12.5428 28.503L12.5965 28.6084L12.5966 28.6088L12.6325 28.6617V28.5206L12.6323 28.5189V24.0398V23.9339ZM8.33317 17.3008L10.438 20.4939L8.76494 21.1642L8.33317 21.323V17.3008ZM8.89052 21.1995L8.40478 21.3936L12.6145 23.7928L10.4917 20.5645L10.4917 20.5645L8.89052 21.1995ZM10.5283 20.4587L8.47738 17.3362L12.5612 19.6472L10.5283 20.4587ZM12.6324 19.7001V19.7178V23.6517L11.1932 21.4642L10.5815 20.5292L12.6324 19.7001ZM13.7126 23.2283L12.7951 23.7399L14.0724 21.5524L14.864 22.5756L13.7126 23.2283ZM14.0181 21.4818L12.7228 23.7046V19.8059L12.9567 20.1234L14.0181 21.4818ZM12.8849 19.8764L12.813 19.7882L14.4681 20.7055L14.2702 21.0407L14.0543 21.3936L12.8849 19.8764ZM14.1258 21.482L14.8814 22.4522V20.9527L14.8094 20.8998L14.5396 20.7587L14.5395 20.7588L14.3417 21.0938L14.1258 21.482ZM11.7876 11.2679L16.1232 13.5613L14.0364 13.4201L12.2374 13.2966L11.7876 11.2679ZM12.4526 14.3547L12.7225 15.5367V15.5543L14.0537 14.8134L16.1585 13.6491L16.1586 13.6491L13.7659 13.4903L12.2547 13.3845L12.4526 14.3547ZM11.7508 11.5323L11.6968 11.25L8.44059 13.0494L10.8153 13.2082L12.1286 13.2964L11.7508 11.5323ZM12.6143 15.4837L12.3625 14.3195L12.1466 13.3845L8.44059 13.1199L11.2651 14.7253L12.6143 15.4838L12.6143 15.4837ZM16.3742 15.7132L16.3922 17.5832V17.6008L18.8209 16.1895L19.8283 15.6074H18.8388L16.3742 15.625V15.7132ZM18.9288 15.5192H19.8283L16.3742 13.6845V15.5015V15.5368L18.9288 15.5192ZM16.2848 15.8014V15.625H16.2847L14.036 15.6426H12.8846L16.3027 17.5655L16.2848 15.8014ZM16.2847 15.5368V15.5192V13.6845L13.1364 15.431L12.9025 15.5544H13.9999L16.2847 15.5368ZM25.1356 22.8931V26.6683L26.0711 25.4511L25.1356 22.8931ZM27.2763 23.881L26.6107 24.7454L26.1251 25.3626L26.125 25.3628L25.2974 23.0695L25.1535 22.6814L25.4953 22.8754L27.2763 23.881ZM27.2404 28.6441L25.1535 26.7918L26.107 25.5569L27.2404 28.6441ZM27.2943 24.0045L26.1789 25.4687L26.7546 27.0741L27.2943 28.5383V28.537V24.0045ZM20.116 23.687L21.1415 21.9758L21.8251 20.7939L22.5087 21.182L23.5342 21.7641L20.116 23.687ZM20.4581 20.0175L20.0623 19.7882H20.0444V23.6516L20.0623 23.6163L21.0518 21.9404L21.7534 20.7585L20.4581 20.0175ZM23.6248 17.7772V21.7112L22.5633 21.1114L21.8797 20.7232L23.6248 17.7772ZM20.0991 19.7001L23.5173 17.7772L21.8082 20.688L20.6928 20.0529L20.0991 19.7177V19.7001ZM20.0983 19.7172V19.7001L20.0812 19.7172H20.0983ZM27.2949 15.7485L25.5679 18.6416L27.0611 19.4531L27.2949 19.5766V15.7485ZM25.4594 20.6527L25.4234 20.688L25.3694 20.7232L23.7863 21.6053L24.254 20.8467L25.5313 18.7122L26.9706 19.506L27.2404 19.6471L26.3049 20.1764L25.5134 20.635L25.4594 20.6527ZM27.2226 15.678L26.7189 16.5248L25.4955 18.5888L25.4953 18.5886L23.8224 17.6891L23.7505 17.6538L26.431 16.1366L27.2226 15.678ZM23.7147 17.7243L24.4523 18.13L25.4417 18.6769L24.1285 20.882L23.7147 21.57V17.7243ZM27.7623 19.118L27.4744 19.5413L31.6122 17.1951L29.5793 16.4365L29.5433 16.4189L27.7623 19.118ZM31.6667 17.1244L29.7777 16.4188L29.5978 16.3482L31.073 14.143L31.6667 13.2257V17.1244ZM29.5074 16.313L29.4714 16.2954L27.4565 15.5545L30.9466 13.5963L31.5583 13.2435L29.5074 16.313ZM27.3849 15.6426V19.506L29.4538 16.3835L29.2559 16.3129L27.4569 15.6426H27.4565H27.3849ZM30.6413 25.6804L31.6667 26.2626V21.5524L30.4074 23.7046L29.5978 25.0806L30.6413 25.6804ZM29.5075 25.0454L29.0758 24.7984L27.4386 23.881L31.5764 21.5171L30.2091 23.8634L29.5075 25.0454ZM31.6303 26.3508L27.4565 28.6971L29.5434 25.1689L30.6588 25.8039L31.6303 26.3508ZM29.4718 25.1159L27.4209 28.5912L27.385 23.966L27.4208 28.5912L27.3849 28.6617V24.0398V23.9516L29.4718 25.1159ZM31.6658 17.3008V21.323L31.378 21.2172L29.5789 20.4939L31.6658 17.3008ZM29.5258 20.5645L27.3849 23.7928L31.6126 21.3936L31.2888 21.2701L29.5258 20.5645ZM27.4565 19.6472L31.5403 17.3362L29.4894 20.4587L27.4565 19.6472ZM27.3849 19.7178V23.6517L27.7627 23.0696V23.0695L29.4358 20.5292L27.3849 19.7001V19.7178ZM25.1535 22.5756L26.7726 23.4929L27.2224 23.7399L27.2223 23.7398L25.9451 21.5524L25.1535 22.5756ZM27.0073 20.1587L25.9998 21.4818L27.2951 23.7046V19.8059L27.0073 20.1587ZM27.0252 20.0175L27.2051 19.7882L25.55 20.7055L25.7479 21.0407L25.9456 21.3934L25.9458 21.3936L27.0252 20.0175ZM25.4054 20.7939L25.4734 20.7606L25.4774 20.7587L25.6753 21.0938L25.8912 21.482L25.1356 22.4522V20.9527L25.4054 20.7939ZM28.1404 11.6202L28.2303 11.2674L23.8947 13.5607L25.6577 13.4372L27.7806 13.2961L28.1404 11.6202ZM23.841 13.6491L27.7629 13.3845L27.2951 15.5367V15.5543L24.7405 14.143L23.841 13.6491ZM29.1116 13.2082L31.5583 13.0494L28.32 11.25L28.1581 12.0086L27.8703 13.2964L29.1116 13.2082ZM27.4022 15.4838L31.5759 13.1199L31.2702 13.1552L31.2701 13.1552L27.852 13.3845L27.8519 13.3845L27.4022 15.4838ZM23.6248 17.6008L20.2786 15.6603L20.1886 15.6074H21.1601L23.6428 15.625L23.6248 17.5832V17.6008ZM23.6428 15.5015V15.5368L21.0882 15.5192H20.1886L23.6428 13.6845V15.5015ZM25.9635 15.6426H27.1148L23.7147 17.5655L23.7327 15.625L25.9635 15.6426ZM26.0173 15.5544H27.1147L23.7326 13.6845V15.5192V15.5368L26.0173 15.5544ZM23.4625 17.7067L22.0233 18.5182L20.0623 19.6296V19.6295V17.7067H23.4625ZM20.0623 15.6426L23.4985 17.6184H20.0623V15.6426ZM19.9549 17.7067H16.5548L17.8681 18.4476L19.9549 19.6295V19.6296H19.955H19.9728V17.7067H19.955H19.9549ZM19.9549 17.6184V17.6184H16.5369L19.9549 15.6427V15.6426L19.9728 15.625V17.6184H19.9549ZM16.5184 17.6184L19.9545 15.6426L16.5364 17.6184H16.5184Z" fill="white"/>
</svg>
