<svg width="40" height="40" viewBox="0 0 40 40" fill="none" xmlns="http://www.w3.org/2000/svg">
<path d="M20 40C8.95375 40 0 31.0462 0 20C0 8.95375 8.95375 0 20 0C31.0462 0 40 8.95375 40 20C40 31.0462 31.0462 40 20 40ZM21.4412 14.6762H12.5V17.495H21.4412V14.6762ZM28.75 16.0387L28.725 15.4137C28.4438 11.7638 25.6837 9.375 21.825 9.375H13.8125V12.415L19.4912 12.3975H21.6012C24.0013 12.3975 25.4387 13.7425 25.4387 16.0387C25.4387 18.38 23.9875 19.7588 21.5687 19.7588H14.1637V30.625H17.4125V22.7825H21.84C25.8875 22.7825 28.75 20.0487 28.75 16.0387Z" fill="white"/>
</svg>
