<svg width="282" height="264" viewBox="0 0 282 264" fill="none" xmlns="http://www.w3.org/2000/svg">
<rect width="282" height="264" rx="4" fill="#36393F"/>
<path d="M29 20.6129L27.6606 20.7058C26.7946 19.6529 24.3676 17 21.9507 17C21.9507 17 19.9668 20.0555 21.9104 24.1329C21.3565 24.9897 21.0141 25.4335 20.9436 26.4555L19 26.7548L19.2115 27.7665L20.9839 27.4981L21.1249 28.231L19.5438 29.2013L20.0171 30.12L21.4773 29.2013C22.6354 31.72 25.566 33 29 33C32.434 33 35.3646 31.72 36.5227 29.2013L37.9829 30.12L38.4562 29.2013L36.8751 28.231L37.0161 27.4981L38.7885 27.7665L39 26.7548L37.0564 26.4555C36.9859 25.4335 36.6435 24.9897 36.0896 24.1329C38.0332 20.0555 36.0493 17 36.0493 17C33.6324 17 31.2054 19.6529 30.3394 20.7058L29 20.6129ZM25.9789 23.7097C26.2459 23.7097 26.5021 23.8184 26.6909 24.012C26.8798 24.2056 26.9859 24.4682 26.9859 24.7419C26.9859 25.0157 26.8798 25.2783 26.6909 25.4719C26.5021 25.6654 26.2459 25.7742 25.9789 25.7742C25.7118 25.7742 25.4556 25.6654 25.2668 25.4719C25.0779 25.2783 24.9718 25.0157 24.9718 24.7419C24.9718 24.4682 25.0779 24.2056 25.2668 24.012C25.4556 23.8184 25.7118 23.7097 25.9789 23.7097ZM32.0211 23.7097C32.2882 23.7097 32.5444 23.8184 32.7332 24.012C32.9221 24.2056 33.0282 24.4682 33.0282 24.7419C33.0282 25.0157 32.9221 25.2783 32.7332 25.4719C32.5444 25.6654 32.2882 25.7742 32.0211 25.7742C31.7541 25.7742 31.4979 25.6654 31.3091 25.4719C31.1202 25.2783 31.0141 25.0157 31.0141 24.7419C31.0141 24.4682 31.1202 24.2056 31.3091 24.012C31.4979 23.8184 31.7541 23.7097 32.0211 23.7097ZM27.993 26.8065H30.007L29.3021 28.2413C29.5035 28.9019 30.0675 29.3871 30.7623 29.3871C31.163 29.3871 31.5472 29.224 31.8305 28.9336C32.1138 28.6432 32.2729 28.2494 32.2729 27.8387H32.7764C32.7764 28.3863 32.5642 28.9114 32.1865 29.2985C31.8088 29.6857 31.2965 29.9032 30.7623 29.9032C30.007 29.9032 29.3525 29.48 29 28.871C28.6475 29.48 27.993 29.9032 27.2377 29.9032C26.7035 29.9032 26.1912 29.6857 25.8135 29.2985C25.4358 28.9114 25.2236 28.3863 25.2236 27.8387H25.7271C25.7271 28.2494 25.8862 28.6432 26.1695 28.9336C26.4528 29.224 26.837 29.3871 27.2377 29.3871C27.9325 29.3871 28.4965 28.9019 28.6979 28.2413L27.993 26.8065Z" fill="#F15722"/>
<path d="M55.9149 29.0302C57.9189 29.0302 59.1189 27.9142 59.6469 26.3902L58.6629 25.9822C58.2309 27.2782 57.3429 28.0582 55.8909 28.0582C54.0909 28.0582 52.7829 26.7022 52.7829 24.7342C52.7829 22.7542 54.0909 21.3982 55.8669 21.3982C57.3189 21.3982 58.2309 22.1782 58.6629 23.4742L59.6469 23.0662C59.1309 21.5662 57.8829 20.4262 55.8789 20.4262C53.5149 20.4262 51.7389 22.2022 51.7389 24.7342C51.7389 27.2542 53.5149 29.0302 55.9149 29.0302ZM61.7651 23.4982V22.5742H60.8051V28.8982H61.8251V25.0822C61.8251 24.1822 62.6291 23.4022 63.7811 23.3902V22.4422C62.8931 22.4422 62.1731 22.9102 61.7651 23.4982ZM69.3247 22.5742L67.1887 28.0342L65.1487 22.5742H64.0807L66.5527 28.8982H66.8287L65.9287 31.0462H66.9367L70.3927 22.5742H69.3247ZM74.6763 22.4422C73.6323 22.4422 72.7923 22.9342 72.2883 23.7382V22.5742H71.3403V31.0462H72.3603V27.8662C72.8643 28.5982 73.6683 29.0302 74.6523 29.0302C76.4523 29.0302 77.7723 27.6262 77.7723 25.7422C77.7723 23.8582 76.4763 22.4422 74.6763 22.4422ZM74.5443 28.1302C73.2243 28.1302 72.3123 27.1462 72.3123 25.7422C72.3123 24.3382 73.2363 23.3422 74.5443 23.3422C75.8163 23.3422 76.7523 24.3622 76.7523 25.7422C76.7523 27.1102 75.8043 28.1302 74.5443 28.1302ZM81.4898 28.8982H82.4138V27.9982H81.6698C80.8538 27.9982 80.4098 27.5182 80.4098 26.6662V23.4502H82.3178V22.5742H80.4458V20.9542H79.4618V21.9982C79.4618 22.3822 79.2818 22.5742 78.8978 22.5742H78.2378V23.4502H79.3898V26.7742C79.3898 28.0822 80.1218 28.8982 81.4898 28.8982ZM86.0917 29.0302C88.0117 29.0302 89.3797 27.6262 89.3797 25.7422C89.3797 23.8462 88.0117 22.4422 86.0917 22.4422C84.1717 22.4422 82.8037 23.8462 82.8037 25.7422C82.8037 27.6262 84.1717 29.0302 86.0917 29.0302ZM86.1037 28.1182C84.7597 28.1182 83.8357 27.1222 83.8357 25.7422C83.8357 24.3502 84.7597 23.3542 86.1037 23.3542C87.4477 23.3542 88.3597 24.3502 88.3597 25.7422C88.3597 27.1222 87.4357 28.1182 86.1037 28.1182ZM94.5517 29.0302C96.5557 29.0302 97.7557 27.9142 98.2837 26.3902L97.2997 25.9822C96.8677 27.2782 95.9797 28.0582 94.5277 28.0582C92.7277 28.0582 91.4197 26.7022 91.4197 24.7342C91.4197 22.7542 92.7277 21.3982 94.5037 21.3982C95.9557 21.3982 96.8677 22.1782 97.2997 23.4742L98.2837 23.0662C97.7677 21.5662 96.5197 20.4262 94.5157 20.4262C92.1517 20.4262 90.3757 22.2022 90.3757 24.7342C90.3757 27.2542 92.1517 29.0302 94.5517 29.0302ZM104.542 22.5742V23.7982C104.062 22.9822 103.234 22.5022 102.166 22.5022C100.378 22.5022 99.0578 23.8582 99.0578 25.7302C99.0578 27.6262 100.366 29.0302 102.166 29.0302C103.234 29.0302 104.062 28.5262 104.542 27.6862V28.8982H105.49V22.5742H104.542ZM102.286 28.1302C101.014 28.1302 100.066 27.1102 100.066 25.7302C100.066 24.3742 101.014 23.3422 102.286 23.3422C103.606 23.3422 104.506 24.3262 104.506 25.7302C104.506 27.1462 103.594 28.1302 102.286 28.1302ZM109.744 28.8982H110.668V27.9982H109.924C109.108 27.9982 108.664 27.5182 108.664 26.6662V23.4502H110.572V22.5742H108.7V20.9542H107.716V21.9982C107.716 22.3822 107.536 22.5742 107.152 22.5742H106.492V23.4502H107.644V26.7742C107.644 28.0822 108.376 28.8982 109.744 28.8982Z" fill="white"/>
<path d="M142.733 22.4514H142.253L142.073 23.3814H140.953L140.873 23.7914H141.993L140.983 28.9914H139.833L139.753 29.4014H142.353L142.433 28.9914H141.463L142.733 22.4514ZM145.975 22.4514H145.495L145.315 23.3814H144.195L144.115 23.7914H145.235L144.225 28.9914H143.075L142.995 29.4014H145.595L145.675 28.9914H144.705L145.975 22.4514ZM146.107 29.9014H146.557L149.897 22.2914H149.457L146.107 29.9014ZM150.392 22.4514L150.302 22.8714H153.992L150.182 29.4014H150.732L154.522 22.8414L154.592 22.4514H150.392ZM153.421 29.9014H153.871L157.211 22.2914H156.771L153.421 29.9014ZM160.117 26.5314C161.137 25.6214 161.807 24.8614 161.807 23.8714C161.807 22.9714 161.117 22.3614 160.057 22.3614C159.007 22.3614 158.187 22.8814 157.697 23.9214L158.117 24.0714C158.517 23.2314 159.217 22.7914 160.007 22.7914C160.777 22.7914 161.307 23.2414 161.307 23.9514C161.307 24.8014 160.697 25.4414 159.777 26.2714L156.687 29.0814L156.617 29.4014H160.877L160.967 28.9814H157.407L160.117 26.5314ZM164.795 29.5014C166.975 29.5014 168.215 27.2414 168.215 25.1714C168.215 23.3514 167.265 22.3714 165.825 22.3714C163.655 22.3714 162.415 24.5914 162.415 26.6914C162.415 28.5014 163.345 29.5014 164.795 29.5014ZM164.845 29.0314C163.675 29.0314 162.915 28.1814 162.915 26.6514C162.915 24.8314 163.985 22.8314 165.775 22.8314C166.935 22.8314 167.705 23.6714 167.705 25.2214C167.705 27.0314 166.645 29.0314 164.845 29.0314ZM171.777 26.5314C172.797 25.6214 173.467 24.8614 173.467 23.8714C173.467 22.9714 172.777 22.3614 171.717 22.3614C170.667 22.3614 169.847 22.8814 169.357 23.9214L169.777 24.0714C170.177 23.2314 170.877 22.7914 171.667 22.7914C172.437 22.7914 172.967 23.2414 172.967 23.9514C172.967 24.8014 172.357 25.4414 171.437 26.2714L168.347 29.0814L168.277 29.4014H172.537L172.627 28.9814H169.067L171.777 26.5314ZM176.455 29.5014C178.635 29.5014 179.875 27.2414 179.875 25.1714C179.875 23.3514 178.925 22.3714 177.485 22.3714C175.315 22.3714 174.075 24.5914 174.075 26.6914C174.075 28.5014 175.005 29.5014 176.455 29.5014ZM176.505 29.0314C175.335 29.0314 174.575 28.1814 174.575 26.6514C174.575 24.8314 175.645 22.8314 177.435 22.8314C178.595 22.8314 179.365 23.6714 179.365 25.2214C179.365 27.0314 178.305 29.0314 176.505 29.0314ZM187.669 22.8514L187.749 22.4514H184.389L183.589 25.6614H185.039C186.069 25.6614 186.699 26.2614 186.699 27.2214C186.699 28.2614 185.819 29.0814 184.679 29.0814C183.749 29.0814 183.109 28.5914 183.049 27.7914L182.579 27.9714C182.689 28.9114 183.489 29.5114 184.609 29.5114C186.119 29.5114 187.209 28.5114 187.209 27.1914C187.209 26.0114 186.389 25.2514 185.109 25.2514H184.129L184.729 22.8514H187.669ZM188.984 25.7414C189.254 25.7414 189.454 25.5314 189.454 25.2714C189.454 25.0414 189.294 24.8914 189.074 24.8914C188.804 24.8914 188.594 25.1014 188.594 25.3614C188.594 25.5914 188.764 25.7414 188.984 25.7414ZM188.254 29.4914C188.514 29.4914 188.724 29.2814 188.724 29.0214C188.724 28.7914 188.564 28.6414 188.344 28.6414C188.074 28.6414 187.864 28.8514 187.864 29.1114C187.864 29.3414 188.034 29.4914 188.254 29.4914ZM192.693 22.4514H192.213L192.033 23.3814H190.913L190.833 23.7914H191.953L190.943 28.9914H189.793L189.713 29.4014H192.313L192.393 28.9914H191.423L192.693 22.4514ZM196.036 24.8514C195.796 24.8514 195.566 24.8814 195.316 24.9514L197.796 22.4514H197.196L194.146 25.5614C193.666 26.0514 193.296 26.7714 193.296 27.5714C193.296 28.7314 194.096 29.5114 195.346 29.5114C196.946 29.5114 198.046 28.2614 198.046 26.8414C198.046 25.6214 197.236 24.8514 196.036 24.8514ZM195.406 29.0814C194.426 29.0814 193.796 28.4114 193.796 27.4914C193.796 26.4014 194.656 25.2614 195.966 25.2614C196.916 25.2614 197.546 25.9214 197.546 26.8814C197.546 28.0014 196.656 29.0814 195.406 29.0814ZM199.707 25.7414C199.977 25.7414 200.177 25.5314 200.177 25.2714C200.177 25.0414 200.017 24.8914 199.797 24.8914C199.527 24.8914 199.317 25.1014 199.317 25.3614C199.317 25.5914 199.487 25.7414 199.707 25.7414ZM198.977 29.4914C199.237 29.4914 199.447 29.2814 199.447 29.0214C199.447 28.7914 199.287 28.6414 199.067 28.6414C198.797 28.6414 198.587 28.8514 198.587 29.1114C198.587 29.3414 198.757 29.4914 198.977 29.4914ZM203.496 29.5014C205.676 29.5014 206.916 27.2414 206.916 25.1714C206.916 23.3514 205.966 22.3714 204.526 22.3714C202.356 22.3714 201.116 24.5914 201.116 26.6914C201.116 28.5014 202.046 29.5014 203.496 29.5014ZM203.546 29.0314C202.376 29.0314 201.616 28.1814 201.616 26.6514C201.616 24.8314 202.686 22.8314 204.476 22.8314C205.636 22.8314 206.406 23.6714 206.406 25.2214C206.406 27.0314 205.346 29.0314 203.546 29.0314ZM209.969 22.4514H209.489L209.309 23.3814H208.189L208.109 23.7914H209.229L208.219 28.9914H207.069L206.989 29.4014H209.589L209.669 28.9914H208.699L209.969 22.4514ZM214.291 22.4514H212.041L210.691 29.4014H211.171L211.781 26.3014H213.711C215.171 26.3014 216.181 25.4214 216.181 24.1514C216.181 23.0814 215.481 22.4514 214.291 22.4514ZM213.761 25.8614H211.861L212.451 22.8814H214.221C215.161 22.8814 215.681 23.3514 215.681 24.1814C215.681 25.1714 214.901 25.8614 213.761 25.8614ZM223.235 22.4514V22.4714L223.145 22.4514L219.605 28.4914L218.455 22.4514H217.935L216.145 29.4014H216.615L218.205 23.2114L219.305 29.0914H219.715L223.135 23.2214L222.305 29.4014H222.765L223.675 22.4514H223.235Z" fill="white"/>
<path d="M56.8869 91.9521H58.0509L55.0869 88.2321H55.2909C56.9469 88.2321 58.0029 87.2721 58.0029 85.9161C58.0029 84.5601 56.9589 83.6121 55.2909 83.6121H52.1949V91.9521H53.2029V88.2321H53.9709L56.8869 91.9521ZM53.2029 84.5121H55.2669C56.3709 84.5121 56.9949 85.1241 56.9949 86.0001C56.9949 86.8761 56.3709 87.4761 55.2669 87.4761H53.2029V84.5121ZM61.9276 92.0841C63.8476 92.0841 65.2156 90.6801 65.2156 88.7961C65.2156 86.9001 63.8476 85.4961 61.9276 85.4961C60.0076 85.4961 58.6396 86.9001 58.6396 88.7961C58.6396 90.6801 60.0076 92.0841 61.9276 92.0841ZM61.9396 91.1721C60.5956 91.1721 59.6716 90.1761 59.6716 88.7961C59.6716 87.4041 60.5956 86.4081 61.9396 86.4081C63.2836 86.4081 64.1956 87.4041 64.1956 88.7961C64.1956 90.1761 63.2716 91.1721 61.9396 91.1721ZM69.3916 92.0841C70.9276 92.0841 71.9716 91.1601 72.2956 90.1281L71.3836 89.7561C71.1196 90.6321 70.3876 91.1721 69.4156 91.1721C68.1316 91.1721 67.1716 90.2001 67.1716 88.7961C67.1716 87.3921 68.1316 86.4201 69.4036 86.4201C70.3636 86.4201 71.0836 86.9601 71.3476 87.8361L72.2596 87.4761C71.9356 86.4201 70.9036 85.5081 69.3796 85.5081C67.5076 85.5081 66.1396 86.9241 66.1396 88.7961C66.1396 90.6921 67.5196 92.0841 69.3916 92.0841ZM78.7182 91.9521L75.4902 88.5441L78.6222 85.6281H77.4342L74.4462 88.2801V83.1801H73.4262V91.9521H74.4462V88.7961L77.5662 91.9521H78.7182ZM79.6158 89.1681H84.8718C84.8838 89.0481 84.8958 88.8321 84.8958 88.6521C84.8958 86.9841 83.6838 85.4841 81.7758 85.4841C79.9878 85.4841 78.5838 86.9601 78.5838 88.7961C78.5838 90.6801 79.9038 92.0961 81.8478 92.0961C83.3478 92.0961 84.2238 91.4481 84.6918 90.5481L83.8038 90.0081C83.4918 90.7401 82.9158 91.1361 81.8838 91.1361C80.7198 91.1361 79.7958 90.3441 79.6158 89.1681ZM79.6278 88.2801C79.8198 87.0801 80.7438 86.3721 81.8118 86.3721C82.8678 86.3721 83.6958 87.0921 83.8518 88.2801H79.6278ZM88.5679 91.9521H89.4919V91.0521H88.7479C87.9319 91.0521 87.4879 90.5721 87.4879 89.7201V86.5041H89.3959V85.6281H87.5239V84.0081H86.5399V85.0521C86.5399 85.4361 86.3599 85.6281 85.9759 85.6281H85.3159V86.5041H86.4679V89.8281C86.4679 91.1361 87.1999 91.9521 88.5679 91.9521ZM94.9178 87.5361C95.6978 87.2001 96.2138 86.5041 96.2138 85.6401C96.2138 84.4401 95.4098 83.6121 93.9098 83.6121H90.5738V91.9521H93.8378C95.5298 91.9521 96.5018 91.0521 96.5018 89.6361C96.5018 88.6041 95.9138 87.8481 94.9178 87.5361ZM95.1938 85.8201C95.1938 86.6721 94.4978 87.2001 93.6338 87.2001H91.5818V84.4521H93.6818C94.6778 84.4521 95.1938 85.0161 95.1938 85.8201ZM93.7178 91.1121H91.5818V88.0401H93.7058C94.7858 88.0401 95.4818 88.5921 95.4818 89.5641C95.4818 90.5361 94.8338 91.1121 93.7178 91.1121ZM100.775 92.0841C102.695 92.0841 104.063 90.6801 104.063 88.7961C104.063 86.9001 102.695 85.4961 100.775 85.4961C98.8553 85.4961 97.4873 86.9001 97.4873 88.7961C97.4873 90.6801 98.8553 92.0841 100.775 92.0841ZM100.787 91.1721C99.4433 91.1721 98.5193 90.1761 98.5193 88.7961C98.5193 87.4041 99.4433 86.4081 100.787 86.4081C102.131 86.4081 103.043 87.4041 103.043 88.7961C103.043 90.1761 102.119 91.1721 100.787 91.1721ZM107.787 91.9521H108.711V91.0521H107.967C107.151 91.0521 106.707 90.5721 106.707 89.7201V86.5041H108.615V85.6281H106.743V84.0081H105.759V85.0521C105.759 85.4361 105.579 85.6281 105.195 85.6281H104.535V86.5041H105.687V89.8281C105.687 91.1361 106.419 91.9521 107.787 91.9521Z" fill="white"/>
<path d="M137.714 85.5051H137.234L137.054 86.4351H135.934L135.854 86.8451H136.974L135.964 92.0451H134.814L134.734 92.4551H137.334L137.414 92.0451H136.444L137.714 85.5051ZM140.956 85.5051H140.476L140.296 86.4351H139.176L139.096 86.8451H140.216L139.206 92.0451H138.056L137.976 92.4551H140.576L140.656 92.0451H139.686L140.956 85.5051ZM141.088 92.9551H141.538L144.878 85.3451H144.438L141.088 92.9551ZM145.374 85.5051L145.284 85.9251H148.974L145.164 92.4551H145.714L149.504 85.8951L149.574 85.5051H145.374ZM148.403 92.9551H148.853L152.193 85.3451H151.753L148.403 92.9551ZM155.098 89.5851C156.118 88.6751 156.788 87.9151 156.788 86.9251C156.788 86.0251 156.098 85.4151 155.038 85.4151C153.988 85.4151 153.168 85.9351 152.678 86.9751L153.098 87.1251C153.498 86.2851 154.198 85.8451 154.988 85.8451C155.758 85.8451 156.288 86.2951 156.288 87.0051C156.288 87.8551 155.678 88.4951 154.758 89.3251L151.668 92.1351L151.598 92.4551H155.858L155.948 92.0351H152.388L155.098 89.5851ZM159.776 92.5551C161.956 92.5551 163.196 90.2951 163.196 88.2251C163.196 86.4051 162.246 85.4251 160.806 85.4251C158.636 85.4251 157.396 87.6451 157.396 89.7451C157.396 91.5551 158.326 92.5551 159.776 92.5551ZM159.826 92.0851C158.656 92.0851 157.896 91.2351 157.896 89.7051C157.896 87.8851 158.966 85.8851 160.756 85.8851C161.916 85.8851 162.686 86.7251 162.686 88.2751C162.686 90.0851 161.626 92.0851 159.826 92.0851ZM166.758 89.5851C167.778 88.6751 168.448 87.9151 168.448 86.9251C168.448 86.0251 167.758 85.4151 166.698 85.4151C165.648 85.4151 164.828 85.9351 164.338 86.9751L164.758 87.1251C165.158 86.2851 165.858 85.8451 166.648 85.8451C167.418 85.8451 167.948 86.2951 167.948 87.0051C167.948 87.8551 167.338 88.4951 166.418 89.3251L163.328 92.1351L163.258 92.4551H167.518L167.608 92.0351H164.048L166.758 89.5851ZM171.436 92.5551C173.616 92.5551 174.856 90.2951 174.856 88.2251C174.856 86.4051 173.906 85.4251 172.466 85.4251C170.296 85.4251 169.056 87.6451 169.056 89.7451C169.056 91.5551 169.986 92.5551 171.436 92.5551ZM171.486 92.0851C170.316 92.0851 169.556 91.2351 169.556 89.7051C169.556 87.8851 170.626 85.8851 172.416 85.8851C173.576 85.8851 174.346 86.7251 174.346 88.2751C174.346 90.0851 173.286 92.0851 171.486 92.0851ZM182.65 85.9051L182.73 85.5051H179.37L178.57 88.7151H180.02C181.05 88.7151 181.68 89.3151 181.68 90.2751C181.68 91.3151 180.8 92.1351 179.66 92.1351C178.73 92.1351 178.09 91.6451 178.03 90.8451L177.56 91.0251C177.67 91.9651 178.47 92.5651 179.59 92.5651C181.1 92.5651 182.19 91.5651 182.19 90.2451C182.19 89.0651 181.37 88.3051 180.09 88.3051H179.11L179.71 85.9051H182.65ZM183.965 88.7951C184.235 88.7951 184.435 88.5851 184.435 88.3251C184.435 88.0951 184.275 87.9451 184.055 87.9451C183.785 87.9451 183.575 88.1551 183.575 88.4151C183.575 88.6451 183.745 88.7951 183.965 88.7951ZM183.235 92.5451C183.495 92.5451 183.705 92.3351 183.705 92.0751C183.705 91.8451 183.545 91.6951 183.325 91.6951C183.055 91.6951 182.845 91.9051 182.845 92.1651C182.845 92.3951 183.015 92.5451 183.235 92.5451ZM187.675 85.5051H187.195L187.015 86.4351H185.895L185.815 86.8451H186.935L185.925 92.0451H184.775L184.695 92.4551H187.295L187.375 92.0451H186.405L187.675 85.5051ZM191.017 87.9051C190.777 87.9051 190.547 87.9351 190.297 88.0051L192.777 85.5051H192.177L189.127 88.6151C188.647 89.1051 188.277 89.8251 188.277 90.6251C188.277 91.7851 189.077 92.5651 190.327 92.5651C191.927 92.5651 193.027 91.3151 193.027 89.8951C193.027 88.6751 192.217 87.9051 191.017 87.9051ZM190.387 92.1351C189.407 92.1351 188.777 91.4651 188.777 90.5451C188.777 89.4551 189.637 88.3151 190.947 88.3151C191.897 88.3151 192.527 88.9751 192.527 89.9351C192.527 91.0551 191.637 92.1351 190.387 92.1351ZM194.688 88.7951C194.958 88.7951 195.158 88.5851 195.158 88.3251C195.158 88.0951 194.998 87.9451 194.778 87.9451C194.508 87.9451 194.298 88.1551 194.298 88.4151C194.298 88.6451 194.468 88.7951 194.688 88.7951ZM193.958 92.5451C194.218 92.5451 194.428 92.3351 194.428 92.0751C194.428 91.8451 194.268 91.6951 194.048 91.6951C193.778 91.6951 193.568 91.9051 193.568 92.1651C193.568 92.3951 193.738 92.5451 193.958 92.5451ZM198.477 92.5551C200.657 92.5551 201.897 90.2951 201.897 88.2251C201.897 86.4051 200.947 85.4251 199.507 85.4251C197.337 85.4251 196.097 87.6451 196.097 89.7451C196.097 91.5551 197.027 92.5551 198.477 92.5551ZM198.527 92.0851C197.357 92.0851 196.597 91.2351 196.597 89.7051C196.597 87.8851 197.667 85.8851 199.457 85.8851C200.617 85.8851 201.387 86.7251 201.387 88.2751C201.387 90.0851 200.327 92.0851 198.527 92.0851ZM205.459 89.5851C206.479 88.6751 207.149 87.9151 207.149 86.9251C207.149 86.0251 206.459 85.4151 205.399 85.4151C204.349 85.4151 203.529 85.9351 203.039 86.9751L203.459 87.1251C203.859 86.2851 204.559 85.8451 205.349 85.8451C206.119 85.8451 206.649 86.2951 206.649 87.0051C206.649 87.8551 206.039 88.4951 205.119 89.3251L202.029 92.1351L201.959 92.4551H206.219L206.309 92.0351H202.749L205.459 89.5851ZM211.138 85.5051H208.888L207.538 92.4551H208.018L208.628 89.3551H210.558C212.018 89.3551 213.028 88.4751 213.028 87.2051C213.028 86.1351 212.328 85.5051 211.138 85.5051ZM210.608 88.9151H208.708L209.298 85.9351H211.068C212.008 85.9351 212.528 86.4051 212.528 87.2351C212.528 88.2251 211.748 88.9151 210.608 88.9151ZM220.082 85.5051V85.5251L219.992 85.5051L216.452 91.5451L215.302 85.5051H214.782L212.992 92.4551H213.462L215.052 86.2651L216.152 92.1451H216.562L219.982 86.2751L219.152 92.4551H219.612L220.522 85.5051H220.082Z" fill="white"/>
<path opacity="0.8" d="M51.6309 49.3485H52.5549L54.8469 40.2165H53.9469L51.6309 49.3485ZM60.9598 42.4245V43.6005C60.4798 42.7965 59.6518 42.2925 58.5958 42.2925C56.7958 42.2925 55.4758 43.7085 55.4758 45.4965C55.4758 47.3085 56.7838 48.7005 58.5958 48.7005C59.6518 48.7005 60.4798 48.1965 60.9598 47.3805V48.0045C60.9598 49.3365 60.0838 50.1645 58.6678 50.1645C57.5878 50.1645 56.8198 49.6965 56.5078 48.7725L55.6318 49.1085C56.0398 50.2965 57.0358 51.0285 58.6558 51.0285C60.6958 51.0285 61.9078 49.8045 61.9078 47.9205V42.4245H60.9598ZM58.6918 47.8965C57.4318 47.8965 56.4958 46.8885 56.4958 45.5445C56.4958 44.2125 57.4438 43.1925 58.7158 43.1925C59.9998 43.1925 60.8998 44.1765 60.8998 45.5445C60.8998 46.9125 59.9878 47.8965 58.6918 47.8965ZM64.0982 41.2605C64.5542 41.2605 64.9022 40.9365 64.9022 40.4805C64.9022 40.0125 64.5542 39.6765 64.0982 39.6765C63.6422 39.6765 63.2942 40.0125 63.2942 40.4805C63.2942 40.9365 63.6422 41.2605 64.0982 41.2605ZM63.5942 48.7485H64.6142V42.4245H63.5942V48.7485ZM70.7892 42.4245L68.7012 47.7405L66.6132 42.4245H65.5452L68.1252 48.7485H69.2772L71.8572 42.4245H70.7892ZM73.1822 45.9645H78.4382C78.4502 45.8445 78.4622 45.6285 78.4622 45.4485C78.4622 43.7805 77.2502 42.2805 75.3422 42.2805C73.5542 42.2805 72.1502 43.7565 72.1502 45.5925C72.1502 47.4765 73.4702 48.8925 75.4142 48.8925C76.9142 48.8925 77.7902 48.2445 78.2582 47.3445L77.3702 46.8045C77.0582 47.5365 76.4822 47.9325 75.4502 47.9325C74.2862 47.9325 73.3622 47.1405 73.1822 45.9645ZM73.1942 45.0765C73.3862 43.8765 74.3102 43.1685 75.3782 43.1685C76.4342 43.1685 77.2622 43.8885 77.4182 45.0765H73.1942ZM84.8192 42.4245V43.6485C84.3392 42.8325 83.5112 42.3525 82.4432 42.3525C80.6552 42.3525 79.3352 43.7085 79.3352 45.5805C79.3352 47.4765 80.6432 48.8805 82.4432 48.8805C83.5112 48.8805 84.3392 48.3765 84.8192 47.5365V48.7485H85.7672V42.4245H84.8192ZM82.5632 47.9805C81.2912 47.9805 80.3432 46.9605 80.3432 45.5805C80.3432 44.2245 81.2912 43.1925 82.5632 43.1925C83.8832 43.1925 84.7832 44.1765 84.7832 45.5805C84.7832 46.9965 83.8712 47.9805 82.5632 47.9805ZM94.725 42.4245L93.405 47.7045L91.869 42.4245H90.729L89.193 47.7285L87.861 42.4245H86.805L88.533 48.7485H89.745L91.293 43.5765L92.865 48.7485H94.065L95.793 42.4245H94.725ZM101.823 42.4245V43.6485C101.343 42.8325 100.515 42.3525 99.4471 42.3525C97.6591 42.3525 96.3391 43.7085 96.3391 45.5805C96.3391 47.4765 97.6471 48.8805 99.4471 48.8805C100.515 48.8805 101.343 48.3765 101.823 47.5365V48.7485H102.771V42.4245H101.823ZM99.5671 47.9805C98.2951 47.9805 97.3471 46.9605 97.3471 45.5805C97.3471 44.2245 98.2951 43.1925 99.5671 43.1925C100.887 43.1925 101.787 44.1765 101.787 45.5805C101.787 46.9965 100.875 47.9805 99.5671 47.9805ZM108.981 42.4245L106.845 47.8845L104.805 42.4245H103.737L106.209 48.7485H106.485L105.585 50.8965H106.593L110.049 42.4245H108.981ZM121.835 48.7485L121.271 40.4085H120.311V40.4205L120.095 40.4085L117.563 47.2245L115.019 40.4085L114.803 40.4205V40.4085H113.843L113.279 48.7485H114.239L114.707 41.8965L117.119 48.4125H117.983L120.407 41.8845L120.875 48.7485H121.835ZM124.57 47.8485V44.8845H128.35V43.9845H124.57V41.3085H128.758V40.4085H123.55V48.7485H128.83V47.8485H124.57ZM134.957 48.7485H136.121L133.157 45.0285H133.361C135.017 45.0285 136.073 44.0685 136.073 42.7125C136.073 41.3565 135.029 40.4085 133.361 40.4085H130.265V48.7485H131.273V45.0285H132.041L134.957 48.7485ZM131.273 41.3085H133.337C134.441 41.3085 135.065 41.9205 135.065 42.7965C135.065 43.6725 134.441 44.2725 133.337 44.2725H131.273V41.3085ZM145.237 44.4285H141.109V45.2205H144.253C143.989 46.9605 142.813 47.9565 141.217 47.9565C139.321 47.9565 138.025 46.5885 138.025 44.5965C138.025 42.6165 139.321 41.2485 141.109 41.2485C142.489 41.2485 143.437 41.9565 143.905 43.2285L144.889 42.8205C144.325 41.3565 143.089 40.2765 141.133 40.2765C138.757 40.2765 136.981 42.0645 136.981 44.5845C136.981 47.0925 138.745 48.8805 141.133 48.8805C143.461 48.8805 145.237 47.1765 145.237 44.4285ZM147.692 47.8485V44.8845H151.472V43.9845H147.692V41.3085H151.88V40.4085H146.672V48.7485H151.952V47.8485H147.692ZM158.29 43.6365H157.102L157.234 41.2245H160.714V40.4085H156.358L156.142 44.4645H158.254C159.394 44.4645 160.162 45.2205 160.162 46.2405C160.162 47.2725 159.394 48.0045 158.278 48.0045C157.342 48.0045 156.586 47.4885 156.358 46.6125L155.422 46.9845C155.806 48.2085 156.85 48.8805 158.266 48.8805C160.054 48.8805 161.206 47.8005 161.206 46.2525C161.206 44.6925 160.03 43.6365 158.29 43.6365ZM167.319 47.8845V40.4085H166.299V41.5485H164.943V42.4005H166.299V47.8845H164.895V48.7485H168.447V47.8845H167.319ZM172.738 48.8805C174.898 48.8805 176.278 47.2365 176.278 44.5845C176.278 41.8845 174.91 40.3005 172.738 40.3005C170.578 40.3005 169.186 41.8725 169.186 44.5845C169.186 47.2485 170.578 48.8805 172.738 48.8805ZM172.738 47.9085C171.226 47.9085 170.23 46.6845 170.23 44.5845C170.23 42.4845 171.226 41.2725 172.738 41.2725C174.238 41.2725 175.234 42.4965 175.234 44.5845C175.234 46.6725 174.238 47.9085 172.738 47.9085ZM181.035 48.8805C183.195 48.8805 184.575 47.2365 184.575 44.5845C184.575 41.8845 183.207 40.3005 181.035 40.3005C178.875 40.3005 177.483 41.8725 177.483 44.5845C177.483 47.2485 178.875 48.8805 181.035 48.8805ZM181.035 47.9085C179.523 47.9085 178.527 46.6845 178.527 44.5845C178.527 42.4845 179.523 41.2725 181.035 41.2725C182.535 41.2725 183.531 42.4965 183.531 44.5845C183.531 46.6725 182.535 47.9085 181.035 47.9085ZM190.815 47.8845V40.4085H189.795V41.5485H188.439V42.4005H189.795V47.8845H188.391V48.7485H191.943V47.8845H190.815ZM196.234 48.8805C198.394 48.8805 199.774 47.2365 199.774 44.5845C199.774 41.8845 198.406 40.3005 196.234 40.3005C194.074 40.3005 192.682 41.8725 192.682 44.5845C192.682 47.2485 194.074 48.8805 196.234 48.8805ZM196.234 47.9085C194.722 47.9085 193.726 46.6845 193.726 44.5845C193.726 42.4845 194.722 41.2725 196.234 41.2725C197.734 41.2725 198.73 42.4965 198.73 44.5845C198.73 46.6725 197.734 47.9085 196.234 47.9085ZM208.683 42.2925C207.543 42.2925 206.763 42.8925 206.439 43.5765C206.091 42.7605 205.371 42.2925 204.279 42.2925C203.307 42.2925 202.575 42.7725 202.191 43.3605V42.4245H201.231V48.7485H202.251V44.7645C202.263 44.0325 202.935 43.2045 203.991 43.2045C205.047 43.1925 205.683 43.9485 205.683 45.0285V48.7485H206.703V44.7645C206.727 44.0325 207.387 43.2045 208.455 43.2045C209.511 43.1925 210.147 43.9605 210.147 45.0285V48.7485H211.167V44.8485C211.167 43.3725 210.267 42.2925 208.683 42.2925ZM213.29 41.2605C213.746 41.2605 214.094 40.9365 214.094 40.4805C214.094 40.0125 213.746 39.6765 213.29 39.6765C212.834 39.6765 212.486 40.0125 212.486 40.4805C212.486 40.9365 212.834 41.2605 213.29 41.2605ZM212.786 48.7485H213.806V42.4245H212.786V48.7485ZM218.637 42.2925C217.629 42.2925 216.861 42.7485 216.453 43.3485V42.4245H215.493V48.7485H216.513V44.8365C216.525 43.9845 217.293 43.2045 218.373 43.2045C219.501 43.1925 220.185 43.8885 220.185 45.0645V48.7485H221.205V44.8845C221.205 43.3125 220.257 42.2925 218.637 42.2925Z" fill="white"/>
<path d="M51.2109 112.312C51.2109 110.102 53.0018 108.312 55.2109 108.312H252.223C256.641 108.312 260.223 111.893 260.223 116.312V218.246C260.223 222.664 256.641 226.246 252.223 226.246H55.2109C53.0018 226.246 51.2109 224.455 51.2109 222.246V112.312Z" fill="#2F3136"/>
<path d="M51.2109 111.815C51.2109 109.88 52.7793 108.312 54.7139 108.312V226.246C52.7793 226.246 51.2109 224.677 51.2109 222.743V111.815Z" fill="#257DC1"/>
<rect width="209.012" height="23.3533" rx="4" transform="matrix(1 0 0 -1 51.2109 253.102)" fill="#2F3136"/>
<path d="M145.39 239.444C145.066 239.444 144.766 239.492 144.43 239.6L146.818 236.576H146.098L143.194 240.272C142.75 240.836 142.474 241.472 142.474 242.24C142.474 243.836 143.734 245.048 145.39 245.048C146.998 245.048 148.222 243.872 148.222 242.228C148.222 240.596 147.01 239.444 145.39 239.444ZM145.39 244.508C144.082 244.508 143.086 243.536 143.086 242.24C143.086 240.932 144.082 239.96 145.39 239.96C146.674 239.96 147.61 240.92 147.61 242.24C147.61 243.56 146.674 244.508 145.39 244.508ZM160.581 244.916L160.041 236.576H159.477V236.588L159.381 236.576L156.501 243.848L153.609 236.576L153.513 236.588V236.576H152.937L152.409 244.916H152.973L153.453 237.5L156.237 244.544H156.753L159.537 237.5L160.017 244.916H160.581ZM162.494 241.916H167.954V241.604C167.954 239.84 166.742 238.472 164.978 238.472C163.226 238.472 161.882 239.9 161.882 241.76C161.882 243.644 163.19 245.048 165.002 245.048C166.454 245.048 167.402 244.388 167.834 243.284L167.354 243.008C166.994 244.016 166.214 244.496 165.014 244.496C163.586 244.496 162.566 243.452 162.494 241.916ZM162.506 241.424C162.638 239.984 163.622 238.988 164.99 238.988C166.358 238.988 167.294 239.96 167.366 241.424H162.506ZM176.867 238.46C175.631 238.46 174.791 239.24 174.515 239.984C174.179 239.036 173.387 238.46 172.211 238.46C171.119 238.46 170.327 239.084 169.991 239.756V238.592H169.427V244.916H170.015V240.812C170.039 239.96 170.867 239.012 172.091 239C173.315 238.988 174.107 239.852 174.107 241.124V244.916H174.695V240.812C174.719 239.96 175.547 239.012 176.771 239C177.995 238.988 178.787 239.852 178.787 241.124V244.916H179.375V241.04C179.375 239.516 178.427 238.46 176.867 238.46ZM184.396 238.472C183.232 238.472 182.308 239.072 181.816 240.032V236.144H181.228V244.916H181.78V243.392C182.26 244.412 183.196 245.048 184.384 245.048C186.172 245.048 187.492 243.632 187.492 241.748C187.492 239.876 186.172 238.472 184.396 238.472ZM184.348 244.508C182.848 244.508 181.804 243.368 181.804 241.748C181.804 240.128 182.848 239 184.348 239C185.8 239 186.892 240.188 186.892 241.748C186.892 243.332 185.812 244.508 184.348 244.508ZM189.166 241.916H194.626V241.604C194.626 239.84 193.414 238.472 191.65 238.472C189.898 238.472 188.554 239.9 188.554 241.76C188.554 243.644 189.862 245.048 191.674 245.048C193.126 245.048 194.074 244.388 194.506 243.284L194.026 243.008C193.666 244.016 192.886 244.496 191.686 244.496C190.258 244.496 189.238 243.452 189.166 241.916ZM189.178 241.424C189.31 239.984 190.294 238.988 191.662 238.988C193.03 238.988 193.966 239.96 194.038 241.424H189.178ZM196.663 239.732V238.592H196.099V244.916H196.687V240.908C196.687 239.972 197.599 239.036 198.799 239.024V238.46C197.803 238.46 197.011 239.06 196.663 239.732ZM201.686 245.048C203.066 245.048 204.014 244.4 204.014 243.272C204.014 240.956 200.126 241.82 200.126 240.056C200.126 239.372 200.678 238.94 201.638 238.94C202.418 238.94 202.97 239.252 203.222 239.912L203.738 239.708C203.45 238.892 202.706 238.472 201.638 238.472C200.378 238.472 199.538 239.072 199.538 240.092C199.538 242.264 203.426 241.46 203.426 243.32C203.426 244.112 202.73 244.556 201.698 244.556C200.654 244.556 199.97 244.124 199.742 243.38L199.214 243.596C199.526 244.508 200.414 245.048 201.686 245.048Z" fill="white"/>
<path d="M127.109 235.587L127.109 247.263" stroke="white" stroke-linecap="round" stroke-linejoin="round"/>
<g clip-path="url(#clip0)">
<path d="M103.387 240.144C103.358 240.191 102.763 240.688 102.972 241.541C103.18 242.393 104.09 246.375 104.09 246.375C104.09 246.375 104.187 246.816 104.848 247.122C105.395 247.375 109.246 248.849 110.57 249.355C110.85 249.462 111.633 249.83 112.265 249.144C113.151 248.181 115.52 245.336 115.52 245.336C115.52 245.336 115.77 245.128 115.868 244.44C115.94 243.928 116.553 240.179 116.656 239.161C116.691 238.81 116.922 237.84 116.239 237.493C115.555 237.145 109.511 235.22 109.511 235.22C109.511 235.22 108.758 234.822 108.195 235.354C106.248 237.193 103.387 240.144 103.387 240.144Z" fill="#FCC21B"/>
<path d="M111.878 243.7C111.956 243.5 112.066 243.311 112.224 243.134L115.151 239.862C115.803 239.134 116.453 238.406 117.104 237.678L115.997 245.076L112.084 249.732L111.404 250.173C111.468 250.131 111.438 249.566 111.441 249.491C111.471 248.95 111.5 248.408 111.531 247.867C111.575 247.041 111.621 246.213 111.666 245.387C111.697 244.807 111.675 244.221 111.878 243.7Z" fill="#F79329"/>
<path d="M106.481 247.965C107.209 248.388 108.9 248.928 108.9 248.928C108.524 248.506 108.566 247.094 108.534 246.297C108.454 244.232 108.555 243.518 108.759 242.987C109.167 241.927 111.455 239.582 111.46 239.535C111.191 239.481 110.408 239.631 110.146 239.536C109.827 239.421 109.527 239.323 109.186 239.282C109.038 239.264 108.875 239.239 108.748 239.157C108.677 239.112 108.61 239.028 108.518 239.057C108.458 239.077 108.412 239.149 108.368 239.191C108.311 239.248 108.247 239.297 108.182 239.346C108.053 239.443 107.918 239.532 107.801 239.645C107.671 239.773 107.561 239.918 107.421 240.034C107.303 240.13 107.172 240.222 107.067 240.331C106.914 240.49 106.353 241.151 106.211 241.311C105.952 241.605 105.801 241.973 105.73 242.355C105.649 242.78 105.767 243.856 105.87 244.748C106.071 246.466 106.018 247.696 106.481 247.965Z" fill="#D7598B"/>
<path d="M113.442 241.313C113.491 241.577 113.329 243.113 113.267 244.583C113.186 246.536 113.133 248.569 112.892 248.811C112.478 249.224 114.575 246.883 114.568 246.931C114.56 246.979 114.744 246.278 114.771 246.063C114.847 245.454 115.285 240.112 115.377 238.886L113.442 241.313Z" fill="#D7598B"/>
<path d="M107.908 238.421C107.908 238.421 110.594 235.682 111.25 235.587C111.764 235.513 114.067 236.285 114.067 236.285L110.388 239.394L107.908 238.421Z" fill="#D7598B"/>
<path d="M103.781 238.421L113.36 242.458L115.27 240.272L105.629 236.453L103.781 238.421Z" fill="#D7598B"/>
<path d="M117.404 238.357C117.512 235.659 113.41 236.081 111.588 236.843C111.201 236.389 110.281 236.057 109.717 235.954C109.383 234.929 108.498 234.033 107.567 233.546C106.547 233.012 105.415 233.425 104.571 234.08C103.698 234.758 103.512 236.127 103.765 237.117C103.822 237.337 103.919 237.548 104.06 237.726C104.235 237.947 104.403 238.118 104.035 238.203C103.648 238.291 103.27 238.454 102.971 238.72C102.313 239.306 104.095 240.046 104.354 240.15C104.917 240.378 104.527 241.403 104.732 241.935C104.833 242.194 105.178 242.42 105.464 242.301C106.643 241.808 107.392 240.595 108.455 239.929C108.617 240.509 108.874 241.081 109.071 241.642C109.335 242.388 109.544 243.186 109.977 243.857C110.128 244.089 110.374 244.288 110.661 244.139C110.834 244.049 110.939 243.96 111.056 243.8C111.542 243.147 111.93 242.862 112.754 242.883C113.589 242.905 114.784 242.942 114.101 241.776C114.041 241.673 113.818 241.445 113.864 241.324C113.915 241.193 114.165 241.217 114.27 241.213C114.475 241.205 114.681 241.184 114.883 241.144C116.275 240.876 117.346 239.811 117.404 238.357Z" fill="#FCC21B"/>
<path d="M104.422 236.883C104.109 236.104 104.489 235.14 105.024 234.548C105.812 233.678 106.985 233.895 107.832 234.553C108.106 234.766 108.351 235.019 108.556 235.3C108.654 235.434 108.747 235.576 108.821 235.726C109.014 236.12 108.516 236.222 108.27 236.383C108.053 236.523 107.893 236.714 107.695 236.871C107.47 237.048 107.176 236.7 107.004 236.571C106.745 236.375 106.474 236.193 106.178 236.056C105.791 235.877 105.224 235.954 105.24 236.475C105.256 236.975 105.727 237.21 106.153 237.283C106.381 237.323 106.62 237.313 106.839 237.384C106.954 237.421 107.079 237.459 107.207 237.494C107.235 237.502 107.272 237.545 107.294 237.564C107.263 237.66 107.307 237.835 107.256 237.913C107.201 237.998 106.998 237.986 106.908 237.988C106.775 237.991 106.652 237.973 106.521 237.964C106.205 237.942 105.883 237.876 105.576 237.783C105.09 237.633 104.62 237.376 104.422 236.883Z" fill="#D7598B"/>
<path d="M106.15 240.919C105.923 241.097 105.265 241.801 105.289 241.154C105.302 240.812 105.342 240.41 105.25 240.077C105.133 239.655 104.624 239.465 104.26 239.326C104.149 239.283 103.648 239.163 103.763 238.982C103.914 238.745 104.639 238.783 104.877 238.769C105.384 238.741 105.893 238.736 106.4 238.733C106.601 238.733 106.801 238.748 107.002 238.741C107.169 238.734 107.311 238.693 107.472 238.779C107.635 238.866 107.91 239.1 107.973 239.28C107.998 239.354 107.996 239.343 107.93 239.4C107.875 239.447 107.815 239.49 107.759 239.536C107.647 239.628 107.536 239.723 107.426 239.819C107.002 240.188 106.592 240.573 106.15 240.919Z" fill="#D7598B"/>
<path d="M107.973 237.776C108.026 237.428 108.339 237.122 108.606 236.917C108.751 236.804 108.923 236.675 109.098 236.619C109.334 236.544 109.578 236.577 109.808 236.656C110.011 236.725 110.218 236.775 110.406 236.884C110.508 236.944 110.606 237.015 110.705 237.079C111.06 237.31 110.73 237.729 110.6 237.999C110.426 238.355 110.204 238.778 109.768 238.839C109.687 238.85 109.604 238.848 109.522 238.838C108.897 238.75 107.85 238.571 107.973 237.776Z" fill="#D7598B"/>
<path d="M113.084 242.107C112.881 242.175 112.6 242.115 112.401 242.111C112.138 242.105 111.872 242.113 111.613 242.162C111.369 242.208 111.197 242.415 111.045 242.592C110.931 242.724 110.747 243.022 110.564 243.057C110.433 243.083 110.331 242.913 110.286 242.815C110.006 242.194 109.738 241.568 109.49 240.933C109.366 240.614 109.248 240.292 109.137 239.969C109.1 239.862 109.015 239.725 109.097 239.617C109.194 239.489 109.355 239.587 109.478 239.612C109.612 239.638 109.753 239.65 109.89 239.651C110.013 239.654 110.138 239.643 110.258 239.613C110.332 239.594 110.388 239.548 110.464 239.537C110.729 239.506 110.872 239.658 111.074 239.799C111.324 239.976 111.564 240.165 111.796 240.365C112.252 240.758 112.674 241.191 113.054 241.66C113.138 241.764 113.333 241.981 113.148 242.079C113.129 242.09 113.106 242.099 113.084 242.107Z" fill="#D7598B"/>
<path d="M112.507 239.945C112.456 239.901 112.184 239.757 112.32 239.697C112.359 239.681 112.397 239.71 112.431 239.721C112.541 239.755 112.655 239.765 112.767 239.792C113.039 239.855 113.313 239.913 113.59 239.954C113.96 240.007 114.417 239.719 114.301 239.295C114.193 238.9 113.623 238.827 113.296 238.772C112.706 238.673 112.124 238.723 111.536 238.766C111.436 238.774 111.299 238.838 111.223 238.739C111.179 238.679 111.191 238.591 111.2 238.522C111.222 238.359 111.277 238.186 111.348 238.038C111.754 237.196 112.747 237.129 113.536 236.991C114.336 236.852 115.157 236.811 115.919 237.147C116.261 237.299 116.557 237.585 116.701 237.936C117.104 238.919 116.094 239.741 115.41 240.221C114.557 240.817 113.368 240.415 112.507 239.945Z" fill="#D7598B"/>
</g>
<path d="M114.28 126.165H110.152V126.957H113.296C113.032 128.697 111.856 129.693 110.26 129.693C108.364 129.693 107.068 128.325 107.068 126.333C107.068 124.353 108.364 122.985 110.152 122.985C111.532 122.985 112.48 123.693 112.948 124.965L113.932 124.557C113.368 123.093 112.132 122.013 110.176 122.013C107.8 122.013 106.024 123.801 106.024 126.321C106.024 128.829 107.788 130.617 110.176 130.617C112.504 130.617 114.28 128.913 114.28 126.165ZM116.086 122.997C116.542 122.997 116.89 122.673 116.89 122.217C116.89 121.749 116.542 121.413 116.086 121.413C115.63 121.413 115.282 121.749 115.282 122.217C115.282 122.673 115.63 122.997 116.086 122.997ZM115.582 130.485H116.602V124.161H115.582V130.485ZM122.777 124.161L120.689 129.477L118.601 124.161H117.533L120.113 130.485H121.265L123.845 124.161H122.777ZM125.17 127.701H130.426C130.438 127.581 130.45 127.365 130.45 127.185C130.45 125.517 129.238 124.017 127.33 124.017C125.542 124.017 124.138 125.493 124.138 127.329C124.138 129.213 125.458 130.629 127.402 130.629C128.902 130.629 129.778 129.981 130.246 129.081L129.358 128.541C129.046 129.273 128.47 129.669 127.438 129.669C126.274 129.669 125.35 128.877 125.17 127.701ZM125.182 126.813C125.374 125.613 126.298 124.905 127.366 124.905C128.422 124.905 129.25 125.625 129.406 126.813H125.182ZM136.807 124.161V125.385C136.327 124.569 135.499 124.089 134.431 124.089C132.643 124.089 131.323 125.445 131.323 127.317C131.323 129.213 132.631 130.617 134.431 130.617C135.499 130.617 136.327 130.113 136.807 129.273V130.485H137.755V124.161H136.807ZM134.551 129.717C133.279 129.717 132.331 128.697 132.331 127.317C132.331 125.961 133.279 124.929 134.551 124.929C135.871 124.929 136.771 125.913 136.771 127.317C136.771 128.733 135.859 129.717 134.551 129.717ZM146.713 124.161L145.393 129.441L143.857 124.161H142.717L141.181 129.465L139.849 124.161H138.793L140.521 130.485H141.733L143.281 125.313L144.853 130.485H146.053L147.781 124.161H146.713ZM153.811 124.161V125.385C153.331 124.569 152.503 124.089 151.435 124.089C149.647 124.089 148.327 125.445 148.327 127.317C148.327 129.213 149.635 130.617 151.435 130.617C152.503 130.617 153.331 130.113 153.811 129.273V130.485H154.759V124.161H153.811ZM151.555 129.717C150.283 129.717 149.335 128.697 149.335 127.317C149.335 125.961 150.283 124.929 151.555 124.929C152.875 124.929 153.775 125.913 153.775 127.317C153.775 128.733 152.863 129.717 151.555 129.717ZM160.969 124.161L158.833 129.621L156.793 124.161H155.725L158.197 130.485H158.473L157.573 132.633H158.581L162.037 124.161H160.969ZM167.415 130.617C168.915 130.617 169.911 129.921 169.911 128.721C169.911 126.405 166.251 127.149 166.251 125.733C166.251 125.217 166.671 124.893 167.403 124.893C168.039 124.893 168.495 125.157 168.699 125.721L169.671 125.337C169.395 124.497 168.567 124.029 167.415 124.029C166.023 124.029 165.123 124.701 165.123 125.793C165.123 127.965 168.759 127.281 168.759 128.805C168.759 129.393 168.243 129.729 167.451 129.729C166.575 129.729 165.987 129.345 165.783 128.697L164.811 129.081C165.147 130.089 166.107 130.617 167.415 130.617ZM173.556 130.485H174.48V129.585H173.736C172.92 129.585 172.476 129.105 172.476 128.253V125.037H174.384V124.161H172.512V122.541H171.528V123.585C171.528 123.969 171.348 124.161 170.964 124.161H170.304V125.037H171.456V128.361C171.456 129.669 172.188 130.485 173.556 130.485ZM180.366 124.161V125.385C179.886 124.569 179.058 124.089 177.99 124.089C176.202 124.089 174.882 125.445 174.882 127.317C174.882 129.213 176.19 130.617 177.99 130.617C179.058 130.617 179.886 130.113 180.366 129.273V130.485H181.314V124.161H180.366ZM178.11 129.717C176.838 129.717 175.89 128.697 175.89 127.317C175.89 125.961 176.838 124.929 178.11 124.929C179.43 124.929 180.33 125.913 180.33 127.317C180.33 128.733 179.418 129.717 178.11 129.717ZM183.984 125.085V124.161H183.024V130.485H184.044V126.669C184.044 125.769 184.848 124.989 186 124.977V124.029C185.112 124.029 184.392 124.497 183.984 125.085ZM189.587 130.485H190.511V129.585H189.767C188.951 129.585 188.507 129.105 188.507 128.253V125.037H190.415V124.161H188.543V122.541H187.559V123.585C187.559 123.969 187.379 124.161 186.995 124.161H186.335V125.037H187.487V128.361C187.487 129.669 188.219 130.485 189.587 130.485ZM191.885 127.701H197.141C197.153 127.581 197.165 127.365 197.165 127.185C197.165 125.517 195.953 124.017 194.045 124.017C192.257 124.017 190.853 125.493 190.853 127.329C190.853 129.213 192.173 130.629 194.117 130.629C195.617 130.629 196.493 129.981 196.961 129.081L196.073 128.541C195.761 129.273 195.185 129.669 194.153 129.669C192.989 129.669 192.065 128.877 191.885 127.701ZM191.897 126.813C192.089 125.613 193.013 124.905 194.081 124.905C195.137 124.905 195.965 125.625 196.121 126.813H191.897ZM203.45 121.713V125.229C202.946 124.473 202.13 124.029 201.122 124.029C199.334 124.029 198.038 125.445 198.038 127.317C198.038 129.213 199.346 130.617 201.146 130.617C202.19 130.617 203.03 130.125 203.522 129.321V130.485H204.47V121.713H203.45ZM201.266 129.717C199.994 129.717 199.046 128.697 199.046 127.317C199.046 125.961 199.994 124.929 201.266 124.929C202.586 124.929 203.486 125.913 203.486 127.317C203.486 128.733 202.574 129.717 201.266 129.717ZM206.384 127.989H207.212L207.38 121.713H206.204L206.384 127.989ZM206.792 130.593C207.2 130.593 207.488 130.305 207.488 129.909C207.488 129.501 207.2 129.213 206.792 129.213C206.408 129.213 206.108 129.501 206.108 129.909C206.108 130.305 206.408 130.593 206.792 130.593Z" fill="white"/>
<g clip-path="url(#clip1)">
<path d="M243.483 119.803C242.909 119.803 242.344 119.904 241.8 120.104C241.63 120.166 241.485 120.282 241.386 120.434C241.287 120.586 241.24 120.765 241.252 120.946C241.258 121.037 241.409 123.166 242.212 125.312C243.015 127.462 244.166 128.968 244.216 129.032C244.324 129.173 244.475 129.276 244.646 129.326C244.817 129.375 244.999 129.369 245.166 129.308C247.703 128.378 249.012 125.559 248.084 123.022C247.38 121.097 245.531 119.803 243.483 119.803Z" fill="#FCC21B"/>
<path d="M237.227 117.022C236.565 117.022 235.918 117.155 235.306 117.416C234.102 117.928 233.171 118.881 232.682 120.096C232.194 121.311 232.209 122.641 232.723 123.844C232.854 124.156 233.161 124.353 233.493 124.353C233.521 124.353 233.547 124.352 233.573 124.35C233.654 124.342 235.539 124.151 237.657 123.265C239.77 122.381 241.427 121.033 241.496 120.976C241.636 120.861 241.735 120.703 241.778 120.527C241.821 120.351 241.806 120.165 241.734 119.999C241.358 119.115 240.73 118.361 239.928 117.832C239.127 117.303 238.187 117.021 237.227 117.022Z" fill="#FCC21B"/>
<path d="M240.258 124.693C240.242 124.613 240.186 124.547 240.114 124.516L239.498 124.248C239.411 124.211 239.311 124.225 239.238 124.283C239.164 124.344 239.132 124.439 239.151 124.531C239.151 124.534 239.229 124.936 239.004 125.273C238.841 125.514 238.555 125.672 238.153 125.743C237.082 125.931 236.963 126.626 236.877 127.132C236.795 127.611 236.738 127.826 236.252 127.872C235.711 127.923 235.314 128.125 235.069 128.473C234.677 129.028 234.849 129.739 234.856 129.769C234.874 129.844 234.928 129.907 235 129.938L235.616 130.206C235.649 130.22 235.683 130.227 235.716 130.227C235.754 130.227 235.792 130.219 235.826 130.202C235.86 130.185 235.89 130.161 235.914 130.131C235.938 130.101 235.954 130.067 235.962 130.029C235.97 129.992 235.97 129.954 235.961 129.917C235.961 129.912 235.839 129.394 236.099 129.03C236.256 128.81 236.531 128.679 236.917 128.642C237.808 128.557 237.913 127.938 237.99 127.486C238.073 127.01 238.135 126.634 238.857 126.508C239.399 126.413 239.797 126.183 240.038 125.823C240.383 125.304 240.265 124.718 240.258 124.693Z" fill="#ED6C30"/>
<path d="M242.212 131.844C241.834 131.534 241.906 131.326 242.105 130.881C242.317 130.413 242.606 129.769 241.821 129.015C241.528 128.734 241.379 128.444 241.377 128.155C241.374 127.746 241.666 127.454 241.668 127.45C241.735 127.385 241.76 127.288 241.734 127.197C241.706 127.107 241.632 127.04 241.538 127.023L240.878 126.902C240.799 126.887 240.717 126.912 240.658 126.968C240.642 126.986 240.213 127.406 240.215 128.028C240.215 128.46 240.418 128.872 240.813 129.255C241.341 129.762 241.185 130.11 240.987 130.552C240.799 130.971 240.542 131.542 241.233 132.11C241.533 132.357 241.689 132.618 241.696 132.889C241.709 133.337 241.32 133.698 241.317 133.7C241.244 133.764 241.218 133.864 241.243 133.954C241.269 134.048 241.345 134.117 241.44 134.133L242.1 134.255C242.115 134.258 242.129 134.26 242.144 134.26C242.205 134.26 242.266 134.237 242.313 134.196C242.336 134.174 242.877 133.682 242.86 133.002C242.847 132.578 242.63 132.189 242.212 131.844Z" fill="#D7598B"/>
<path d="M238.623 131.746C238.987 131.114 238.787 130.552 238.779 130.527C238.754 130.462 238.703 130.408 238.636 130.383L238.048 130.146C237.958 130.11 237.852 130.13 237.782 130.199C237.711 130.266 237.685 130.371 237.718 130.465C237.723 130.48 237.843 130.839 237.6 131.258C237.488 131.449 237.347 131.519 237.166 131.608C236.961 131.708 236.705 131.833 236.55 132.164C236.406 132.473 236.444 132.772 236.475 133.036C236.504 133.278 236.529 133.485 236.43 133.69C236.327 133.91 236.15 134.02 235.944 134.148C235.741 134.274 235.511 134.417 235.345 134.682C235.204 134.907 235.187 135.163 235.171 135.412C235.143 135.818 235.11 136.076 234.757 136.256C234.67 136.301 234.616 136.393 234.619 136.491C234.624 136.59 234.685 136.677 234.777 136.713L235.365 136.949C235.394 136.962 235.427 136.967 235.458 136.967C235.498 136.967 235.536 136.958 235.572 136.939C236.196 136.623 236.233 136.079 236.258 135.682C236.271 135.486 236.283 135.302 236.358 135.186C236.462 135.018 236.619 134.923 236.798 134.81C237.036 134.66 237.304 134.495 237.471 134.141C237.632 133.803 237.595 133.488 237.559 133.21C237.531 132.985 237.508 132.79 237.591 132.613C237.667 132.449 237.774 132.391 237.972 132.294C238.181 132.192 238.437 132.069 238.623 131.746Z" fill="#D7598B"/>
<path d="M231.443 128.93C231.722 128.92 232.039 128.907 232.359 128.683C232.666 128.468 232.788 128.178 232.898 127.918C232.986 127.708 233.062 127.527 233.223 127.414C233.387 127.299 233.54 127.316 233.71 127.327C233.778 127.332 233.847 127.335 233.914 127.335C234.064 127.335 234.29 127.319 234.545 127.171C235.175 126.805 235.279 126.215 235.284 126.191C235.295 126.122 235.275 126.05 235.233 125.994L234.839 125.496C234.778 125.419 234.674 125.385 234.579 125.409C234.484 125.434 234.412 125.513 234.395 125.611C234.394 125.614 234.321 125.994 233.899 126.238C233.783 126.307 233.673 126.335 233.522 126.335C233.464 126.335 233.407 126.332 233.349 126.329C233.284 126.324 233.22 126.321 233.154 126.321C232.99 126.321 232.773 126.342 232.54 126.508C232.261 126.705 232.146 126.982 232.042 127.229C231.949 127.452 231.866 127.644 231.679 127.775C231.481 127.913 231.272 127.922 231.031 127.931C230.793 127.941 230.522 127.951 230.246 128.099C230.013 128.225 229.87 128.439 229.733 128.646C229.517 128.974 229.366 129.174 229.004 129.174L228.955 129.173C228.86 129.168 228.765 129.22 228.719 129.309C228.674 129.396 228.684 129.503 228.747 129.58L229.141 130.078C229.187 130.133 229.254 130.168 229.325 130.171C229.349 130.173 229.374 130.174 229.399 130.174C230.047 130.174 230.336 129.739 230.546 129.421C230.653 129.258 230.756 129.104 230.878 129.038C231.047 128.945 231.231 128.938 231.443 128.93Z" fill="#D7598B"/>
<path d="M233.803 130.967V130.194C233.803 130.055 233.69 129.943 233.552 129.943H232.777C232.639 129.943 232.525 130.055 232.525 130.194V130.967C232.525 131.107 232.637 131.219 232.777 131.219H233.552C233.691 131.219 233.803 131.105 233.803 130.967Z" fill="#ED6C30"/>
<path d="M230.728 124.928L230.181 125.475C230.083 125.573 230.083 125.733 230.181 125.83L230.728 126.378C230.777 126.426 230.841 126.452 230.905 126.452C230.971 126.452 231.035 126.427 231.083 126.378L231.631 125.83C231.73 125.731 231.73 125.573 231.631 125.475L231.083 124.928C230.984 124.83 230.825 124.83 230.728 124.928Z" fill="#40C0E7"/>
<path d="M229.201 126.49C229.249 126.442 229.275 126.38 229.275 126.312C229.275 126.247 229.249 126.183 229.201 126.135L228.653 125.587C228.559 125.493 228.392 125.493 228.298 125.587L227.751 126.135C227.704 126.183 227.676 126.247 227.676 126.312C227.676 126.38 227.704 126.442 227.751 126.49L228.298 127.036C228.321 127.06 228.349 127.078 228.379 127.091C228.41 127.104 228.442 127.11 228.475 127.11C228.508 127.11 228.541 127.104 228.571 127.091C228.602 127.078 228.63 127.06 228.653 127.036L229.201 126.49Z" fill="#ED6C30"/>
<path d="M232.014 131.756C231.921 131.661 231.753 131.661 231.658 131.756L231.111 132.303C231.012 132.401 231.012 132.56 231.111 132.659L231.658 133.206C231.681 133.229 231.709 133.248 231.739 133.26C231.77 133.273 231.802 133.279 231.835 133.279C231.868 133.279 231.901 133.273 231.931 133.26C231.962 133.248 231.989 133.229 232.012 133.206L232.559 132.659C232.658 132.56 232.658 132.401 232.559 132.303L232.014 131.756Z" fill="#40C0E7"/>
<path d="M238.786 134.861C238.687 134.762 238.528 134.762 238.43 134.861L237.916 135.375C237.817 135.473 237.817 135.633 237.916 135.731L238.43 136.245C238.453 136.268 238.481 136.287 238.511 136.3C238.541 136.312 238.574 136.319 238.607 136.319C238.64 136.319 238.673 136.312 238.703 136.3C238.733 136.287 238.761 136.268 238.784 136.245L239.298 135.731C239.397 135.633 239.397 135.473 239.298 135.375L238.786 134.861Z" fill="#40C0E7"/>
<path d="M245.748 131.413C245.771 131.436 245.799 131.454 245.829 131.467C245.86 131.48 245.892 131.486 245.925 131.486C245.958 131.486 245.991 131.48 246.021 131.467C246.052 131.454 246.079 131.436 246.103 131.413L246.618 130.899C246.715 130.8 246.715 130.642 246.618 130.544L246.103 130.03C246.004 129.931 245.845 129.931 245.748 130.03L245.234 130.544C245.136 130.642 245.136 130.8 245.234 130.899L245.748 131.413Z" fill="#40C0E7"/>
<path d="M244.148 134.969C244.051 134.871 243.89 134.871 243.792 134.969L243.278 135.483C243.181 135.582 243.181 135.741 243.278 135.839L243.792 136.353C243.841 136.401 243.907 136.427 243.971 136.427C244.035 136.427 244.099 136.403 244.148 136.353L244.662 135.839C244.76 135.741 244.76 135.582 244.662 135.483L244.148 134.969Z" fill="#40C0E7"/>
<path d="M234.822 133.67V132.897C234.822 132.759 234.709 132.646 234.571 132.646H233.796C233.657 132.646 233.545 132.759 233.545 132.897V133.67C233.545 133.81 233.657 133.922 233.796 133.922H234.571C234.709 133.922 234.822 133.808 234.822 133.67Z" fill="#40C0E7"/>
<path d="M239.498 132.669H238.771C238.633 132.669 238.52 132.78 238.52 132.92V133.647C238.52 133.785 238.633 133.899 238.771 133.899H239.498C239.636 133.899 239.749 133.785 239.749 133.647V132.92C239.749 132.78 239.638 132.669 239.498 132.669Z" fill="#ED6C30"/>
<path d="M231.86 134.552H231.085C230.947 134.552 230.834 134.665 230.834 134.803V135.577C230.834 135.715 230.947 135.828 231.085 135.828H231.86C232 135.828 232.111 135.715 232.111 135.577V134.803C232.111 134.664 232 134.552 231.86 134.552Z" fill="#ED6C30"/>
<path d="M229.622 132.302C229.525 132.204 229.366 132.204 229.267 132.302L228.72 132.851C228.671 132.898 228.646 132.961 228.646 133.028C228.646 133.096 228.673 133.16 228.72 133.206L229.267 133.752C229.29 133.776 229.318 133.794 229.348 133.807C229.379 133.82 229.412 133.826 229.445 133.826C229.477 133.826 229.51 133.82 229.541 133.807C229.571 133.794 229.599 133.776 229.622 133.752L230.169 133.206C230.267 133.107 230.267 132.948 230.169 132.851L229.622 132.302Z" fill="#40C0E7"/>
<path d="M228.443 123.442C228.758 123.536 229.104 123.465 229.377 123.388C229.594 123.327 229.797 123.278 229.973 123.331C230.147 123.38 230.221 123.478 230.346 123.659C230.475 123.846 230.636 124.079 230.984 124.216C231.175 124.289 231.372 124.329 231.567 124.329C231.627 124.329 231.681 124.326 231.733 124.321C231.856 124.308 231.953 124.204 231.958 124.081L231.981 123.47C231.984 123.403 231.953 123.335 231.906 123.286C231.858 123.237 231.786 123.209 231.718 123.209C231.577 123.209 231.444 123.184 231.313 123.132C231.108 123.051 231.017 122.922 230.904 122.756C230.773 122.567 230.61 122.334 230.26 122.23C229.97 122.145 229.658 122.211 229.388 122.286C229.155 122.352 228.935 122.403 228.733 122.342C228.607 122.304 228.5 122.237 228.384 122.12C228.328 122.068 228.249 122.04 228.173 122.051C228.096 122.061 228.029 122.107 227.989 122.175L227.71 122.651C227.656 122.744 227.666 122.861 227.738 122.943C227.902 123.13 228.108 123.34 228.443 123.442Z" fill="#ED6C30"/>
<path d="M248.277 134.889C248.226 134.858 248.183 134.854 248.136 134.848C247.618 134.794 247.17 134.619 246.839 134.353C247.564 133.996 247.85 133.303 247.812 132.881C247.812 132.864 247.811 132.843 247.807 132.821C247.753 132.212 247.379 131.82 246.853 131.82C246.724 131.82 246.586 131.843 246.433 131.889C246.241 131.946 245.686 132.115 245.394 133.245C245.027 132.986 244.732 132.575 244.546 132.056C244.53 132.009 244.517 131.969 244.474 131.928C244.38 131.835 244.215 131.835 244.119 131.928L243.576 132.473C243.482 132.567 243.477 132.715 243.563 132.813C243.538 132.784 243.528 132.762 243.53 132.769C243.888 133.78 244.597 134.436 245.484 134.583C245.847 135.381 246.638 135.897 247.699 136.009C247.715 136.012 247.73 136.012 247.747 136.012C247.83 136.012 247.914 135.969 247.962 135.892L248.362 135.237C248.431 135.115 248.394 134.961 248.277 134.889ZM246.663 133.294C246.543 133.36 246.423 133.414 246.32 133.454C246.313 133.342 246.313 133.207 246.329 133.069C246.343 132.9 246.553 132.713 246.732 132.713C246.776 132.713 246.816 132.725 246.85 132.748C246.919 132.792 246.958 132.867 246.955 132.946C246.95 133.069 246.847 133.193 246.663 133.294Z" fill="#ED6C30"/>
</g>
<g clip-path="url(#clip2)">
<path d="M80.0107 119.803C79.436 119.803 78.8711 119.904 78.3276 120.104C78.1574 120.166 78.012 120.282 77.9131 120.434C77.8142 120.586 77.7672 120.765 77.7792 120.946C77.7857 121.037 77.9368 123.166 78.7397 125.312C79.5427 127.462 80.6938 128.968 80.743 129.032C80.8514 129.173 81.0021 129.276 81.1732 129.326C81.3442 129.375 81.5266 129.369 81.6938 129.308C84.2307 128.378 85.5394 125.559 84.6116 123.022C83.9072 121.097 82.0583 119.803 80.0107 119.803Z" fill="#FCC21B"/>
<path d="M73.754 117.022C73.0923 117.022 72.4453 117.155 71.8329 117.416C70.6293 117.928 69.6982 118.881 69.2089 120.096C68.7212 121.311 68.736 122.641 69.2499 123.844C69.3813 124.156 69.6884 124.353 70.0201 124.353C70.048 124.353 70.0742 124.352 70.1005 124.35C70.181 124.342 72.066 124.151 74.1842 123.265C76.2975 122.381 77.9543 121.033 78.0233 120.976C78.1636 120.861 78.2627 120.703 78.3056 120.527C78.3486 120.351 78.333 120.165 78.2614 119.999C77.8852 119.115 77.2572 118.361 76.4557 117.832C75.6542 117.303 74.7146 117.021 73.754 117.022Z" fill="#FCC21B"/>
<path d="M76.7854 124.693C76.769 124.613 76.7132 124.547 76.6409 124.516L76.0252 124.248C75.9381 124.211 75.838 124.225 75.7657 124.283C75.6918 124.344 75.659 124.439 75.6787 124.531C75.6787 124.534 75.7559 124.936 75.5309 125.273C75.3684 125.514 75.0826 125.672 74.6803 125.743C73.6097 125.931 73.4899 126.626 73.4045 127.132C73.3224 127.611 73.2649 127.826 72.7789 127.872C72.2386 127.923 71.8413 128.125 71.5966 128.473C71.2042 129.028 71.3766 129.739 71.3832 129.769C71.4012 129.844 71.4554 129.907 71.5276 129.938L72.1434 130.206C72.1763 130.22 72.2107 130.227 72.2436 130.227C72.2816 130.227 72.3192 130.219 72.3535 130.202C72.3877 130.185 72.4178 130.161 72.4414 130.131C72.4649 130.101 72.4814 130.067 72.4895 130.029C72.4976 129.992 72.4972 129.954 72.4882 129.917C72.4882 129.912 72.3667 129.394 72.6262 129.03C72.7838 128.81 73.058 128.679 73.4439 128.642C74.3355 128.557 74.4406 127.938 74.5178 127.486C74.5999 127.01 74.6623 126.634 75.3848 126.508C75.9266 126.413 76.324 126.183 76.5654 125.823C76.9102 125.304 76.792 124.718 76.7854 124.693Z" fill="#ED6C30"/>
<path d="M78.7389 131.844C78.3612 131.534 78.4335 131.326 78.6322 130.881C78.844 130.413 79.133 129.769 78.3481 129.015C78.0558 128.734 77.9064 128.444 77.9047 128.155C77.9015 127.746 78.1937 127.454 78.1954 127.45C78.2627 127.385 78.2873 127.288 78.2611 127.197C78.2332 127.107 78.1593 127.04 78.0657 127.023L77.4056 126.902C77.3268 126.887 77.2447 126.912 77.1855 126.968C77.1691 126.986 76.7406 127.406 76.7422 128.028C76.7422 128.46 76.9458 128.872 77.3399 129.255C77.8686 129.762 77.7126 130.11 77.5139 130.552C77.3268 130.971 77.069 131.542 77.7602 132.11C78.0607 132.357 78.2167 132.618 78.2233 132.889C78.2364 133.337 77.8473 133.698 77.844 133.7C77.7717 133.764 77.7455 133.864 77.7701 133.954C77.7964 134.048 77.8719 134.117 77.9671 134.133L78.6272 134.255C78.642 134.258 78.6568 134.26 78.6716 134.26C78.7323 134.26 78.7931 134.237 78.8407 134.196C78.8637 134.174 79.4039 133.682 79.3875 133.002C79.3744 132.578 79.1576 132.189 78.7389 131.844Z" fill="#D7598B"/>
<path d="M75.1499 131.746C75.5144 131.114 75.3141 130.552 75.3059 130.527C75.2813 130.462 75.2303 130.408 75.163 130.383L74.5752 130.146C74.4849 130.11 74.3798 130.13 74.3092 130.199C74.2386 130.266 74.2123 130.371 74.2451 130.465C74.2501 130.48 74.3699 130.839 74.1269 131.258C74.0152 131.449 73.874 131.519 73.6934 131.608C73.4882 131.708 73.232 131.833 73.0777 132.164C72.9332 132.473 72.9709 132.772 73.0021 133.036C73.0317 133.278 73.0563 133.485 72.9578 133.69C72.8543 133.91 72.677 134.02 72.4717 134.148C72.2681 134.274 72.0382 134.417 71.8724 134.682C71.7312 134.907 71.7148 135.163 71.6983 135.412C71.6704 135.818 71.6376 136.076 71.2846 136.256C71.1975 136.301 71.1433 136.393 71.1466 136.491C71.1516 136.59 71.2123 136.677 71.3043 136.713L71.8921 136.949C71.9217 136.962 71.9545 136.967 71.9857 136.967C72.0251 136.967 72.0629 136.958 72.099 136.939C72.723 136.623 72.7607 136.079 72.7854 135.682C72.7985 135.486 72.81 135.302 72.8855 135.186C72.989 135.018 73.1466 134.923 73.3256 134.81C73.5637 134.66 73.8313 134.495 73.9988 134.141C74.1597 133.803 74.122 133.488 74.0859 133.21C74.0579 132.985 74.035 132.79 74.1187 132.613C74.1942 132.449 74.301 132.391 74.4996 132.294C74.7082 132.192 74.9643 132.069 75.1499 131.746Z" fill="#D7598B"/>
<path d="M67.9702 128.93C68.2493 128.92 68.5663 128.907 68.8864 128.683C69.1935 128.468 69.315 128.178 69.425 127.918C69.5137 127.708 69.5892 127.527 69.7502 127.414C69.9144 127.299 70.0671 127.316 70.2378 127.327C70.3052 127.332 70.3741 127.335 70.4414 127.335C70.5909 127.335 70.8175 127.319 71.072 127.171C71.7025 126.805 71.806 126.215 71.8109 126.191C71.8224 126.122 71.8027 126.05 71.76 125.994L71.3659 125.496C71.3052 125.419 71.2017 125.385 71.1065 125.409C71.0112 125.434 70.939 125.513 70.9226 125.611C70.9209 125.614 70.8487 125.994 70.4267 126.238C70.3101 126.307 70.2001 126.335 70.049 126.335C69.9915 126.335 69.9341 126.332 69.8766 126.329C69.8109 126.324 69.7469 126.321 69.6812 126.321C69.517 126.321 69.3002 126.342 69.0671 126.508C68.7879 126.705 68.673 126.982 68.5695 127.229C68.4759 127.452 68.3938 127.644 68.2066 127.775C68.008 127.913 67.7994 127.922 67.558 127.931C67.32 127.941 67.049 127.951 66.7732 128.099C66.54 128.225 66.3971 128.439 66.2608 128.646C66.0441 128.974 65.893 129.174 65.5318 129.174L65.4825 129.173C65.3873 129.168 65.292 129.22 65.2461 129.309C65.2017 129.396 65.2116 129.503 65.274 129.58L65.6681 130.078C65.714 130.133 65.7814 130.168 65.852 130.171C65.8766 130.173 65.9012 130.174 65.9259 130.174C66.5745 130.174 66.8635 129.739 67.0736 129.421C67.1804 129.258 67.2838 129.104 67.4053 129.038C67.5745 128.945 67.7584 128.938 67.9702 128.93Z" fill="#D7598B"/>
<path d="M70.3302 130.967V130.194C70.3302 130.055 70.2169 129.943 70.079 129.943H69.304C69.166 129.943 69.0527 130.055 69.0527 130.194V130.967C69.0527 131.107 69.1644 131.219 69.304 131.219H70.079C70.2186 131.219 70.3302 131.105 70.3302 130.967Z" fill="#ED6C30"/>
<path d="M67.2555 124.928L66.7087 125.475C66.6101 125.573 66.6101 125.733 66.7087 125.83L67.2555 126.378C67.3047 126.426 67.3688 126.452 67.4328 126.452C67.4985 126.452 67.5625 126.427 67.6101 126.378L68.1586 125.83C68.2571 125.731 68.2571 125.573 68.1586 125.475L67.6101 124.928C67.5116 124.83 67.3523 124.83 67.2555 124.928Z" fill="#40C0E7"/>
<path d="M65.7286 126.49C65.7762 126.442 65.8025 126.38 65.8025 126.312C65.8025 126.247 65.7762 126.183 65.7286 126.135L65.1801 125.587C65.0865 125.493 64.919 125.493 64.8255 125.587L64.2787 126.135C64.231 126.183 64.2031 126.247 64.2031 126.312C64.2031 126.38 64.231 126.442 64.2787 126.49L64.8255 127.036C64.8487 127.06 64.8763 127.078 64.9068 127.091C64.9372 127.104 64.9698 127.11 65.0028 127.11C65.0358 127.11 65.0684 127.104 65.0988 127.091C65.1293 127.078 65.1569 127.06 65.1801 127.036L65.7286 126.49Z" fill="#ED6C30"/>
<path d="M68.5415 131.756C68.4479 131.661 68.2804 131.661 68.1851 131.756L67.6383 132.303C67.5398 132.401 67.5398 132.56 67.6383 132.659L68.1851 133.206C68.2084 133.229 68.236 133.248 68.2664 133.26C68.2969 133.273 68.3295 133.279 68.3625 133.279C68.3954 133.279 68.4281 133.273 68.4585 133.26C68.4889 133.248 68.5166 133.229 68.5398 133.206L69.0866 132.659C69.1851 132.56 69.1851 132.401 69.0866 132.303L68.5415 131.756Z" fill="#40C0E7"/>
<path d="M75.3133 134.861C75.2148 134.762 75.0555 134.762 74.957 134.861L74.443 135.375C74.3445 135.473 74.3445 135.633 74.443 135.731L74.957 136.245C74.9802 136.268 75.0079 136.287 75.0383 136.3C75.0687 136.312 75.1014 136.319 75.1343 136.319C75.1673 136.319 75.1999 136.312 75.2304 136.3C75.2608 136.287 75.2884 136.268 75.3117 136.245L75.8256 135.731C75.9241 135.633 75.9241 135.473 75.8256 135.375L75.3133 134.861Z" fill="#40C0E7"/>
<path d="M82.2753 131.413C82.2986 131.436 82.3262 131.454 82.3567 131.467C82.3871 131.48 82.4197 131.486 82.4527 131.486C82.4856 131.486 82.5183 131.48 82.5487 131.467C82.5791 131.454 82.6068 131.436 82.63 131.413L83.1456 130.899C83.2425 130.8 83.2425 130.642 83.1456 130.544L82.63 130.03C82.5315 129.931 82.3722 129.931 82.2753 130.03L81.7614 130.544C81.6629 130.642 81.6629 130.8 81.7614 130.899L82.2753 131.413Z" fill="#40C0E7"/>
<path d="M80.6754 134.969C80.5785 134.871 80.4176 134.871 80.319 134.969L79.8051 135.483C79.7082 135.582 79.7082 135.741 79.8051 135.839L80.319 136.353C80.3683 136.401 80.434 136.427 80.498 136.427C80.5621 136.427 80.6261 136.403 80.6754 136.353L81.1893 135.839C81.2878 135.741 81.2878 135.582 81.1893 135.483L80.6754 134.969Z" fill="#40C0E7"/>
<path d="M71.3498 133.67V132.897C71.3498 132.759 71.2365 132.646 71.0985 132.646H70.3235C70.1839 132.646 70.0723 132.759 70.0723 132.897V133.67C70.0723 133.81 70.1839 133.922 70.3235 133.922H71.0985C71.2365 133.922 71.3498 133.808 71.3498 133.67Z" fill="#40C0E7"/>
<path d="M76.0255 132.669H75.2981C75.1602 132.669 75.0469 132.78 75.0469 132.92V133.647C75.0469 133.785 75.1602 133.899 75.2981 133.899H76.0255C76.1635 133.899 76.2768 133.785 76.2768 133.647V132.92C76.2768 132.78 76.1651 132.669 76.0255 132.669Z" fill="#ED6C30"/>
<path d="M68.3876 134.552H67.6126C67.4746 134.552 67.3613 134.665 67.3613 134.803V135.577C67.3613 135.715 67.4746 135.828 67.6126 135.828H68.3876C68.5272 135.828 68.6388 135.715 68.6388 135.577V134.803C68.6388 134.664 68.5272 134.552 68.3876 134.552Z" fill="#ED6C30"/>
<path d="M66.1492 132.302C66.0523 132.204 65.893 132.204 65.7945 132.302L65.2477 132.851C65.1985 132.898 65.1738 132.961 65.1738 133.028C65.1738 133.096 65.2001 133.16 65.2477 133.206L65.7945 133.752C65.8178 133.776 65.8454 133.794 65.8758 133.807C65.9063 133.82 65.9389 133.826 65.9719 133.826C66.0048 133.826 66.0375 133.82 66.0679 133.807C66.0983 133.794 66.126 133.776 66.1492 133.752L66.696 133.206C66.7945 133.107 66.7945 132.948 66.696 132.851L66.1492 132.302Z" fill="#40C0E7"/>
<path d="M64.97 123.442C65.2853 123.536 65.6317 123.465 65.9043 123.388C66.121 123.327 66.3247 123.278 66.5004 123.331C66.6744 123.38 66.7483 123.478 66.8731 123.659C67.0028 123.846 67.1637 124.079 67.5118 124.216C67.7023 124.289 67.8994 124.329 68.0948 124.329C68.1539 124.329 68.2081 124.326 68.2606 124.321C68.3838 124.308 68.4806 124.204 68.4856 124.081L68.5086 123.47C68.5118 123.403 68.4806 123.335 68.433 123.286C68.3854 123.237 68.3132 123.209 68.2458 123.209C68.1046 123.209 67.9716 123.184 67.8402 123.132C67.635 123.051 67.5447 122.922 67.4314 122.756C67.3 122.567 67.1375 122.334 66.7877 122.23C66.4971 122.145 66.1851 122.211 65.9158 122.286C65.6826 122.352 65.4626 122.403 65.2606 122.342C65.1342 122.304 65.0275 122.237 64.9109 122.12C64.855 122.068 64.7762 122.04 64.7007 122.051C64.6235 122.061 64.5562 122.107 64.5168 122.175L64.2376 122.651C64.1835 122.744 64.1933 122.861 64.2656 122.943C64.4298 123.13 64.635 123.34 64.97 123.442Z" fill="#ED6C30"/>
<path d="M84.8043 134.889C84.7534 134.858 84.7107 134.854 84.6631 134.848C84.1458 134.794 83.6976 134.619 83.3659 134.353C84.0916 133.996 84.3774 133.303 84.3396 132.881C84.3396 132.864 84.3379 132.843 84.3347 132.821C84.2805 132.212 83.9061 131.82 83.3806 131.82C83.2509 131.82 83.113 131.843 82.9603 131.889C82.7682 131.946 82.2132 132.115 81.9209 133.245C81.5547 132.986 81.2591 132.575 81.0736 132.056C81.0572 132.009 81.044 131.969 81.0013 131.928C80.9077 131.835 80.7419 131.835 80.6467 131.928L80.1032 132.473C80.0096 132.567 80.0046 132.715 80.09 132.813C80.0654 132.784 80.0555 132.762 80.0572 132.769C80.4151 133.78 81.1245 134.436 82.0112 134.583C82.3741 135.381 83.1655 135.897 84.2263 136.009C84.2427 136.012 84.2575 136.012 84.2739 136.012C84.3577 136.012 84.4414 135.969 84.489 135.892L84.8897 135.237C84.9586 135.115 84.9209 134.961 84.8043 134.889ZM83.1902 133.294C83.0703 133.36 82.9504 133.414 82.847 133.454C82.8404 133.342 82.8404 133.207 82.8568 133.069C82.87 132.9 83.0802 132.713 83.2591 132.713C83.3035 132.713 83.3429 132.725 83.3774 132.748C83.4463 132.792 83.4857 132.867 83.4825 132.946C83.4775 133.069 83.3741 133.193 83.1902 133.294Z" fill="#ED6C30"/>
</g>
<path d="M68.7587 159.138C70.6907 159.138 71.8187 158.094 72.3947 156.534L71.8187 156.294C71.3027 157.722 70.3187 158.562 68.7467 158.562C66.7427 158.562 65.2547 157.038 65.2547 154.842C65.2547 152.634 66.7427 151.11 68.6987 151.11C70.2827 151.11 71.3027 151.962 71.8187 153.378L72.3947 153.138C71.8187 151.59 70.6307 150.534 68.7107 150.534C66.3947 150.534 64.6427 152.31 64.6427 154.842C64.6427 157.362 66.3947 159.138 68.7587 159.138ZM76.5174 159.138C78.3894 159.138 79.7334 157.734 79.7334 155.85C79.7334 153.954 78.3894 152.562 76.5174 152.562C74.6334 152.562 73.3014 153.954 73.3014 155.85C73.3014 157.734 74.6334 159.138 76.5174 159.138ZM76.5174 158.598C74.9814 158.598 73.9014 157.434 73.9014 155.85C73.9014 154.242 74.9814 153.09 76.5174 153.09C78.0654 153.09 79.1334 154.242 79.1334 155.85C79.1334 157.434 78.0654 158.598 76.5174 158.598ZM81.5217 151.386C81.8697 151.386 82.1337 151.134 82.1337 150.786C82.1337 150.438 81.8697 150.174 81.5217 150.174C81.1737 150.174 80.9097 150.438 80.9097 150.786C80.9097 151.134 81.1737 151.386 81.5217 151.386ZM81.2337 159.006H81.8217V152.682H81.2337V159.006ZM86.657 152.55C85.517 152.55 84.689 153.15 84.329 153.858V152.682H83.765V159.006H84.353V155.01C84.377 154.038 85.253 153.102 86.549 153.09C87.905 153.078 88.685 153.906 88.685 155.298V159.006H89.285V155.202C89.285 153.582 88.337 152.55 86.657 152.55ZM73.4027 167.666L71.6147 175.178L69.4787 167.666H68.8427L66.7067 175.154L64.9067 167.666H64.3187L66.3707 176.006H67.0067L69.1667 168.506L71.3147 176.006H71.9507L74.0027 167.666H73.4027ZM75.5217 168.386C75.8697 168.386 76.1337 168.134 76.1337 167.786C76.1337 167.438 75.8697 167.174 75.5217 167.174C75.1737 167.174 74.9097 167.438 74.9097 167.786C74.9097 168.134 75.1737 168.386 75.5217 168.386ZM75.2337 176.006H75.8217V169.682H75.2337V176.006ZM80.657 169.55C79.517 169.55 78.689 170.15 78.329 170.858V169.682H77.765V176.006H78.353V172.01C78.377 171.038 79.253 170.102 80.549 170.09C81.905 170.078 82.685 170.906 82.685 172.298V176.006H83.285V172.202C83.285 170.582 82.337 169.55 80.657 169.55ZM88.0281 169.55C86.8881 169.55 86.0601 170.15 85.7001 170.858V169.682H85.1361V176.006H85.7241V172.01C85.7481 171.038 86.6241 170.102 87.9201 170.09C89.2761 170.078 90.0561 170.906 90.0561 172.298V176.006H90.6561V172.202C90.6561 170.582 89.7081 169.55 88.0281 169.55ZM92.6752 173.006H98.1352V172.694C98.1352 170.93 96.9232 169.562 95.1592 169.562C93.4072 169.562 92.0632 170.99 92.0632 172.85C92.0632 174.734 93.3712 176.138 95.1832 176.138C96.6352 176.138 97.5832 175.478 98.0152 174.374L97.5352 174.098C97.1752 175.106 96.3952 175.586 95.1952 175.586C93.7672 175.586 92.7472 174.542 92.6752 173.006ZM92.6872 172.514C92.8192 171.074 93.8032 170.078 95.1712 170.078C96.5392 170.078 97.4752 171.05 97.5472 172.514H92.6872ZM100.173 170.822V169.682H99.6087V176.006H100.197V171.998C100.197 171.062 101.109 170.126 102.309 170.114V169.55C101.313 169.55 100.521 170.15 100.173 170.822ZM105.195 176.138C106.575 176.138 107.523 175.49 107.523 174.362C107.523 172.046 103.635 172.91 103.635 171.146C103.635 170.462 104.187 170.03 105.147 170.03C105.927 170.03 106.479 170.342 106.731 171.002L107.247 170.798C106.959 169.982 106.215 169.562 105.147 169.562C103.887 169.562 103.047 170.162 103.047 171.182C103.047 173.354 106.935 172.55 106.935 174.41C106.935 175.202 106.239 175.646 105.207 175.646C104.163 175.646 103.479 175.214 103.251 174.47L102.723 174.686C103.035 175.598 103.923 176.138 105.195 176.138ZM68.0747 189.106C69.6707 189.106 70.6787 188.206 70.6787 186.886C70.6787 185.566 69.6827 184.666 68.0747 184.666H65.1587V193.006H65.7467V189.106H66.7307L69.9707 193.006H70.6787L67.4027 189.106H68.0747ZM65.7467 185.194H68.0627C69.3587 185.194 70.0787 185.914 70.0787 186.922C70.0787 187.942 69.3587 188.638 68.0627 188.638H65.7467V185.194ZM72.0502 190.006H77.5102V189.694C77.5102 187.93 76.2982 186.562 74.5342 186.562C72.7822 186.562 71.4382 187.99 71.4382 189.85C71.4382 191.734 72.7462 193.138 74.5582 193.138C76.0102 193.138 76.9582 192.478 77.3902 191.374L76.9102 191.098C76.5502 192.106 75.7702 192.586 74.5702 192.586C73.1422 192.586 72.1222 191.542 72.0502 190.006ZM72.0622 189.514C72.1942 188.074 73.1782 187.078 74.5462 187.078C75.9142 187.078 76.8502 188.05 76.9222 189.514H72.0622ZM86.1966 186.682L84.6726 192.322L82.8726 186.682H82.1886L80.3766 192.346L78.8406 186.682H78.2046L79.9926 193.006H80.7006L82.5246 187.39L84.3606 193.006H85.0566L86.8446 186.682H86.1966ZM93.2397 186.682V188.218C92.7717 187.21 91.8357 186.586 90.6357 186.586C88.8597 186.586 87.5397 187.966 87.5397 189.838C87.5397 191.722 88.8477 193.138 90.6357 193.138C91.8357 193.138 92.7717 192.49 93.2397 191.47V193.006H93.8037V186.682H93.2397ZM90.6837 192.598C89.2197 192.598 88.1397 191.422 88.1397 189.838C88.1397 188.278 89.2317 187.09 90.6837 187.09C92.1837 187.09 93.2277 188.218 93.2277 189.838C93.2277 191.458 92.1717 192.598 90.6837 192.598ZM96.3173 187.822V186.682H95.7533V193.006H96.3413V188.998C96.3413 188.062 97.2533 187.126 98.4533 187.114V186.55C97.4573 186.55 96.6653 187.15 96.3173 187.822ZM104.513 184.234V188.134C104.021 187.162 103.097 186.562 101.933 186.562C100.145 186.562 98.8366 187.966 98.8366 189.838C98.8366 191.722 100.145 193.138 101.933 193.138C103.121 193.138 104.057 192.514 104.537 191.506V193.006H105.101V184.234H104.513ZM101.981 192.598C100.517 192.598 99.4366 191.422 99.4366 189.838C99.4366 188.278 100.529 187.09 101.981 187.09C103.481 187.09 104.525 188.218 104.525 189.838C104.525 191.458 103.469 192.598 101.981 192.598ZM65.7467 209.478V205.914H69.7667V205.386H65.7467V202.194H70.1387V201.666H65.1587V210.006H70.2227V209.478H65.7467ZM74.4695 203.55C73.3295 203.55 72.5015 204.15 72.1415 204.858V203.682H71.5775V210.006H72.1655V206.01C72.1895 205.038 73.0655 204.102 74.3615 204.09C75.7175 204.078 76.4975 204.906 76.4975 206.298V210.006H77.0975V206.202C77.0975 204.582 76.1495 203.55 74.4695 203.55ZM84.1806 201.234V205.134C83.6886 204.162 82.7646 203.562 81.6006 203.562C79.8126 203.562 78.5046 204.966 78.5046 206.838C78.5046 208.722 79.8126 210.138 81.6006 210.138C82.7886 210.138 83.7246 209.514 84.2046 208.506V210.006H84.7686V201.234H84.1806ZM81.6486 209.598C80.1846 209.598 79.1046 208.422 79.1046 206.838C79.1046 205.278 80.1966 204.09 81.6486 204.09C83.1486 204.09 84.1926 205.218 84.1926 206.838C84.1926 208.458 83.1366 209.598 81.6486 209.598ZM88.5781 210.138C89.9581 210.138 90.9061 209.49 90.9061 208.362C90.9061 206.046 87.0181 206.91 87.0181 205.146C87.0181 204.462 87.5701 204.03 88.5301 204.03C89.3101 204.03 89.8621 204.342 90.1141 205.002L90.6301 204.798C90.3421 203.982 89.5981 203.562 88.5301 203.562C87.2701 203.562 86.4301 204.162 86.4301 205.182C86.4301 207.354 90.3181 206.55 90.3181 208.41C90.3181 209.202 89.6221 209.646 88.5901 209.646C87.5461 209.646 86.8621 209.214 86.6341 208.47L86.1061 208.686C86.4181 209.598 87.3061 210.138 88.5781 210.138ZM97.9979 210.138C99.8699 210.138 101.214 208.734 101.214 206.85C101.214 204.954 99.8699 203.562 97.9979 203.562C96.1139 203.562 94.7819 204.954 94.7819 206.85C94.7819 208.734 96.1139 210.138 97.9979 210.138ZM97.9979 209.598C96.4619 209.598 95.3819 208.434 95.3819 206.85C95.3819 205.242 96.4619 204.09 97.9979 204.09C99.5459 204.09 100.614 205.242 100.614 206.85C100.614 208.434 99.5459 209.598 97.9979 209.598ZM105.606 203.55C104.466 203.55 103.638 204.15 103.278 204.858V203.682H102.714V210.006H103.302V206.01C103.326 205.038 104.202 204.102 105.498 204.09C106.854 204.078 107.634 204.906 107.634 206.298V210.006H108.234V206.202C108.234 204.582 107.286 203.55 105.606 203.55Z" fill="white"/>
<path d="M171.958 159.006L171.394 150.666H170.434V150.678L170.218 150.666L167.686 157.482L165.142 150.666L164.926 150.678V150.666H163.966L163.402 159.006H164.362L164.83 152.154L167.242 158.67H168.106L170.53 152.142L170.998 159.006H171.958ZM174.06 156.222H179.316C179.328 156.102 179.34 155.886 179.34 155.706C179.34 154.038 178.128 152.538 176.22 152.538C174.432 152.538 173.028 154.014 173.028 155.85C173.028 157.734 174.348 159.15 176.292 159.15C177.792 159.15 178.668 158.502 179.136 157.602L178.248 157.062C177.936 157.794 177.36 158.19 176.328 158.19C175.164 158.19 174.24 157.398 174.06 156.222ZM174.072 155.334C174.264 154.134 175.188 153.426 176.256 153.426C177.312 153.426 178.14 154.146 178.296 155.334H174.072ZM181.557 153.606V152.682H180.597V159.006H181.617V155.19C181.617 154.29 182.421 153.51 183.573 153.498V152.55C182.685 152.55 181.965 153.018 181.557 153.606ZM189.423 152.682V153.858C188.943 153.054 188.115 152.55 187.059 152.55C185.259 152.55 183.939 153.966 183.939 155.754C183.939 157.566 185.247 158.958 187.059 158.958C188.115 158.958 188.943 158.454 189.423 157.638V158.262C189.423 159.594 188.547 160.422 187.131 160.422C186.051 160.422 185.283 159.954 184.971 159.03L184.095 159.366C184.503 160.554 185.499 161.286 187.119 161.286C189.159 161.286 190.371 160.062 190.371 158.178V152.682H189.423ZM187.155 158.154C185.895 158.154 184.959 157.146 184.959 155.802C184.959 154.47 185.907 153.45 187.179 153.45C188.463 153.45 189.363 154.434 189.363 155.802C189.363 157.17 188.451 158.154 187.155 158.154ZM192.645 156.222H197.901C197.913 156.102 197.925 155.886 197.925 155.706C197.925 154.038 196.713 152.538 194.805 152.538C193.017 152.538 191.613 154.014 191.613 155.85C191.613 157.734 192.933 159.15 194.877 159.15C196.377 159.15 197.253 158.502 197.721 157.602L196.833 157.062C196.521 157.794 195.945 158.19 194.913 158.19C193.749 158.19 192.825 157.398 192.645 156.222ZM192.657 155.334C192.849 154.134 193.773 153.426 194.841 153.426C195.897 153.426 196.725 154.146 196.881 155.334H192.657ZM204.086 160.29L204.746 159.606C203.522 158.706 202.514 157.182 202.514 154.998C202.514 152.802 203.522 151.29 204.746 150.378L204.086 149.694C202.742 150.654 201.53 152.442 201.53 154.998C201.53 157.554 202.742 159.33 204.086 160.29ZM214.146 159.006L213.582 150.666H212.622V150.678L212.406 150.666L209.874 157.482L207.33 150.666L207.114 150.678V150.666H206.154L205.59 159.006H206.55L207.018 152.154L209.43 158.67H210.294L212.718 152.142L213.186 159.006H214.146ZM216.881 158.106V155.142H220.661V154.242H216.881V151.566H221.069V150.666H215.861V159.006H221.141V158.106H216.881ZM227.268 159.006H228.432L225.468 155.286H225.672C227.328 155.286 228.384 154.326 228.384 152.97C228.384 151.614 227.34 150.666 225.672 150.666H222.576V159.006H223.584V155.286H224.352L227.268 159.006ZM223.584 151.566H225.648C226.752 151.566 227.376 152.178 227.376 153.054C227.376 153.93 226.752 154.53 225.648 154.53H223.584V151.566ZM237.548 154.686H233.42V155.478H236.564C236.3 157.218 235.124 158.214 233.528 158.214C231.632 158.214 230.336 156.846 230.336 154.854C230.336 152.874 231.632 151.506 233.42 151.506C234.8 151.506 235.748 152.214 236.216 153.486L237.2 153.078C236.636 151.614 235.4 150.534 233.444 150.534C231.068 150.534 229.292 152.322 229.292 154.842C229.292 157.35 231.056 159.138 233.444 159.138C235.772 159.138 237.548 157.434 237.548 154.686ZM240.002 158.106V155.142H243.782V154.242H240.002V151.566H244.19V150.666H238.982V159.006H244.262V158.106H240.002ZM245.469 160.29C246.825 159.33 248.025 157.554 248.025 154.998C248.025 152.442 246.825 150.654 245.469 149.694L244.809 150.378C246.033 151.29 247.053 152.802 247.053 154.998C247.053 157.182 246.033 158.706 244.809 159.606L245.469 160.29ZM243.95 175.142L246.326 172.682C247.142 171.89 247.874 170.954 247.874 169.814C247.874 168.458 246.842 167.546 245.258 167.546C243.89 167.546 242.786 168.314 242.474 169.514L243.446 169.838C243.698 168.914 244.406 168.434 245.258 168.434C246.206 168.434 246.842 169.022 246.842 169.85C246.842 170.762 246.11 171.614 245.534 172.178L242.462 175.334V176.006H248.03V175.142H243.95ZM169.77 192.142V184.666H168.75V185.806H167.394V186.658H168.75V192.142H167.346V193.006H170.898V192.142H169.77ZM175.19 193.138C177.35 193.138 178.73 191.494 178.73 188.842C178.73 186.142 177.362 184.558 175.19 184.558C173.03 184.558 171.638 186.13 171.638 188.842C171.638 191.506 173.03 193.138 175.19 193.138ZM175.19 192.166C173.678 192.166 172.682 190.942 172.682 188.842C172.682 186.742 173.678 185.53 175.19 185.53C176.69 185.53 177.686 186.754 177.686 188.842C177.686 190.93 176.69 192.166 175.19 192.166ZM183.486 193.138C185.646 193.138 187.026 191.494 187.026 188.842C187.026 186.142 185.658 184.558 183.486 184.558C181.326 184.558 179.934 186.13 179.934 188.842C179.934 191.506 181.326 193.138 183.486 193.138ZM183.486 192.166C181.974 192.166 180.978 190.942 180.978 188.842C180.978 186.742 181.974 185.53 183.486 185.53C184.986 185.53 185.982 186.754 185.982 188.842C185.982 190.93 184.986 192.166 183.486 192.166ZM188.516 193.114C188.912 193.114 189.212 192.826 189.212 192.43C189.212 192.022 188.912 191.734 188.516 191.734C188.12 191.734 187.832 192.022 187.832 192.43C187.832 192.826 188.12 193.114 188.516 193.114ZM193.553 193.138C195.713 193.138 197.093 191.494 197.093 188.842C197.093 186.142 195.725 184.558 193.553 184.558C191.393 184.558 190.001 186.13 190.001 188.842C190.001 191.506 191.393 193.138 193.553 193.138ZM193.553 192.166C192.041 192.166 191.045 190.942 191.045 188.842C191.045 186.742 192.041 185.53 193.553 185.53C195.053 185.53 196.049 186.754 196.049 188.842C196.049 190.93 195.053 192.166 193.553 192.166ZM201.85 193.138C204.01 193.138 205.39 191.494 205.39 188.842C205.39 186.142 204.022 184.558 201.85 184.558C199.69 184.558 198.298 186.13 198.298 188.842C198.298 191.506 199.69 193.138 201.85 193.138ZM201.85 192.166C200.338 192.166 199.342 190.942 199.342 188.842C199.342 186.742 200.338 185.53 201.85 185.53C203.35 185.53 204.346 186.754 204.346 188.842C204.346 190.93 203.35 192.166 201.85 192.166ZM217.978 193.006L217.414 184.666H216.454V184.678L216.238 184.666L213.706 191.482L211.162 184.666L210.946 184.678V184.666H209.986L209.422 193.006H210.382L210.85 186.154L213.262 192.67H214.126L216.55 186.142L217.018 193.006H217.978ZM220.713 192.106V189.142H224.493V188.242H220.713V185.566H224.901V184.666H219.693V193.006H224.973V192.106H220.713ZM231.1 193.006H232.264L229.3 189.286H229.504C231.16 189.286 232.216 188.326 232.216 186.97C232.216 185.614 231.172 184.666 229.504 184.666H226.408V193.006H227.416V189.286H228.184L231.1 193.006ZM227.416 185.566H229.48C230.584 185.566 231.208 186.178 231.208 187.054C231.208 187.93 230.584 188.53 229.48 188.53H227.416V185.566ZM241.38 188.686H237.252V189.478H240.396C240.132 191.218 238.956 192.214 237.36 192.214C235.464 192.214 234.168 190.846 234.168 188.854C234.168 186.874 235.464 185.506 237.252 185.506C238.632 185.506 239.58 186.214 240.048 187.486L241.032 187.078C240.468 185.614 239.232 184.534 237.276 184.534C234.9 184.534 233.124 186.322 233.124 188.842C233.124 191.35 234.888 193.138 237.276 193.138C239.604 193.138 241.38 191.434 241.38 188.686ZM243.834 192.106V189.142H247.614V188.242H243.834V185.566H248.022V184.666H242.814V193.006H248.094V192.106H243.834ZM157.255 209.142V201.666H156.235V202.806H154.879V203.658H156.235V209.142H154.831V210.006H158.383V209.142H157.255ZM161.614 209.142V201.666H160.594V202.806H159.238V203.658H160.594V209.142H159.19V210.006H162.742V209.142H161.614ZM163.454 210.606H164.378L166.67 201.474H165.77L163.454 210.606ZM167.28 201.666V202.542H171.516L168.54 210.006H169.68L172.656 202.458V201.666H167.28ZM172.911 210.606H173.835L176.127 201.474H175.227L172.911 210.606ZM178.501 209.142L180.877 206.682C181.693 205.89 182.425 204.954 182.425 203.814C182.425 202.458 181.393 201.546 179.809 201.546C178.441 201.546 177.337 202.314 177.025 203.514L177.997 203.838C178.249 202.914 178.957 202.434 179.809 202.434C180.757 202.434 181.393 203.022 181.393 203.85C181.393 204.762 180.661 205.614 180.085 206.178L177.013 209.334V210.006H182.581V209.142H178.501ZM187.248 210.138C189.408 210.138 190.788 208.494 190.788 205.842C190.788 203.142 189.42 201.558 187.248 201.558C185.088 201.558 183.696 203.13 183.696 205.842C183.696 208.506 185.088 210.138 187.248 210.138ZM187.248 209.166C185.736 209.166 184.74 207.942 184.74 205.842C184.74 203.742 185.736 202.53 187.248 202.53C188.748 202.53 189.744 203.754 189.744 205.842C189.744 207.93 188.748 209.166 187.248 209.166ZM193.255 209.142L195.631 206.682C196.447 205.89 197.179 204.954 197.179 203.814C197.179 202.458 196.147 201.546 194.563 201.546C193.195 201.546 192.091 202.314 191.779 203.514L192.751 203.838C193.003 202.914 193.711 202.434 194.563 202.434C195.511 202.434 196.147 203.022 196.147 203.85C196.147 204.762 195.415 205.614 194.839 206.178L191.767 209.334V210.006H197.335V209.142H193.255ZM202.002 210.138C204.162 210.138 205.542 208.494 205.542 205.842C205.542 203.142 204.174 201.558 202.002 201.558C199.842 201.558 198.45 203.13 198.45 205.842C198.45 208.506 199.842 210.138 202.002 210.138ZM202.002 209.166C200.49 209.166 199.494 207.942 199.494 205.842C199.494 203.742 200.49 202.53 202.002 202.53C203.502 202.53 204.498 203.754 204.498 205.842C204.498 207.93 203.502 209.166 202.002 209.166ZM212.034 204.894H210.846L210.978 202.482H214.458V201.666H210.102L209.886 205.722H211.998C213.138 205.722 213.906 206.478 213.906 207.498C213.906 208.53 213.138 209.262 212.022 209.262C211.086 209.262 210.33 208.746 210.102 207.87L209.166 208.242C209.55 209.466 210.594 210.138 212.01 210.138C213.798 210.138 214.95 209.058 214.95 207.51C214.95 205.95 213.774 204.894 212.034 204.894ZM216.82 205.902C217.216 205.902 217.504 205.614 217.504 205.218C217.504 204.81 217.216 204.522 216.82 204.522C216.424 204.522 216.124 204.81 216.124 205.218C216.124 205.614 216.424 205.902 216.82 205.902ZM216.82 210.114C217.216 210.114 217.504 209.826 217.504 209.43C217.504 209.022 217.216 208.734 216.82 208.734C216.424 208.734 216.124 209.022 216.124 209.43C216.124 209.826 216.424 210.114 216.82 210.114ZM220.137 209.142L222.513 206.682C223.329 205.89 224.061 204.954 224.061 203.814C224.061 202.458 223.029 201.546 221.445 201.546C220.077 201.546 218.973 202.314 218.661 203.514L219.633 203.838C219.885 202.914 220.593 202.434 221.445 202.434C222.393 202.434 223.029 203.022 223.029 203.85C223.029 204.762 222.297 205.614 221.721 206.178L218.649 209.334V210.006H224.217V209.142H220.137ZM228.095 204.486C227.915 204.486 227.747 204.498 227.579 204.534L229.787 201.666H228.587L225.815 205.278C225.395 205.806 225.059 206.454 225.059 207.294C225.059 208.95 226.379 210.138 228.083 210.138C229.775 210.138 231.047 208.974 231.047 207.282C231.047 205.614 229.799 204.486 228.095 204.486ZM228.083 209.25C226.967 209.25 226.103 208.41 226.103 207.294C226.103 206.166 226.967 205.338 228.083 205.338C229.187 205.338 230.003 206.154 230.003 207.294C230.003 208.422 229.187 209.25 228.083 209.25ZM235.516 201.666H232.42V210.006H233.44V206.526H235.516C237.172 206.526 238.228 205.566 238.228 204.09C238.228 202.614 237.184 201.666 235.516 201.666ZM235.468 205.614H233.44V202.566H235.468C236.584 202.566 237.184 203.19 237.184 204.09C237.184 205.002 236.584 205.614 235.468 205.614ZM247.814 210.006L247.25 201.666H246.29V201.678L246.074 201.666L243.542 208.482L240.998 201.666L240.782 201.678V201.666H239.822L239.258 210.006H240.218L240.686 203.154L243.098 209.67H243.962L246.386 203.142L246.854 210.006H247.814Z" fill="white"/>
<path fill-rule="evenodd" clip-rule="evenodd" d="M28.0084 92.9122C27.81 92.6755 27.5957 92.4277 27.3637 92.1686C26.9999 91.7624 26.5925 91.3273 26.1368 90.8639C25.6769 90.3959 25.2448 89.9831 24.8403 89.6181C24.5777 89.382 24.3275 89.1659 24.0879 88.9681C24.6237 87.1736 25.3908 85.9166 26.9404 83.6964C28.49 81.4762 31.2172 79.9348 31.2172 79.9348C31.8089 80.7832 32.6743 81.823 33.9372 83.0641C35.186 84.291 36.2239 85.1671 37.0676 85.7924C37.0676 85.7924 35.5221 88.503 33.2984 90.0544C31.0747 91.6057 29.81 92.3776 28.0084 92.9122ZM33.1318 83.8642C33.7806 84.513 33.5828 85.7635 32.689 86.6567C31.7959 87.5498 30.5454 87.7482 29.8966 87.0994C29.2478 86.4506 29.4456 85.2001 30.3393 84.3069C31.2325 83.4132 32.4824 83.2148 33.1318 83.8642Z" fill="#257DC1"/>
<path fill-rule="evenodd" clip-rule="evenodd" d="M38.8913 78.1066C38.8094 78.0271 38.7041 78.0006 38.5816 78C37.2286 77.9965 34.2401 78.3627 31.9434 79.6091C32.4173 80.3256 33.4206 81.4501 34.4844 82.5134C35.5483 83.5773 36.6728 84.5806 37.3888 85.0545C38.6358 82.7584 39.002 79.7698 38.9978 78.4163C38.9973 78.2938 38.9708 78.189 38.8913 78.1066Z" fill="#257DC1"/>
<path fill-rule="evenodd" clip-rule="evenodd" d="M28.2461 93.5697C28.2461 93.5697 28.7153 94.4045 28.9049 95.8111C29.0945 97.2176 28.7595 97.9865 28.7595 97.9865C28.7595 97.9865 30.3762 97.9065 31.9576 95.8647C33.539 93.8234 32.8319 91.1829 32.8319 91.1829C32.8319 91.1829 31.181 92.2597 30.7448 92.4734C30.3073 92.6871 29.1074 93.3295 28.2461 93.5697Z" fill="#257DC1"/>
<path fill-rule="evenodd" clip-rule="evenodd" d="M23.4379 90.6719L26.3317 93.5656C26.5742 93.8082 26.9981 93.7817 27.2737 93.5067L27.3867 93.3937C26.8951 92.8138 26.2987 92.1585 25.5739 91.4208C24.8451 90.6789 24.1974 90.0819 23.6257 89.6003L23.4962 89.7299C23.2213 90.0048 23.1948 90.4287 23.4379 90.6719Z" fill="#257DC1"/>
<path fill-rule="evenodd" clip-rule="evenodd" d="M25.5916 93.7044L25.9396 94.0524L21.6699 97.0315L25.0005 93.7009C25.163 93.539 25.428 93.5408 25.5916 93.7044Z" fill="#257DC1"/>
<path fill-rule="evenodd" clip-rule="evenodd" d="M22.8346 90.9468L23.1825 91.2947C23.3462 91.4584 23.348 91.7239 23.1861 91.8853L19.8555 95.2159L22.8346 90.9468Z" fill="#257DC1"/>
<path fill-rule="evenodd" clip-rule="evenodd" d="M20.1306 96.5642L20.3232 96.7568C20.3973 96.8309 20.554 96.7956 20.6711 96.6785L24.405 92.9446C24.5222 92.8274 24.5575 92.6708 24.4833 92.5966L24.2908 92.4041C24.2166 92.3299 24.06 92.3652 23.9428 92.4824L20.2089 96.2163C20.0918 96.3334 20.0565 96.49 20.1306 96.5642Z" fill="#257DC1"/>
<path fill-rule="evenodd" clip-rule="evenodd" d="M23.4169 88.7397C23.4169 88.7397 22.5826 88.2704 21.1755 88.0808C19.7689 87.8913 19 88.2269 19 88.2269C19 88.2269 19.0801 86.6101 21.1219 85.0287C23.1637 83.4473 25.8037 84.1544 25.8037 84.1544C25.8037 84.1544 24.7268 85.8053 24.5131 86.2416C24.2994 86.6778 23.6571 87.8783 23.4169 88.7397Z" fill="#257DC1"/>
<defs>
<clipPath id="clip0">
<rect width="16.3473" height="16.3473" fill="white" transform="translate(101.42 233.251)"/>
</clipPath>
<clipPath id="clip1">
<rect width="21.018" height="21.018" fill="white" transform="translate(227.527 116.485)"/>
</clipPath>
<clipPath id="clip2">
<rect width="21.018" height="21.018" fill="white" transform="translate(64.0547 116.485)"/>
</clipPath>
</defs>
</svg>
