<svg width="1440" height="807" viewBox="0 0 1440 807" fill="none" xmlns="http://www.w3.org/2000/svg">
<rect width="1440" height="780" fill="#1F1F1F"/>
<path opacity="0.5" d="M1367.8 792.599L1351.55 783.753L1354.52 788.321L1323.61 797.339C1322.02 797.803 1320.3 797.589 1318.83 796.743C1317.37 795.897 1316.27 794.489 1315.79 792.829L1304.83 755.265C1304.34 753.604 1304.51 751.827 1305.29 750.325C1306.07 748.822 1307.41 747.718 1309 747.253L1345 736.75C1346.59 736.286 1348.31 736.501 1349.78 737.346C1351.24 738.192 1352.34 739.6 1352.83 741.261L1367.8 792.599ZM1331.24 756.527C1324.81 758.403 1321.13 762.6 1321.13 762.6C1322.93 759.574 1326.87 756.987 1326.87 756.987L1326.33 756.68C1322.3 757.939 1319.48 761.94 1319.48 761.94C1317.98 772.135 1320.51 779.821 1320.51 779.821C1325.19 783.373 1330.09 781.591 1330.09 781.591L1331.13 778.84C1327.94 779.04 1325.23 776.813 1325.23 776.813C1325.23 776.813 1330.68 778.702 1337.16 776.812C1343.64 774.921 1347.21 770.399 1347.21 770.399C1347.21 770.399 1346.13 773.732 1343.32 775.283L1345.69 777.04C1345.69 777.04 1350.77 775.909 1352.81 770.396C1352.81 770.396 1350.81 762.556 1344.06 754.77C1344.06 754.77 1339.53 752.911 1335.45 754.019L1335.17 754.564C1335.17 754.564 1339.88 754.631 1343.02 756.214C1343.02 756.214 1337.67 754.65 1331.24 756.527ZM1329.04 767.467C1330.6 767.012 1332.29 768.069 1332.77 769.829C1333.28 771.557 1332.45 773.373 1330.89 773.828C1329.36 774.276 1327.69 773.188 1327.18 771.46C1326.67 769.707 1327.48 767.923 1329.04 767.467ZM1339.05 764.548C1340.61 764.093 1342.27 765.156 1342.78 766.909C1343.29 768.637 1342.46 770.453 1340.9 770.909C1339.37 771.357 1337.69 770.268 1337.19 768.54C1336.68 766.787 1337.49 765.003 1339.05 764.548Z" fill="#2F3136"/>
<g opacity="0.5">
<rect x="1236" y="170" width="141.894" height="15.203" rx="1" fill="#36393F"/>
<circle cx="1279.07" cy="213.075" r="7.60149" fill="#36393F"/>
<rect x="1296.81" y="205.474" width="70.9472" height="15.203" rx="1" fill="#36393F"/>
<circle cx="1279.07" cy="253.616" r="7.60149" fill="#36393F"/>
<rect x="1296.81" y="246.015" width="70.9472" height="15.203" rx="1" fill="#36393F"/>
</g>
<g opacity="0.5">
<rect x="468.476" y="392.516" width="42.406" height="7.06767" rx="1" transform="rotate(7.69469 468.476 392.516)" fill="#2F3136"/>
<rect x="469.986" y="328.533" width="56.5414" height="56.5414" rx="1" transform="rotate(7.69469 469.986 328.533)" fill="#2F3136"/>
<path d="M491.062 373.892C500.182 375.124 508.451 369.653 509.529 361.673C510.607 353.692 504.087 346.223 494.967 344.991C485.847 343.759 477.578 349.229 476.5 357.21C476.009 360.843 477.094 364.374 479.283 367.255C478.8 369.326 477.829 371.536 476.865 373.163C476.65 373.525 476.907 373.997 477.327 373.987C482.088 373.852 485.014 373.053 486.3 372.605C487.824 373.24 489.425 373.673 491.062 373.892Z" fill="#40444B"/>
</g>
<g opacity="0.2">
<rect x="56.2402" y="591.756" width="115.24" height="13.297" rx="1" transform="rotate(-180 56.2402 591.756)" fill="#40444B"/>
<circle cx="91.6998" cy="587.323" r="8.86465" transform="rotate(-180 91.6998 587.323)" fill="#40444B"/>
<rect x="56.2402" y="556.297" width="115.24" height="13.297" rx="1" transform="rotate(-180 56.2402 556.297)" fill="#40444B"/>
<circle cx="91.6998" cy="551.865" r="8.86465" transform="rotate(-180 91.6998 551.865)" fill="#40444B"/>
</g>
</svg>
