<svg width="1440" height="792" viewBox="0 0 1440 792" fill="none" xmlns="http://www.w3.org/2000/svg">
<rect width="1440" height="720" fill="#252525"/>
<g opacity="0.5">
<rect x="564.654" y="545.857" width="141.894" height="15.203" rx="1" transform="rotate(15.7748 564.654 545.857)" fill="#2F3136"/>
<circle cx="594.396" cy="599.02" r="7.60149" transform="rotate(15.7748 594.396 599.02)" fill="#2F3136"/>
<circle cx="750.344" cy="606.213" r="7.60149" transform="rotate(15.7748 750.344 606.213)" fill="#2F3136"/>
<rect x="613.531" y="596.527" width="70.9472" height="15.203" rx="1" transform="rotate(15.7748 613.531 596.527)" fill="#2F3136"/>
<circle cx="583.375" cy="638.034" r="7.60149" transform="rotate(15.7748 583.375 638.034)" fill="#2F3136"/>
<rect x="602.511" y="635.541" width="70.9472" height="15.203" rx="1" transform="rotate(15.7748 602.511 635.541)" fill="#2F3136"/>
<circle cx="533.339" cy="666.027" r="7.60149" transform="rotate(15.7748 533.339 666.027)" fill="#2F3136"/>
<rect x="552.475" y="663.534" width="70.9472" height="15.203" rx="1" transform="rotate(15.7748 552.475 663.534)" fill="#2F3136"/>
<circle cx="525.074" cy="695.288" r="7.60149" transform="rotate(15.7748 525.074 695.288)" fill="#2F3136"/>
<rect x="544.209" y="692.795" width="70.9472" height="15.203" rx="1" transform="rotate(15.7748 544.209 692.795)" fill="#2F3136"/>
<circle cx="515.429" cy="729.426" r="7.60149" transform="rotate(15.7748 515.429 729.426)" fill="#2F3136"/>
<rect x="534.565" y="726.932" width="70.9472" height="15.203" rx="1" transform="rotate(15.7748 534.565 726.932)" fill="#2F3136"/>
</g>
<g opacity="0.5">
<rect x="1293" y="265" width="141.894" height="15.203" rx="1" fill="#36393F"/>
<circle cx="1336.07" cy="308.075" r="7.60149" fill="#36393F"/>
<rect x="1353.81" y="300.474" width="70.9472" height="15.203" rx="1" fill="#36393F"/>
<circle cx="1336.07" cy="348.616" r="7.60149" fill="#36393F"/>
<rect x="1353.81" y="341.015" width="70.9472" height="15.203" rx="1" fill="#36393F"/>
</g>
<path opacity="0.5" d="M1195 139L1181.88 125.957L1183.45 131.174H1151.25C1149.59 131.174 1148 130.487 1146.83 129.264C1145.66 128.041 1145 126.382 1145 124.652V85.5217C1145 83.7921 1145.66 82.1332 1146.83 80.9102C1148 79.6871 1149.59 79 1151.25 79H1188.75C1190.41 79 1192 79.6871 1193.17 80.9102C1194.34 82.1332 1195 83.7921 1195 85.5217V139ZM1170 94.1304C1163.3 94.1304 1158.6 97.1304 1158.6 97.1304C1161.17 94.7304 1165.68 93.3478 1165.68 93.3478L1165.25 92.9043C1161.03 92.9826 1157.2 96.0348 1157.2 96.0348C1152.9 105.4 1153.18 113.487 1153.18 113.487C1156.68 118.209 1161.88 117.87 1161.88 117.87L1163.65 115.522C1160.52 114.817 1158.55 111.922 1158.55 111.922C1158.55 111.922 1163.25 115.261 1170 115.261C1176.75 115.261 1181.45 111.922 1181.45 111.922C1181.45 111.922 1179.47 114.817 1176.35 115.522L1178.12 117.87C1178.12 117.87 1183.33 118.209 1186.82 113.487C1186.82 113.487 1187.1 105.4 1182.8 96.0348C1182.8 96.0348 1178.97 92.9826 1174.75 92.9043L1174.32 93.3478C1174.32 93.3478 1178.82 94.7304 1181.4 97.1304C1181.4 97.1304 1176.7 94.1304 1170 94.1304ZM1164.83 104.017C1166.45 104.017 1167.78 105.504 1167.75 107.33C1167.75 109.13 1166.45 110.643 1164.83 110.643C1163.23 110.643 1161.93 109.13 1161.93 107.33C1161.93 105.504 1163.2 104.017 1164.83 104.017ZM1175.25 104.017C1176.88 104.017 1178.18 105.504 1178.18 107.33C1178.18 109.13 1176.88 110.643 1175.25 110.643C1173.65 110.643 1172.35 109.13 1172.35 107.33C1172.35 105.504 1173.63 104.017 1175.25 104.017Z" fill="#2F3136"/>
<g opacity="0.5">
<rect x="76.9248" y="122.127" width="42.406" height="7.06767" rx="1" transform="rotate(-19.8436 76.9248 122.127)" fill="#2F3136"/>
<rect x="48.6826" y="64.6948" width="56.5414" height="56.5414" rx="1" transform="rotate(-19.8436 48.6826 64.6948)" fill="#2F3136"/>
<path d="M88.3413 95.1704C96.998 92.0464 101.8 83.3728 99.0667 75.7978C96.333 68.2227 87.0984 64.6149 78.4418 67.7389C69.7852 70.8629 64.9827 79.5365 67.7164 87.1115C68.9609 90.5601 71.5552 93.1893 74.8291 94.7318C75.3575 96.7911 75.5182 99.2001 75.4157 101.089C75.3924 101.509 75.8393 101.808 76.2066 101.605C80.3654 99.2846 82.5913 97.2234 83.5243 96.2312C85.1695 96.0898 86.789 95.7332 88.3413 95.1704Z" fill="#40444B"/>
</g>
<g opacity="0.2">
<rect x="65.2402" y="671.756" width="115.24" height="13.297" rx="1" transform="rotate(-180 65.2402 671.756)" fill="#40444B"/>
<circle cx="100.7" cy="667.323" r="8.86465" transform="rotate(-180 100.7 667.323)" fill="#40444B"/>
<rect x="65.2402" y="636.297" width="115.24" height="13.297" rx="1" transform="rotate(-180 65.2402 636.297)" fill="#40444B"/>
<circle cx="100.7" cy="631.865" r="8.86465" transform="rotate(-180 100.7 631.865)" fill="#40444B"/>
</g>
</svg>
