<svg width="1440" height="864" viewBox="0 0 1440 864" fill="none" xmlns="http://www.w3.org/2000/svg">
<rect y="120" width="1440" height="740" fill="#252525"/>
<g opacity="0.5">
<rect x="637.606" y="557.378" width="141.894" height="15.203" rx="1" transform="rotate(15.7748 637.606 557.378)" fill="#2F3136"/>
<circle cx="667.348" cy="610.541" r="7.60149" transform="rotate(15.7748 667.348 610.541)" fill="#2F3136"/>
<circle cx="823.297" cy="617.733" r="7.60149" transform="rotate(15.7748 823.297 617.733)" fill="#2F3136"/>
<rect x="686.483" y="608.047" width="70.9472" height="15.203" rx="1" transform="rotate(15.7748 686.483 608.047)" fill="#2F3136"/>
<circle cx="656.327" cy="649.555" r="7.60149" transform="rotate(15.7748 656.327 649.555)" fill="#2F3136"/>
<rect x="675.463" y="647.062" width="70.9472" height="15.203" rx="1" transform="rotate(15.7748 675.463 647.062)" fill="#2F3136"/>
<circle cx="606.292" cy="677.548" r="7.60149" transform="rotate(15.7748 606.292 677.548)" fill="#2F3136"/>
<rect x="625.427" y="675.055" width="70.9472" height="15.203" rx="1" transform="rotate(15.7748 625.427 675.055)" fill="#2F3136"/>
<circle cx="598.026" cy="706.809" r="7.60149" transform="rotate(15.7748 598.026 706.809)" fill="#2F3136"/>
<rect x="617.161" y="704.315" width="70.9472" height="15.203" rx="1" transform="rotate(15.7748 617.161 704.315)" fill="#2F3136"/>
<circle cx="588.381" cy="740.946" r="7.60149" transform="rotate(15.7748 588.381 740.946)" fill="#2F3136"/>
<rect x="607.518" y="738.453" width="70.9472" height="15.203" rx="1" transform="rotate(15.7748 607.518 738.453)" fill="#2F3136"/>
</g>
<g opacity="0.5">
<rect x="1296" y="493" width="141.894" height="15.203" rx="1" fill="#36393F"/>
<circle cx="1339.07" cy="536.075" r="7.60149" fill="#36393F"/>
<rect x="1356.81" y="528.474" width="70.9472" height="15.203" rx="1" fill="#36393F"/>
<circle cx="1339.07" cy="576.616" r="7.60149" fill="#36393F"/>
<rect x="1356.81" y="569.015" width="70.9472" height="15.203" rx="1" fill="#36393F"/>
</g>
<path opacity="0.5" d="M1039 328L1025.88 314.957L1027.45 320.174H995.25C993.592 320.174 992.003 319.487 990.831 318.264C989.658 317.041 989 315.382 989 313.652V274.522C989 272.792 989.658 271.133 990.831 269.91C992.003 268.687 993.592 268 995.25 268H1032.75C1034.41 268 1036 268.687 1037.17 269.91C1038.34 271.133 1039 272.792 1039 274.522V328ZM1014 283.13C1007.3 283.13 1002.6 286.13 1002.6 286.13C1005.17 283.73 1009.68 282.348 1009.68 282.348L1009.25 281.904C1005.03 281.983 1001.2 285.035 1001.2 285.035C996.9 294.4 997.175 302.487 997.175 302.487C1000.68 307.209 1005.88 306.87 1005.88 306.87L1007.65 304.522C1004.52 303.817 1002.55 300.922 1002.55 300.922C1002.55 300.922 1007.25 304.261 1014 304.261C1020.75 304.261 1025.45 300.922 1025.45 300.922C1025.45 300.922 1023.47 303.817 1020.35 304.522L1022.12 306.87C1022.12 306.87 1027.33 307.209 1030.82 302.487C1030.82 302.487 1031.1 294.4 1026.8 285.035C1026.8 285.035 1022.97 281.983 1018.75 281.904L1018.32 282.348C1018.32 282.348 1022.82 283.73 1025.4 286.13C1025.4 286.13 1020.7 283.13 1014 283.13ZM1008.83 293.017C1010.45 293.017 1011.78 294.504 1011.75 296.33C1011.75 298.13 1010.45 299.643 1008.83 299.643C1007.23 299.643 1005.93 298.13 1005.93 296.33C1005.93 294.504 1007.2 293.017 1008.83 293.017ZM1019.25 293.017C1020.88 293.017 1022.18 294.504 1022.18 296.33C1022.18 298.13 1020.88 299.643 1019.25 299.643C1017.65 299.643 1016.35 298.13 1016.35 296.33C1016.35 294.504 1017.63 293.017 1019.25 293.017Z" fill="#2F3136"/>
<g opacity="0.5">
<rect x="100.926" y="302.127" width="42.406" height="7.06767" rx="1" transform="rotate(-19.8436 100.926 302.127)" fill="#2F3136"/>
<rect x="72.6836" y="244.695" width="56.5414" height="56.5414" rx="1" transform="rotate(-19.8436 72.6836 244.695)" fill="#2F3136"/>
<path d="M112.342 275.17C120.999 272.046 125.801 263.373 123.068 255.798C120.334 248.223 111.099 244.615 102.443 247.739C93.7861 250.863 88.9837 259.537 91.7174 267.112C92.9619 270.56 95.5561 273.189 98.8301 274.732C99.3584 276.791 99.5192 279.2 99.4167 281.089C99.3934 281.509 99.8403 281.808 100.208 281.605C104.366 279.285 106.592 277.223 107.525 276.231C109.17 276.09 110.79 275.733 112.342 275.17Z" fill="#40444B"/>
</g>
<g opacity="0.2">
<rect x="89.2402" y="858.756" width="115.24" height="13.297" rx="1" transform="rotate(-180 89.2402 858.756)" fill="#40444B"/>
<circle cx="124.7" cy="854.323" r="8.86465" transform="rotate(-180 124.7 854.323)" fill="#40444B"/>
<rect x="89.2402" y="823.297" width="115.24" height="13.297" rx="1" transform="rotate(-180 89.2402 823.297)" fill="#40444B"/>
<circle cx="124.7" cy="818.865" r="8.86465" transform="rotate(-180 124.7 818.865)" fill="#40444B"/>
</g>
<rect width="1440" height="120" fill="#252525"/>
</svg>
