<svg width="213" height="147" viewBox="0 0 213 147" fill="none" xmlns="http://www.w3.org/2000/svg">
<path d="M27.4798 79.8627C33.7197 77.6109 37.1815 71.3587 35.211 65.8984C33.2404 60.4382 26.5839 57.8375 20.344 60.0894C14.1041 62.3412 10.6423 68.5934 12.6128 74.0537C13.5099 76.5395 15.3799 78.4347 17.7399 79.5465C18.1207 81.0309 18.2366 82.7674 18.1627 84.1286C18.1459 84.4316 18.468 84.6474 18.7328 84.5008C21.7305 82.8283 23.335 81.3425 24.0076 80.6273C25.1935 80.5254 26.3608 80.2684 27.4798 79.8627Z" fill="#257DC1"/>
<path d="M96.3442 37.417L95.4218 40.8596L91.3301 39.7632L92.2525 36.3207L91.2673 36.0567L89.1087 44.1125L90.094 44.3765L91.094 40.6441L95.1857 41.7405L94.1856 45.4728L95.1709 45.7368L97.3294 37.681L96.3442 37.417ZM98.1368 43.6493L103.214 45.0097C103.256 44.8969 103.324 44.6913 103.37 44.5175C103.802 42.9063 103.02 41.1437 101.177 40.6499C99.4496 40.1871 97.7114 41.2495 97.2362 43.0229C96.7486 44.8427 97.6571 46.5521 99.5349 47.0552C100.984 47.4435 101.998 47.0443 102.683 46.2961L101.965 45.5446C101.474 46.171 100.815 46.4044 99.8181 46.1373C98.6938 45.836 98.0062 44.8318 98.1368 43.6493ZM98.3782 42.7947C98.8742 41.6853 99.95 41.2406 100.982 41.517C102.002 41.7903 102.615 42.7001 102.458 43.8879L98.3782 42.7947ZM103.73 48.0304L104.716 48.2944L106.986 39.8213L106.001 39.5573L103.73 48.0304ZM111.239 43.3584C110.23 43.0882 109.291 43.346 108.596 43.9922L108.898 42.8678L107.982 42.6225L105.789 50.8058L106.775 51.0698L107.598 47.9982C107.895 48.8357 108.56 49.461 109.51 49.7157C111.249 50.1816 112.887 49.1671 113.375 47.3473C113.863 45.5275 112.977 43.8243 111.239 43.3584ZM109.639 48.8184C108.364 48.4768 107.738 47.2903 108.101 45.9341C108.464 44.578 109.615 43.855 110.878 44.1936C112.107 44.5228 112.747 45.7503 112.39 47.0833C112.036 48.4047 110.856 49.1445 109.639 48.8184ZM114.682 48.3807L115.482 48.595L117.268 42.5764L116.132 42.272L114.682 48.3807ZM114.402 51.0016C114.796 51.1072 115.149 50.9035 115.251 50.521C115.357 50.1269 115.153 49.7742 114.759 49.6686C114.388 49.5692 114.024 49.7698 113.918 50.1639C113.816 50.5464 114.031 50.9022 114.402 51.0016Z" fill="white"/>
<path d="M127.815 14.5676C131.92 10.4598 136.899 7.36885 142.363 5.53606C147.827 3.70328 153.629 3.1782 159.315 4.00181C157.907 16.7446 156.54 29.9897 154.998 42.7225C144.385 41.5251 119.424 38.8802 119.424 38.8802C119.009 29.9862 122.019 21.2647 127.815 14.5676ZM138.908 19.564C137.845 20.2223 136.947 21.1232 136.284 22.1953C135.622 23.2673 135.214 24.4809 135.092 25.7395C134.971 26.998 135.14 28.2669 135.586 29.4451C136.032 30.6233 136.742 31.6784 137.66 32.5265C138.762 33.5921 140.138 34.3198 141.63 34.6267C143.122 34.9336 144.671 34.8072 146.099 34.262C147.527 33.7168 148.777 32.7748 149.707 31.5433C150.637 30.3119 151.209 28.8407 151.357 27.2976C151.506 25.7545 151.225 24.2016 150.548 22.8162C149.87 21.4308 148.822 20.2686 147.524 19.4622C146.226 18.6559 144.73 18.2378 143.207 18.2558C141.683 18.2738 140.194 18.7271 138.908 19.564Z" fill="#257DC1"/>
<path d="M153 137.135C149.423 137.172 145.85 136.897 142.321 136.311C142.321 136.798 142.282 137.71 142.263 138.178C142.16 140.897 142.096 146.744 142.096 146.744H117.815C117.815 146.744 117.908 133.046 117.742 126.21C117.854 124.421 116.374 123.242 115.337 122.004C108.912 114.771 105.426 105.406 105.562 95.7443V54.6511H152.971C152.942 82.1408 152.952 109.635 153 137.135Z" fill="#257DC1"/>
<path d="M101.902 66.5349L85.855 94.3282L78.0004 89.7933L94.0469 62L101.902 66.5349Z" fill="#257DC1"/>
<path d="M159.373 4.0023C169.323 4.82593 178.595 9.35286 185.313 16.6673C188.717 20.595 191.07 25.3014 192.158 30.3553C192.793 35.8551 192.642 41.4139 191.71 46.868L155.068 42.7304C155.068 42.7304 157.966 16.7341 159.348 3.99471L159.373 4.0023ZM166.226 22.258C165.071 22.8367 164.07 23.6771 163.307 24.7109C162.543 25.7446 162.038 26.9425 161.831 28.2072C161.625 29.4718 161.724 30.7675 162.12 31.9889C162.515 33.2103 163.197 34.323 164.109 35.2364C165.382 36.5992 167.092 37.4865 168.949 37.7482C170.805 38.0099 172.694 37.6299 174.297 36.6726C176.109 35.6204 177.443 33.9216 178.026 31.9247C178.608 29.9278 178.394 27.7844 177.428 25.9343C176.959 24.9483 176.291 24.0666 175.466 23.3433C174.641 22.6201 173.676 22.0703 172.63 21.7278C171.583 21.3853 170.478 21.2572 169.38 21.3513C168.283 21.4455 167.218 21.7599 166.249 22.2753L166.226 22.258Z" fill="#166AAB"/>
<path d="M153.015 54.6511H200.438V95.7421C200.575 105.403 197.088 114.768 190.66 122.001C189.623 123.238 188.142 124.437 188.255 126.206C188.108 133.047 188.191 146.744 188.191 146.744H163.888C163.888 146.744 163.839 140.897 163.741 138.178C163.741 137.691 163.692 136.775 163.682 136.312C160.153 136.897 156.578 137.173 153 137.135C153.078 109.634 153.083 82.1393 153.015 54.6511Z" fill="#166AAB"/>
<path d="M204.021 62.3257H212.999V94.4187H203.93L204.021 62.3257Z" fill="#166AAB"/>
<circle cx="24" cy="71" r="23.5" stroke="#257DC1"/>
</svg>
