<svg width="213" height="152" viewBox="0 0 213 152" fill="none" xmlns="http://www.w3.org/2000/svg">
<path d="M122.817 28.9827C126.446 24.4488 131.055 20.8297 136.285 18.4078C141.515 15.986 147.224 14.8269 152.966 15.0209C152.966 27.8412 153.063 41.1563 152.928 53.9815C142.248 53.9571 117.147 54.0697 117.147 54.0697C115.758 45.275 117.792 36.2757 122.817 28.9827ZM134.392 32.7303C133.408 33.5014 132.614 34.4956 132.073 35.6339C131.532 36.7722 131.26 38.0233 131.278 39.2875C131.296 40.5518 131.603 41.7944 132.175 42.9165C132.748 44.0386 133.57 45.0094 134.575 45.7515C135.788 46.6895 137.235 47.2618 138.752 47.4029C140.269 47.5441 141.794 47.2484 143.154 46.5496C144.513 45.8509 145.653 44.7772 146.442 43.4511C147.231 42.125 147.637 40.5999 147.616 39.0498C147.594 37.4997 147.144 35.987 146.318 34.6844C145.493 33.3818 144.324 32.3417 142.945 31.6828C141.566 31.0239 140.033 30.7727 138.521 30.958C137.009 31.1432 135.578 31.7573 134.392 32.7303Z" fill="#257DC1"/>
<path d="M153 142.135C149.423 142.172 145.85 141.897 142.321 141.311C142.321 141.798 142.282 142.71 142.263 143.178C142.16 145.897 142.096 151.744 142.096 151.744H117.815C117.815 151.744 117.908 138.046 117.742 131.21C117.854 129.421 116.374 128.242 115.337 127.004C108.912 119.771 105.426 110.406 105.562 100.744V59.6511H152.971C152.942 87.1408 152.952 114.635 153 142.135Z" fill="#257DC1"/>
<path d="M102.07 67.3257V99.4187H93V67.3257H102.07Z" fill="#257DC1"/>
<path d="M153.025 15.0151C163.005 14.7408 172.718 18.222 180.2 24.7542C184.014 28.2844 186.87 32.7039 188.506 37.6076C189.742 43.0044 190.202 48.5461 189.874 54.0697L153 53.9816C153 53.9816 153.025 27.8244 153 15.0102L153.025 15.0151ZM161.842 32.4075C160.757 33.1097 159.855 34.0549 159.21 35.1662C158.564 36.2776 158.193 37.5238 158.127 38.8034C158.061 40.0831 158.302 41.3601 158.829 42.5306C159.356 43.7012 160.156 44.7322 161.163 45.54C162.578 46.7546 164.375 47.4488 166.249 47.505C168.123 47.5612 169.96 46.976 171.447 45.8485C173.133 44.6037 174.272 42.7685 174.632 40.7198C174.991 38.671 174.543 36.564 173.38 34.8313C172.805 33.9027 172.045 33.0997 171.145 32.4714C170.246 31.8431 169.226 31.4028 168.148 31.1773C167.071 30.9518 165.958 30.9459 164.878 31.1599C163.798 31.374 162.773 31.8035 161.867 32.4222L161.842 32.4075Z" fill="#166AAB"/>
<path d="M153.015 59.6511H200.438V100.742C200.575 110.403 197.088 119.768 190.66 127.001C189.623 128.238 188.142 129.437 188.255 131.206C188.108 138.047 188.191 151.744 188.191 151.744H163.888C163.888 151.744 163.839 145.897 163.741 143.178C163.741 142.691 163.692 141.775 163.682 141.312C160.153 141.897 156.578 142.173 153 142.135C153.078 114.634 153.083 87.1393 153.015 59.6511Z" fill="#166AAB"/>
<path d="M204.021 67.3257H212.999V99.4187H203.93L204.021 67.3257Z" fill="#166AAB"/>
<path d="M153 28L112.716 17.57L115.2 56H104.4L106.992 16.065L99 14L153 0L207 14L153 28Z" fill="#1973B9"/>
<circle cx="24" cy="76" r="23.5" stroke="#257DC1"/>
<path d="M21.464 79.256H25.208L26.072 63.608H20.664L21.464 79.256ZM23.352 87.32C24.888 87.32 26.04 86.168 26.04 84.696C26.04 83.128 24.888 81.976 23.352 81.976C21.848 81.976 20.728 83.128 20.728 84.696C20.728 86.168 21.848 87.32 23.352 87.32Z" fill="#257DC1"/>
</svg>
