<svg width="241" height="137" viewBox="0 0 241 137" fill="none" xmlns="http://www.w3.org/2000/svg">
<path d="M240.085 35.3762L231.813 32.9096C231.241 30.9148 230.455 28.9878 229.468 27.1623L233.517 19.5896C233.669 19.3038 233.725 18.9766 233.676 18.6567C233.627 18.3368 233.476 18.0411 233.245 17.8136L227.344 11.8937C227.117 11.6635 226.821 11.5127 226.5 11.4638C226.18 11.415 225.853 11.4705 225.567 11.6223L218.036 15.643C216.191 14.6086 214.236 13.7814 212.209 13.1763L209.74 5.01171C209.635 4.71081 209.438 4.45079 209.176 4.26905C208.914 4.08731 208.602 3.99324 208.283 4.00038H199.938C199.617 4.00187 199.305 4.10554 199.048 4.29631C198.79 4.48708 198.6 4.75498 198.505 5.06104L196.036 13.201C193.992 13.8028 192.021 14.6301 190.16 15.6677L182.753 11.6717C182.467 11.5199 182.139 11.4643 181.819 11.5132C181.499 11.5621 181.203 11.7128 180.975 11.943L174.975 17.789C174.745 18.0165 174.594 18.3121 174.545 18.632C174.496 18.952 174.552 19.2791 174.704 19.565L178.703 26.9649C177.667 28.8164 176.838 30.777 176.234 32.8109L168.062 35.2776C167.755 35.3721 167.487 35.5618 167.296 35.8191C167.105 36.0764 167.001 36.3879 167 36.7082V45.0455C167.001 45.3658 167.105 45.6773 167.296 45.9346C167.487 46.1919 167.755 46.3816 168.062 46.4762L176.284 48.9428C176.894 50.9428 177.722 52.8701 178.753 54.6901L174.704 62.4354C174.552 62.7213 174.496 63.0484 174.545 63.3684C174.594 63.6883 174.745 63.9839 174.975 64.2114L180.876 70.1067C181.104 70.3369 181.4 70.4877 181.72 70.5365C182.04 70.5854 182.368 70.5298 182.654 70.378L190.283 66.3081C192.088 67.281 193.992 68.0583 195.962 68.6267L198.431 76.9393C198.526 77.2454 198.716 77.5133 198.973 77.7041C199.231 77.8948 199.543 77.9985 199.863 78H208.209C208.53 77.9985 208.841 77.8948 209.099 77.7041C209.356 77.5133 209.546 77.2454 209.641 76.9393L212.11 68.6021C214.064 68.0307 215.951 67.2534 217.74 66.2834L225.418 70.378C225.705 70.5298 226.032 70.5854 226.352 70.5365C226.673 70.4877 226.968 70.3369 227.196 70.1067L233.097 64.2114C233.328 63.9839 233.479 63.6883 233.528 63.3684C233.576 63.0484 233.521 62.7213 233.369 62.4354L229.27 54.7888C230.251 52.9948 231.038 51.1011 231.616 49.1401L239.937 46.6735C240.243 46.579 240.511 46.3893 240.702 46.1319C240.893 45.8746 240.997 45.5631 240.998 45.2428V36.8315C241.013 36.5248 240.933 36.221 240.77 35.9608C240.607 35.7007 240.367 35.4967 240.085 35.3762ZM204.11 54.5668C201.424 54.5668 198.799 53.7711 196.566 52.2804C194.332 50.7897 192.592 48.6709 191.564 46.1919C190.536 43.7129 190.267 40.9851 190.791 38.3535C191.315 35.7218 192.609 33.3045 194.508 31.4072C196.407 29.5098 198.827 28.2177 201.461 27.6943C204.095 27.1708 206.826 27.4395 209.307 28.4663C211.788 29.4931 213.909 31.232 215.402 33.463C216.894 35.694 217.69 38.317 217.69 41.0002C217.69 44.5983 216.259 48.049 213.713 50.5932C211.166 53.1375 207.712 54.5668 204.11 54.5668Z" fill="#257DC1"/>
<path d="M132.505 107.96L128.034 106.627C127.725 105.549 127.3 104.507 126.766 103.52L128.955 99.4268C129.037 99.2723 129.067 99.0955 129.041 98.9225C129.014 98.7496 128.933 98.5898 128.808 98.4668L125.619 95.2668C125.495 95.1424 125.335 95.0609 125.162 95.0345C124.989 95.0081 124.812 95.0381 124.658 95.1202L120.587 97.2935C119.589 96.7344 118.533 96.2872 117.437 95.9602L116.103 91.5469C116.046 91.3842 115.939 91.2437 115.798 91.1454C115.656 91.0472 115.487 90.9963 115.315 91.0002H110.804C110.631 91.001 110.462 91.057 110.323 91.1602C110.184 91.2633 110.081 91.4081 110.03 91.5735L108.695 95.9735C107.59 96.2988 106.525 96.746 105.519 97.3068L101.515 95.1469C101.36 95.0648 101.183 95.0348 101.01 95.0612C100.837 95.0876 100.677 95.1691 100.554 95.2935L97.3109 98.4535C97.1863 98.5765 97.1048 98.7363 97.0783 98.9092C97.0519 99.0821 97.0819 99.259 97.1641 99.4135L99.3262 103.413C98.7657 104.414 98.3181 105.474 97.9915 106.573L93.5739 107.907C93.4083 107.958 93.2633 108.06 93.1601 108.2C93.0569 108.339 93.0008 108.507 93 108.68V113.187C93.0008 113.36 93.0569 113.528 93.1601 113.667C93.2633 113.806 93.4083 113.909 93.5739 113.96L98.0182 115.293C98.3484 116.374 98.7959 117.416 99.3529 118.4L97.1641 122.587C97.0819 122.741 97.0519 122.918 97.0783 123.091C97.1048 123.264 97.1863 123.424 97.3109 123.547L100.501 126.733C100.624 126.858 100.784 126.939 100.957 126.966C101.13 126.992 101.307 126.962 101.462 126.88L105.586 124.68C106.561 125.206 107.59 125.626 108.655 125.933L109.99 130.427C110.041 130.592 110.144 130.737 110.283 130.84C110.422 130.943 110.591 130.999 110.764 131H115.275C115.448 130.999 115.617 130.943 115.756 130.84C115.895 130.737 115.998 130.592 116.049 130.427L117.384 125.92C118.44 125.611 119.46 125.191 120.427 124.667L124.578 126.88C124.732 126.962 124.909 126.992 125.082 126.966C125.255 126.939 125.415 126.858 125.538 126.733L128.728 123.547C128.853 123.424 128.934 123.264 128.961 123.091C128.987 122.918 128.957 122.741 128.875 122.587L126.66 118.453C127.19 117.484 127.615 116.46 127.927 115.4L132.425 114.067C132.591 114.016 132.736 113.913 132.839 113.774C132.942 113.635 132.998 113.467 132.999 113.293V108.747C133.007 108.581 132.964 108.417 132.876 108.276C132.787 108.136 132.658 108.025 132.505 107.96ZM113.06 118.333C111.608 118.333 110.189 117.903 108.981 117.098C107.774 116.292 106.833 115.146 106.278 113.806C105.722 112.466 105.577 110.992 105.86 109.569C106.143 108.147 106.842 106.84 107.869 105.815C108.896 104.789 110.204 104.091 111.628 103.808C113.051 103.525 114.527 103.67 115.869 104.225C117.21 104.78 118.356 105.72 119.163 106.926C119.97 108.132 120.4 109.55 120.4 111C120.4 112.945 119.627 114.81 118.25 116.186C116.874 117.561 115.006 118.333 113.06 118.333Z" fill="#166AAB"/>
<path d="M122.817 13.9827C126.446 9.44877 131.055 5.82969 136.285 3.40783C141.515 0.985979 147.224 -0.173148 152.966 0.0209044C152.966 12.8412 153.063 26.1563 152.928 38.9815C142.248 38.9571 117.147 39.0697 117.147 39.0697C115.758 30.275 117.792 21.2757 122.817 13.9827ZM134.392 17.7303C133.408 18.5014 132.614 19.4956 132.073 20.6339C131.532 21.7722 131.26 23.0233 131.278 24.2875C131.296 25.5518 131.603 26.7944 132.175 27.9165C132.748 29.0386 133.57 30.0094 134.575 30.7515C135.788 31.6895 137.235 32.2618 138.752 32.4029C140.269 32.5441 141.794 32.2484 143.154 31.5496C144.513 30.8509 145.653 29.7772 146.442 28.4511C147.231 27.125 147.637 25.5999 147.616 24.0498C147.594 22.4997 147.144 20.987 146.318 19.6844C145.493 18.3818 144.324 17.3417 142.945 16.6828C141.566 16.0239 140.033 15.7727 138.521 15.958C137.009 16.1432 135.578 16.7573 134.392 17.7303Z" fill="#257DC1"/>
<path d="M153 127.135C149.423 127.172 145.85 126.897 142.321 126.311C142.321 126.798 142.282 127.71 142.263 128.178C142.16 130.897 142.096 136.744 142.096 136.744H117.815C117.815 136.744 117.908 123.046 117.742 116.21C117.854 114.421 116.374 113.242 115.337 112.004C108.912 104.771 105.426 95.4061 105.562 85.7443V44.6511H152.971C152.942 72.1408 152.952 99.6353 153 127.135Z" fill="#257DC1"/>
<path d="M102.07 52.3257V84.4187H93V52.3257H102.07Z" fill="#257DC1"/>
<path d="M153.025 0.0150531C163.005 -0.259174 172.718 3.22196 180.2 9.75424C184.014 13.2844 186.87 17.7039 188.506 22.6076C189.742 28.0044 190.202 33.5461 189.874 39.0697L153 38.9816C153 38.9816 153.025 12.8244 153 0.0101563L153.025 0.0150531ZM161.842 17.4075C160.757 18.1097 159.855 19.0549 159.21 20.1662C158.564 21.2776 158.193 22.5238 158.127 23.8034C158.061 25.0831 158.302 26.3601 158.829 27.5306C159.356 28.7012 160.156 29.7322 161.163 30.54C162.578 31.7546 164.375 32.4488 166.249 32.505C168.123 32.5612 169.96 31.976 171.447 30.8485C173.133 29.6037 174.272 27.7685 174.632 25.7198C174.991 23.671 174.543 21.564 173.38 19.8313C172.805 18.9027 172.045 18.0997 171.145 17.4714C170.246 16.8431 169.226 16.4028 168.148 16.1773C167.071 15.9518 165.958 15.9459 164.878 16.1599C163.798 16.374 162.773 16.8035 161.867 17.4222L161.842 17.4075Z" fill="#166AAB"/>
<path d="M153.015 44.6511H200.438V85.7421C200.575 95.4034 197.088 104.768 190.66 112.001C189.623 113.238 188.142 114.437 188.255 116.206C188.108 123.047 188.191 136.744 188.191 136.744H163.888C163.888 136.744 163.839 130.897 163.741 128.178C163.741 127.691 163.692 126.775 163.682 126.312C160.153 126.897 156.578 127.173 153 127.135C153.078 99.634 153.083 72.1393 153.015 44.6511Z" fill="#166AAB"/>
<path d="M204.021 52.3257H212.999V84.4187H203.93L204.021 52.3257Z" fill="#166AAB"/>
<circle cx="24" cy="61" r="23.5" stroke="#257DC1"/>
<path fill-rule="evenodd" clip-rule="evenodd" d="M22.8106 66.8965C22.5725 66.6125 22.3153 66.315 22.0369 66.0041C21.6003 65.5165 21.1113 64.9944 20.5644 64.4383C20.0125 63.8766 19.4939 63.3812 19.0085 62.9431C18.6933 62.6598 18.393 62.4005 18.1055 62.1631C18.7485 60.0094 19.6691 58.5008 21.5289 55.8363C23.3886 53.1717 26.6615 51.3219 26.6615 51.3219C27.3717 52.3401 28.4103 53.5879 29.926 55.0774C31.4246 56.5499 32.6704 57.6013 33.6829 58.3517C33.6829 58.3517 31.8281 61.6049 29.1593 63.4667C26.4905 65.3286 24.9728 66.2549 22.8106 66.8965ZM28.9594 56.0377C29.738 56.8163 29.5006 58.3171 28.428 59.389C27.3561 60.4609 25.8553 60.699 25.0767 59.9204C24.298 59.1417 24.5354 57.6409 25.608 56.569C26.6799 55.4964 28.18 55.2583 28.9594 56.0377Z" fill="#257DC1"/>
<path fill-rule="evenodd" clip-rule="evenodd" d="M35.8716 49.1279C35.7734 49.0325 35.6469 49.0007 35.5 49C33.8762 48.9958 30.2896 49.4353 27.5332 50.9311C28.102 51.7911 29.306 53.1406 30.5828 54.4167C31.8596 55.6935 33.2092 56.8976 34.0684 57.4664C35.565 54.7107 36.0045 51.124 35.9995 49.4996C35.9988 49.3526 35.967 49.2268 35.8716 49.1279Z" fill="#257DC1"/>
<path fill-rule="evenodd" clip-rule="evenodd" d="M23.0977 67.6857C23.0977 67.6857 23.6608 68.6877 23.8883 70.3757C24.1158 72.0638 23.7138 72.9866 23.7138 72.9866C23.7138 72.9866 25.6541 72.8905 27.552 70.44C29.4499 67.9903 28.6013 64.8212 28.6013 64.8212C28.6013 64.8212 26.62 66.1136 26.0964 66.3701C25.5714 66.6266 24.1314 67.3974 23.0977 67.6857Z" fill="#257DC1"/>
<path fill-rule="evenodd" clip-rule="evenodd" d="M17.3267 64.2079L20.7996 67.6808C21.0907 67.9719 21.5994 67.9401 21.9301 67.6101L22.0658 67.4745C21.4758 66.7785 20.76 65.9921 19.8902 65.1067C19.0155 64.2164 18.2382 63.4999 17.5521 62.9219L17.3967 63.0774C17.0667 63.4074 17.0349 63.9161 17.3267 64.2079Z" fill="#257DC1"/>
<path fill-rule="evenodd" clip-rule="evenodd" d="M19.9107 67.8476L20.3283 68.2652L15.2041 71.8405L19.2013 67.8433C19.3963 67.649 19.7143 67.6511 19.9107 67.8476Z" fill="#257DC1"/>
<path fill-rule="evenodd" clip-rule="evenodd" d="M16.6017 64.5379L17.0193 64.9555C17.2157 65.1519 17.2178 65.4706 17.0235 65.6642L13.0264 69.6614L16.6017 64.5379Z" fill="#257DC1"/>
<path fill-rule="evenodd" clip-rule="evenodd" d="M13.3562 71.2795L13.5872 71.5105C13.6763 71.5996 13.8642 71.5572 14.0048 71.4166L18.486 66.9354C18.6266 66.7948 18.669 66.6068 18.58 66.5178L18.3489 66.2867C18.2599 66.1977 18.072 66.2401 17.9313 66.3807L13.4502 70.8619C13.3095 71.0025 13.2672 71.1904 13.3562 71.2795Z" fill="#257DC1"/>
<path fill-rule="evenodd" clip-rule="evenodd" d="M17.3008 61.8889C17.3008 61.8889 16.2996 61.3257 14.6108 61.0982C12.9228 60.8707 12 61.2734 12 61.2734C12 61.2734 12.0961 59.3331 14.5465 57.4353C16.997 55.5374 20.1653 56.386 20.1653 56.386C20.1653 56.386 18.873 58.3672 18.6165 58.8908C18.36 59.4144 17.5891 60.8551 17.3008 61.8889Z" fill="#257DC1"/>
</svg>
