<svg width="184" height="80" viewBox="0 0 184 80" fill="none" xmlns="http://www.w3.org/2000/svg">
<g filter="url(#filter0_d)">
<path d="M20 24C20 21.7909 21.7909 20 24 20H163C163.552 20 164 20.4477 164 21V56C164 58.2091 162.209 60 160 60H24C21.7909 60 20 58.2091 20 56V24Z" fill="white"/>
<path d="M74.2548 40.096H68.6068V41.648H72.2708C71.8388 43.472 70.5908 44.352 68.8468 44.352C66.5268 44.352 65.0708 42.8 65.0708 40.48C65.0708 38.176 66.5108 36.624 68.6228 36.624C70.2388 36.624 71.3428 37.456 71.8388 38.88L73.7908 38.064C73.1028 36.224 71.3588 34.688 68.6548 34.688C65.4068 34.688 62.9908 37.104 62.9908 40.448C62.9908 43.776 65.3908 46.192 68.6708 46.192C71.8228 46.192 74.2548 43.952 74.2548 40.096ZM77.2218 42.432H83.7658C83.7978 42.256 83.8138 41.936 83.8138 41.616C83.8138 39.456 82.1978 37.376 79.5418 37.376C77.1258 37.376 75.2218 39.344 75.2218 41.792C75.2218 44.304 76.9818 46.208 79.6698 46.208C81.7178 46.208 82.8378 45.344 83.4778 44.304L81.8778 43.28C81.4938 44.032 80.8858 44.464 79.7338 44.464C78.4698 44.464 77.4938 43.696 77.2218 42.432ZM77.2218 41.008C77.4778 39.712 78.4058 38.976 79.5898 38.976C80.7738 38.976 81.6378 39.744 81.8618 41.008H77.2218ZM88.8056 46H90.1336V44.224H89.2056C88.2936 44.224 87.7976 43.696 87.7976 42.72V39.312H90.0696V37.568H87.8616V35.376H85.8776V36.704C85.8776 37.28 85.6056 37.568 85.0456 37.568H84.2776V39.312H85.7496V42.944C85.7496 44.8 86.7896 46 88.8056 46ZM98.1921 46.176C100.72 46.176 102.288 44.896 102.288 43.008C102.288 38.816 96.5921 40 96.5921 37.664C96.5921 36.96 97.1521 36.448 98.2241 36.448C99.2321 36.448 99.8881 36.912 100.176 37.904L102.112 37.168C101.696 35.68 100.336 34.704 98.3201 34.704C95.9361 34.704 94.5441 35.984 94.5441 37.824C94.5441 41.744 100.224 40.576 100.224 43.056C100.224 43.904 99.5361 44.416 98.3841 44.416C97.1521 44.416 96.2881 43.792 95.9841 42.656L94.0481 43.392C94.5761 45.184 96.1121 46.176 98.1921 46.176ZM107.462 46H108.79V44.224H107.862C106.95 44.224 106.454 43.696 106.454 42.72V39.312H108.726V37.568H106.518V35.376H104.534V36.704C104.534 37.28 104.262 37.568 103.702 37.568H102.934V39.312H104.406V42.944C104.406 44.8 105.446 46 107.462 46ZM116.308 37.568V38.768C115.684 37.952 114.74 37.504 113.524 37.504C111.108 37.504 109.348 39.264 109.348 41.792C109.348 44.304 111.108 46.192 113.524 46.192C114.74 46.192 115.684 45.696 116.308 44.864V46H118.196V37.568H116.308ZM113.796 44.4C112.404 44.4 111.38 43.296 111.38 41.792C111.38 40.288 112.404 39.184 113.796 39.184C115.252 39.184 116.244 40.24 116.244 41.792C116.244 43.328 115.252 44.4 113.796 44.4ZM121.997 38.512V37.568H120.077V46H122.109V41.2C122.109 40.064 123.037 39.28 124.509 39.28V37.376C123.453 37.376 122.573 37.84 121.997 38.512ZM129.446 46H130.774V44.224H129.846C128.934 44.224 128.438 43.696 128.438 42.72V39.312H130.71V37.568H128.502V35.376H126.518V36.704C126.518 37.28 126.246 37.568 125.686 37.568H124.918V39.312H126.39V42.944C126.39 44.8 127.43 46 129.446 46ZM133.284 42.432H139.828C139.86 42.256 139.876 41.936 139.876 41.616C139.876 39.456 138.26 37.376 135.604 37.376C133.188 37.376 131.284 39.344 131.284 41.792C131.284 44.304 133.044 46.208 135.732 46.208C137.78 46.208 138.9 45.344 139.54 44.304L137.94 43.28C137.556 44.032 136.948 44.464 135.796 44.464C134.532 44.464 133.556 43.696 133.284 42.432ZM133.284 41.008C133.54 39.712 134.468 38.976 135.652 38.976C136.836 38.976 137.7 39.744 137.924 41.008H133.284ZM147.648 34.304V38.496C146.992 37.792 146.08 37.376 144.96 37.376C142.544 37.376 140.832 39.264 140.832 41.792C140.832 44.304 142.592 46.192 145.008 46.192C146.192 46.192 147.136 45.728 147.792 44.928V46H149.68V34.304H147.648ZM145.28 44.4C143.888 44.4 142.864 43.296 142.864 41.792C142.864 40.288 143.888 39.184 145.28 39.184C146.736 39.184 147.728 40.24 147.728 41.792C147.728 43.328 146.736 44.4 145.28 44.4Z" fill="#257DC1"/>
<path fill-rule="evenodd" clip-rule="evenodd" d="M43.8106 45.8965C43.5725 45.6125 43.3153 45.315 43.0369 45.0041C42.6003 44.5165 42.1113 43.9944 41.5644 43.4383C41.0125 42.8766 40.4939 42.3812 40.0085 41.9431C39.6933 41.6598 39.393 41.4005 39.1055 41.1631C39.7485 39.0094 40.6691 37.5008 42.5289 34.8363C44.3886 32.1717 47.6615 30.3219 47.6615 30.3219C48.3717 31.3401 49.4103 32.5879 50.926 34.0774C52.4246 35.5499 53.6704 36.6013 54.6829 37.3517C54.6829 37.3517 52.8281 40.6049 50.1593 42.4667C47.4905 44.3286 45.9728 45.2549 43.8106 45.8965ZM49.9594 35.0377C50.738 35.8163 50.5006 37.3171 49.428 38.389C48.3561 39.4609 46.8553 39.699 46.0767 38.9204C45.298 38.1417 45.5354 36.6409 46.608 35.569C47.6799 34.4964 49.18 34.2583 49.9594 35.0377Z" fill="#257DC1"/>
<path fill-rule="evenodd" clip-rule="evenodd" d="M56.8721 28.1279C56.7739 28.0325 56.6474 28.0007 56.5005 28C54.8767 27.9958 51.2901 28.4353 48.5337 29.9311C49.1025 30.7911 50.3065 32.1406 51.5833 33.4167C52.8601 34.6935 54.2097 35.8976 55.0689 36.4664C56.5655 33.7107 57.005 30.124 57 28.4996C56.9993 28.3526 56.9675 28.2268 56.8721 28.1279Z" fill="#257DC1"/>
<path fill-rule="evenodd" clip-rule="evenodd" d="M44.0977 46.6858C44.0977 46.6858 44.6608 47.6877 44.8883 49.3758C45.1158 51.0638 44.7138 51.9866 44.7138 51.9866C44.7138 51.9866 46.6541 51.8905 48.552 49.4401C50.4499 46.9903 49.6013 43.8213 49.6013 43.8213C49.6013 43.8213 47.62 45.1136 47.0964 45.3701C46.5714 45.6266 45.1314 46.3975 44.0977 46.6858Z" fill="#257DC1"/>
<path fill-rule="evenodd" clip-rule="evenodd" d="M38.3272 43.2079L41.8001 46.6807C42.0912 46.9719 42.5999 46.9401 42.9306 46.6101L43.0663 46.4744C42.4763 45.7784 41.7605 44.992 40.8907 44.1066C40.0159 43.2163 39.2387 42.4999 38.5526 41.9219L38.3972 42.0773C38.0672 42.4073 38.0354 42.916 38.3272 43.2079Z" fill="#257DC1"/>
<path fill-rule="evenodd" clip-rule="evenodd" d="M40.9112 46.8475L41.3288 47.2651L36.2046 50.8404L40.2018 46.8433C40.3968 46.649 40.7147 46.6511 40.9112 46.8475Z" fill="#257DC1"/>
<path fill-rule="evenodd" clip-rule="evenodd" d="M37.6012 43.538L38.0188 43.9556C38.2152 44.152 38.2174 44.4707 38.023 44.6643L34.0259 48.6614L37.6012 43.538Z" fill="#257DC1"/>
<path fill-rule="evenodd" clip-rule="evenodd" d="M34.3567 50.2795L34.5877 50.5105C34.6768 50.5996 34.8647 50.5572 35.0053 50.4166L39.4865 45.9354C39.6271 45.7948 39.6695 45.6068 39.5805 45.5178L39.3494 45.2867C39.2604 45.1977 39.0724 45.2401 38.9318 45.3807L34.4506 49.8619C34.31 50.0025 34.2676 50.1904 34.3567 50.2795Z" fill="#257DC1"/>
<path fill-rule="evenodd" clip-rule="evenodd" d="M38.3008 40.8888C38.3008 40.8888 37.2996 40.3257 35.6108 40.0981C33.9228 39.8706 33 40.2734 33 40.2734C33 40.2734 33.0961 38.3331 35.5465 36.4352C37.997 34.5373 41.1653 35.3859 41.1653 35.3859C41.1653 35.3859 39.873 37.3672 39.6165 37.8908C39.36 38.4143 38.5891 39.8551 38.3008 40.8888Z" fill="#257DC1"/>
</g>
<defs>
<filter id="filter0_d" x="0" y="0" width="184" height="80" filterUnits="userSpaceOnUse" color-interpolation-filters="sRGB">
<feFlood flood-opacity="0" result="BackgroundImageFix"/>
<feColorMatrix in="SourceAlpha" type="matrix" values="0 0 0 0 0 0 0 0 0 0 0 0 0 0 0 0 0 0 127 0"/>
<feOffset/>
<feGaussianBlur stdDeviation="10"/>
<feColorMatrix type="matrix" values="0 0 0 0 0 0 0 0 0 0 0 0 0 0 0 0 0 0 0.75 0"/>
<feBlend mode="normal" in2="BackgroundImageFix" result="effect1_dropShadow"/>
<feBlend mode="normal" in="SourceGraphic" in2="effect1_dropShadow" result="shape"/>
</filter>
</defs>
</svg>
