<svg width="144" height="40" viewBox="0 0 144 40" fill="none" xmlns="http://www.w3.org/2000/svg">
<path d="M0 4C0 1.79086 1.79086 0 4 0H143C143.552 0 144 0.447715 144 1V36C144 38.2091 142.209 40 140 40H4C1.79086 40 0 38.2091 0 36V4Z" fill="#257DC1"/>
<path d="M54.2548 20.096H48.6068V21.648H52.2708C51.8388 23.472 50.5908 24.352 48.8468 24.352C46.5268 24.352 45.0708 22.8 45.0708 20.48C45.0708 18.176 46.5108 16.624 48.6228 16.624C50.2388 16.624 51.3428 17.456 51.8388 18.88L53.7908 18.064C53.1028 16.224 51.3588 14.688 48.6548 14.688C45.4068 14.688 42.9908 17.104 42.9908 20.448C42.9908 23.776 45.3908 26.192 48.6708 26.192C51.8228 26.192 54.2548 23.952 54.2548 20.096ZM57.2218 22.432H63.7658C63.7978 22.256 63.8138 21.936 63.8138 21.616C63.8138 19.456 62.1978 17.376 59.5418 17.376C57.1258 17.376 55.2218 19.344 55.2218 21.792C55.2218 24.304 56.9818 26.208 59.6698 26.208C61.7178 26.208 62.8378 25.344 63.4778 24.304L61.8778 23.28C61.4938 24.032 60.8858 24.464 59.7338 24.464C58.4698 24.464 57.4938 23.696 57.2218 22.432ZM57.2218 21.008C57.4778 19.712 58.4058 18.976 59.5898 18.976C60.7738 18.976 61.6378 19.744 61.8618 21.008H57.2218ZM68.8056 26H70.1336V24.224H69.2056C68.2936 24.224 67.7976 23.696 67.7976 22.72V19.312H70.0696V17.568H67.8616V15.376H65.8776V16.704C65.8776 17.28 65.6056 17.568 65.0456 17.568H64.2776V19.312H65.7496V22.944C65.7496 24.8 66.7896 26 68.8056 26ZM78.1921 26.176C80.7201 26.176 82.2881 24.896 82.2881 23.008C82.2881 18.816 76.5921 20 76.5921 17.664C76.5921 16.96 77.1521 16.448 78.2241 16.448C79.2321 16.448 79.8881 16.912 80.1761 17.904L82.1121 17.168C81.6961 15.68 80.3361 14.704 78.3201 14.704C75.9361 14.704 74.5441 15.984 74.5441 17.824C74.5441 21.744 80.2241 20.576 80.2241 23.056C80.2241 23.904 79.5361 24.416 78.3841 24.416C77.1521 24.416 76.2881 23.792 75.9841 22.656L74.0481 23.392C74.5761 25.184 76.1121 26.176 78.1921 26.176ZM87.4618 26H88.7898V24.224H87.8618C86.9498 24.224 86.4538 23.696 86.4538 22.72V19.312H88.7258V17.568H86.5178V15.376H84.5338V16.704C84.5338 17.28 84.2618 17.568 83.7018 17.568H82.9338V19.312H84.4058V22.944C84.4058 24.8 85.4458 26 87.4618 26ZM96.3079 17.568V18.768C95.6839 17.952 94.7399 17.504 93.5239 17.504C91.1079 17.504 89.3479 19.264 89.3479 21.792C89.3479 24.304 91.1079 26.192 93.5239 26.192C94.7399 26.192 95.6839 25.696 96.3079 24.864V26H98.1959V17.568H96.3079ZM93.7959 24.4C92.4039 24.4 91.3799 23.296 91.3799 21.792C91.3799 20.288 92.4039 19.184 93.7959 19.184C95.2519 19.184 96.2439 20.24 96.2439 21.792C96.2439 23.328 95.2519 24.4 93.7959 24.4ZM101.997 18.512V17.568H100.077V26H102.109V21.2C102.109 20.064 103.037 19.28 104.509 19.28V17.376C103.453 17.376 102.573 17.84 101.997 18.512ZM109.446 26H110.774V24.224H109.846C108.934 24.224 108.438 23.696 108.438 22.72V19.312H110.71V17.568H108.502V15.376H106.518V16.704C106.518 17.28 106.246 17.568 105.686 17.568H104.918V19.312H106.39V22.944C106.39 24.8 107.43 26 109.446 26ZM113.284 22.432H119.828C119.86 22.256 119.876 21.936 119.876 21.616C119.876 19.456 118.26 17.376 115.604 17.376C113.188 17.376 111.284 19.344 111.284 21.792C111.284 24.304 113.044 26.208 115.732 26.208C117.78 26.208 118.9 25.344 119.54 24.304L117.94 23.28C117.556 24.032 116.948 24.464 115.796 24.464C114.532 24.464 113.556 23.696 113.284 22.432ZM113.284 21.008C113.54 19.712 114.468 18.976 115.652 18.976C116.836 18.976 117.7 19.744 117.924 21.008H113.284ZM127.648 14.304V18.496C126.992 17.792 126.08 17.376 124.96 17.376C122.544 17.376 120.832 19.264 120.832 21.792C120.832 24.304 122.592 26.192 125.008 26.192C126.192 26.192 127.136 25.728 127.792 24.928V26H129.68V14.304H127.648ZM125.28 24.4C123.888 24.4 122.864 23.296 122.864 21.792C122.864 20.288 123.888 19.184 125.28 19.184C126.736 19.184 127.728 20.24 127.728 21.792C127.728 23.328 126.736 24.4 125.28 24.4Z" fill="white"/>
<path fill-rule="evenodd" clip-rule="evenodd" d="M23.8106 25.8965C23.5725 25.6125 23.3153 25.315 23.0369 25.0041C22.6003 24.5165 22.1113 23.9944 21.5644 23.4383C21.0125 22.8766 20.4939 22.3812 20.0085 21.9431C19.6933 21.6598 19.393 21.4005 19.1055 21.1631C19.7485 19.0094 20.6691 17.5008 22.5289 14.8363C24.3886 12.1717 27.6615 10.3219 27.6615 10.3219C28.3717 11.3401 29.4103 12.5879 30.926 14.0774C32.4246 15.5499 33.6704 16.6013 34.6829 17.3517C34.6829 17.3517 32.8281 20.6049 30.1593 22.4667C27.4905 24.3286 25.9728 25.2549 23.8106 25.8965ZM29.9594 15.0377C30.738 15.8163 30.5006 17.3171 29.428 18.389C28.3561 19.4609 26.8553 19.699 26.0767 18.9204C25.298 18.1417 25.5354 16.6409 26.608 15.569C27.6799 14.4964 29.18 14.2583 29.9594 15.0377Z" fill="white"/>
<path fill-rule="evenodd" clip-rule="evenodd" d="M36.8716 8.12792C36.7734 8.03253 36.6469 8.00074 36.5 8.00003C34.8762 7.99579 31.2896 8.43529 28.5332 9.93113C29.102 10.7911 30.306 12.1406 31.5828 13.4167C32.8596 14.6935 34.2092 15.8976 35.0684 16.4664C36.565 13.7107 37.0045 10.124 36.9995 8.49959C36.9988 8.35262 36.967 8.22684 36.8716 8.12792Z" fill="white"/>
<path fill-rule="evenodd" clip-rule="evenodd" d="M24.0977 26.6857C24.0977 26.6857 24.6608 27.6877 24.8883 29.3757C25.1158 31.0638 24.7138 31.9866 24.7138 31.9866C24.7138 31.9866 26.6541 31.8905 28.552 29.44C30.4499 26.9903 29.6013 23.8212 29.6013 23.8212C29.6013 23.8212 27.62 25.1136 27.0964 25.3701C26.5714 25.6266 25.1314 26.3974 24.0977 26.6857Z" fill="white"/>
<path fill-rule="evenodd" clip-rule="evenodd" d="M18.3267 23.2079L21.7996 26.6808C22.0907 26.9719 22.5994 26.9401 22.9301 26.6101L23.0658 26.4745C22.4758 25.7785 21.76 24.9921 20.8902 24.1067C20.0155 23.2164 19.2382 22.4999 18.5521 21.9219L18.3967 22.0774C18.0667 22.4074 18.0349 22.9161 18.3267 23.2079Z" fill="white"/>
<path fill-rule="evenodd" clip-rule="evenodd" d="M20.9107 26.8476L21.3283 27.2652L16.2041 30.8405L20.2013 26.8433C20.3963 26.649 20.7143 26.6511 20.9107 26.8476Z" fill="white"/>
<path fill-rule="evenodd" clip-rule="evenodd" d="M17.6017 23.5379L18.0193 23.9555C18.2157 24.1519 18.2178 24.4706 18.0235 24.6642L14.0264 28.6614L17.6017 23.5379Z" fill="white"/>
<path fill-rule="evenodd" clip-rule="evenodd" d="M14.3562 30.2795L14.5872 30.5105C14.6763 30.5996 14.8642 30.5572 15.0048 30.4166L19.486 25.9354C19.6266 25.7948 19.669 25.6068 19.58 25.5178L19.3489 25.2867C19.2599 25.1977 19.072 25.2401 18.9313 25.3807L14.4502 29.8619C14.3095 30.0025 14.2672 30.1904 14.3562 30.2795Z" fill="white"/>
<path fill-rule="evenodd" clip-rule="evenodd" d="M18.3008 20.8889C18.3008 20.8889 17.2996 20.3257 15.6108 20.0982C13.9228 19.8707 13 20.2734 13 20.2734C13 20.2734 13.0961 18.3331 15.5465 16.4353C17.997 14.5374 21.1653 15.386 21.1653 15.386C21.1653 15.386 19.873 17.3672 19.6165 17.8908C19.36 18.4144 18.5891 19.8551 18.3008 20.8889Z" fill="white"/>
</svg>
