<svg width="148" height="40" viewBox="0 0 148 40" fill="none" xmlns="http://www.w3.org/2000/svg">
<rect width="148" height="40" fill="#252525"/>
<path d="M15.0325 17.36V19.408H16.2325C16.5098 19.408 16.6965 19.3387 16.7925 19.2C16.8885 19.0507 16.9365 18.8693 16.9365 18.656V18.112C16.9365 17.8987 16.8885 17.7227 16.7925 17.584C16.6965 17.4347 16.5098 17.36 16.2325 17.36H15.0325ZM14.4565 26H11.9925C11.7898 26 11.6405 25.9573 11.5445 25.872C11.4592 25.776 11.4165 25.6267 11.4165 25.424V15.056C11.4165 14.8533 11.4592 14.7093 11.5445 14.624C11.6405 14.528 11.7898 14.48 11.9925 14.48H17.3205C18.5152 14.48 19.3365 14.7307 19.7845 15.232C20.2432 15.7227 20.4725 16.3627 20.4725 17.152V17.888C20.4725 18.336 20.4032 18.72 20.2645 19.04C20.1365 19.3493 19.9072 19.5733 19.5765 19.712C20.1525 19.776 20.6165 20.0107 20.9685 20.416C21.3312 20.8213 21.5125 21.36 21.5125 22.032V25.424C21.5125 25.6267 21.4645 25.776 21.3685 25.872C21.2832 25.9573 21.1392 26 20.9365 26H18.4565C18.2538 26 18.1045 25.9573 18.0085 25.872C17.9232 25.776 17.8805 25.6267 17.8805 25.424V22.976C17.8805 22.7413 17.8325 22.5707 17.7365 22.464C17.6512 22.3467 17.4965 22.288 17.2725 22.288H15.0325V25.424C15.0325 25.6267 14.9845 25.776 14.8885 25.872C14.8032 25.9573 14.6592 26 14.4565 26ZM32.989 22.976C32.989 23.4667 32.9143 23.9147 32.765 24.32C32.6263 24.7147 32.3703 25.056 31.997 25.344C31.6343 25.6213 31.1277 25.84 30.477 26C29.837 26.16 29.021 26.24 28.029 26.24C27.037 26.24 26.2157 26.16 25.565 26C24.9143 25.84 24.4023 25.6213 24.029 25.344C23.6663 25.056 23.4103 24.7147 23.261 24.32C23.1223 23.9147 23.053 23.4667 23.053 22.976V17.52C23.053 17.0293 23.1223 16.5867 23.261 16.192C23.4103 15.7867 23.6663 15.44 24.029 15.152C24.4023 14.864 24.9143 14.64 25.565 14.48C26.2157 14.32 27.037 14.24 28.029 14.24C29.021 14.24 29.837 14.32 30.477 14.48C31.1277 14.64 31.6343 14.864 31.997 15.152C32.3703 15.44 32.6263 15.7867 32.765 16.192C32.9143 16.5867 32.989 17.0293 32.989 17.52V22.976ZM26.685 22.4C26.685 22.6133 26.765 22.7947 26.925 22.944C27.085 23.0827 27.453 23.152 28.029 23.152C28.605 23.152 28.973 23.0827 29.133 22.944C29.293 22.7947 29.373 22.6133 29.373 22.4V18.096C29.373 17.8933 29.293 17.7227 29.133 17.584C28.973 17.4347 28.605 17.36 28.029 17.36C27.453 17.36 27.085 17.4347 26.925 17.584C26.765 17.7227 26.685 17.8933 26.685 18.096V22.4ZM42.6899 26H38.7859C37.4525 26 36.4605 25.7333 35.8099 25.2C35.1699 24.6667 34.8499 23.8453 34.8499 22.736V17.76C34.8499 16.6507 35.1699 15.8293 35.8099 15.296C36.4605 14.752 37.4525 14.48 38.7859 14.48H42.6899C42.8925 14.48 43.0365 14.528 43.1219 14.624C43.2179 14.7093 43.2659 14.8533 43.2659 15.056V16.992C43.2659 17.1947 43.2179 17.344 43.1219 17.44C43.0365 17.5253 42.8925 17.568 42.6899 17.568H39.4739C39.1432 17.568 38.8979 17.6373 38.7379 17.776C38.5779 17.904 38.4979 18.1013 38.4979 18.368V22.176C38.4979 22.4427 38.5779 22.64 38.7379 22.768C38.8979 22.8853 39.1432 22.944 39.4739 22.944H42.6899C42.8925 22.944 43.0365 22.992 43.1219 23.088C43.2179 23.1733 43.2659 23.3173 43.2659 23.52V25.424C43.2659 25.6267 43.2179 25.776 43.1219 25.872C43.0365 25.9573 42.8925 26 42.6899 26ZM48.1288 26H45.6488C45.4461 26 45.2968 25.9573 45.2008 25.872C45.1154 25.776 45.0728 25.6267 45.0728 25.424V15.056C45.0728 14.8533 45.1154 14.7093 45.2008 14.624C45.2968 14.528 45.4461 14.48 45.6488 14.48H48.1288C48.3314 14.48 48.4754 14.528 48.5608 14.624C48.6568 14.7093 48.7048 14.8533 48.7048 15.056V18.736H49.3448L50.9928 15.008C51.0674 14.816 51.1688 14.6827 51.2968 14.608C51.4248 14.5227 51.5901 14.48 51.7928 14.48H54.2568C54.4381 14.48 54.5608 14.528 54.6248 14.624C54.6888 14.7093 54.6834 14.8373 54.6088 15.008L52.9768 18.736C53.5741 18.768 54.0488 18.9813 54.4008 19.376C54.7634 19.76 54.9448 20.272 54.9448 20.912V25.424C54.9448 25.6267 54.8968 25.776 54.8008 25.872C54.7154 25.9573 54.5714 26 54.3688 26H51.9048C51.7021 26 51.5528 25.9573 51.4568 25.872C51.3714 25.776 51.3288 25.6267 51.3288 25.424V22.304C51.3288 22.1333 51.2861 22 51.2008 21.904C51.1154 21.808 50.9874 21.76 50.8168 21.76H48.7048V25.424C48.7048 25.6267 48.6568 25.776 48.5608 25.872C48.4754 25.9573 48.3314 26 48.1288 26ZM65.0103 26H57.5863C57.3836 26 57.2343 25.9573 57.1383 25.872C57.0529 25.776 57.0103 25.6267 57.0103 25.424V15.056C57.0103 14.8533 57.0529 14.7093 57.1383 14.624C57.2343 14.528 57.3836 14.48 57.5863 14.48H65.0103C65.2129 14.48 65.3569 14.528 65.4423 14.624C65.5383 14.7093 65.5863 14.8533 65.5863 15.056V16.928C65.5863 17.1307 65.5383 17.28 65.4423 17.376C65.3569 17.4613 65.2129 17.504 65.0103 17.504H60.5943V18.736H63.7143C63.9169 18.736 64.0609 18.784 64.1463 18.88C64.2423 18.9653 64.2903 19.1093 64.2903 19.312V21.024C64.2903 21.2267 64.2423 21.376 64.1463 21.472C64.0609 21.5573 63.9169 21.6 63.7143 21.6H60.5943V22.976H65.0103C65.2129 22.976 65.3569 23.024 65.4423 23.12C65.5383 23.2053 65.5863 23.3493 65.5863 23.552V25.424C65.5863 25.6267 65.5383 25.776 65.4423 25.872C65.3569 25.9573 65.2129 26 65.0103 26ZM72.919 26H70.327C70.1243 26 69.975 25.9573 69.879 25.872C69.7937 25.776 69.751 25.6267 69.751 25.424V17.568H67.399C67.1963 17.568 67.047 17.5253 66.951 17.44C66.8657 17.344 66.823 17.1947 66.823 16.992V15.056C66.823 14.8533 66.8657 14.7093 66.951 14.624C67.047 14.528 67.1963 14.48 67.399 14.48H75.847C76.0497 14.48 76.1937 14.528 76.279 14.624C76.375 14.7093 76.423 14.8533 76.423 15.056V16.992C76.423 17.1947 76.375 17.344 76.279 17.44C76.1937 17.5253 76.0497 17.568 75.847 17.568H73.495V25.424C73.495 25.6267 73.447 25.776 73.351 25.872C73.2657 25.9573 73.1217 26 72.919 26ZM84.699 26H78.555C78.3523 26 78.203 25.9573 78.107 25.872C78.0217 25.776 77.979 25.6267 77.979 25.424V15.056C77.979 14.8533 78.0217 14.7093 78.107 14.624C78.203 14.528 78.3523 14.48 78.555 14.48H83.659C84.7043 14.48 85.4777 14.6827 85.979 15.088C86.4803 15.4827 86.731 16.096 86.731 16.928V17.696C86.731 18.144 86.651 18.512 86.491 18.8C86.3417 19.0773 86.107 19.2853 85.787 19.424C86.4697 19.488 86.9763 19.7227 87.307 20.128C87.6377 20.5333 87.803 21.1253 87.803 21.904V23.376C87.803 24.272 87.547 24.9333 87.035 25.36C86.5337 25.7867 85.755 26 84.699 26ZM81.579 17.2V18.928H82.939C83.1417 18.928 83.291 18.8747 83.387 18.768C83.4937 18.6613 83.547 18.5013 83.547 18.288V17.84C83.547 17.6267 83.4937 17.4667 83.387 17.36C83.291 17.2533 83.1417 17.2 82.939 17.2H81.579ZM81.579 21.392V23.28H83.659C83.8617 23.28 84.011 23.2267 84.107 23.12C84.2137 23.0133 84.267 22.8533 84.267 22.64V22.016C84.267 21.8027 84.2137 21.648 84.107 21.552C84.011 21.4453 83.8617 21.392 83.659 21.392H81.579ZM99.3328 22.976C99.3328 23.4667 99.2581 23.9147 99.1088 24.32C98.9701 24.7147 98.7141 25.056 98.3408 25.344C97.9781 25.6213 97.4714 25.84 96.8208 26C96.1808 26.16 95.3648 26.24 94.3728 26.24C93.3808 26.24 92.5594 26.16 91.9088 26C91.2581 25.84 90.7461 25.6213 90.3728 25.344C90.0101 25.056 89.7541 24.7147 89.6048 24.32C89.4661 23.9147 89.3968 23.4667 89.3968 22.976V17.52C89.3968 17.0293 89.4661 16.5867 89.6048 16.192C89.7541 15.7867 90.0101 15.44 90.3728 15.152C90.7461 14.864 91.2581 14.64 91.9088 14.48C92.5594 14.32 93.3808 14.24 94.3728 14.24C95.3648 14.24 96.1808 14.32 96.8208 14.48C97.4714 14.64 97.9781 14.864 98.3408 15.152C98.7141 15.44 98.9701 15.7867 99.1088 16.192C99.2581 16.5867 99.3328 17.0293 99.3328 17.52V22.976ZM93.0288 22.4C93.0288 22.6133 93.1088 22.7947 93.2688 22.944C93.4288 23.0827 93.7968 23.152 94.3728 23.152C94.9488 23.152 95.3168 23.0827 95.4768 22.944C95.6368 22.7947 95.7168 22.6133 95.7168 22.4V18.096C95.7168 17.8933 95.6368 17.7227 95.4768 17.584C95.3168 17.4347 94.9488 17.36 94.3728 17.36C93.7968 17.36 93.4288 17.4347 93.2688 17.584C93.1088 17.7227 93.0288 17.8933 93.0288 18.096V22.4ZM106.732 26H104.14C103.937 26 103.788 25.9573 103.692 25.872C103.606 25.776 103.564 25.6267 103.564 25.424V17.568H101.212C101.009 17.568 100.86 17.5253 100.764 17.44C100.678 17.344 100.636 17.1947 100.636 16.992V15.056C100.636 14.8533 100.678 14.7093 100.764 14.624C100.86 14.528 101.009 14.48 101.212 14.48H109.66C109.862 14.48 110.006 14.528 110.092 14.624C110.188 14.7093 110.236 14.8533 110.236 15.056V16.992C110.236 17.1947 110.188 17.344 110.092 17.44C110.006 17.5253 109.862 17.568 109.66 17.568H107.308V25.424C107.308 25.6267 107.26 25.776 107.164 25.872C107.078 25.9573 106.934 26 106.732 26Z" fill="white"/>
<path fill-rule="evenodd" clip-rule="evenodd" d="M124.811 25.8965C124.573 25.6125 124.315 25.315 124.037 25.0041C123.6 24.5165 123.111 23.9944 122.564 23.4383C122.013 22.8766 121.494 22.3812 121.008 21.9431C120.693 21.6598 120.393 21.4005 120.105 21.1631C120.748 19.0094 121.669 17.5008 123.529 14.8363C125.389 12.1717 128.662 10.3219 128.662 10.3219C129.372 11.3401 130.41 12.5879 131.926 14.0774C133.425 15.5499 134.67 16.6013 135.683 17.3517C135.683 17.3517 133.828 20.6049 131.159 22.4667C128.491 24.3286 126.973 25.2549 124.811 25.8965ZM130.959 15.0377C131.738 15.8163 131.501 17.3171 130.428 18.389C129.356 19.4609 127.855 19.699 127.077 18.9204C126.298 18.1417 126.535 16.6409 127.608 15.569C128.68 14.4964 130.18 14.2583 130.959 15.0377Z" fill="#257DC1"/>
<path fill-rule="evenodd" clip-rule="evenodd" d="M137.872 8.12792C137.774 8.03253 137.647 8.00074 137.5 8.00003C135.877 7.99579 132.29 8.43529 129.534 9.93113C130.102 10.7911 131.307 12.1406 132.583 13.4167C133.86 14.6935 135.21 15.8976 136.069 16.4664C137.565 13.7107 138.005 10.124 138 8.49959C137.999 8.35262 137.968 8.22684 137.872 8.12792Z" fill="#257DC1"/>
<path fill-rule="evenodd" clip-rule="evenodd" d="M125.098 26.6858C125.098 26.6858 125.661 27.6877 125.888 29.3758C126.116 31.0638 125.714 31.9866 125.714 31.9866C125.714 31.9866 127.654 31.8905 129.552 29.4401C131.45 26.9903 130.601 23.8213 130.601 23.8213C130.601 23.8213 128.62 25.1136 128.096 25.3701C127.571 25.6266 126.131 26.3975 125.098 26.6858Z" fill="#257DC1"/>
<path fill-rule="evenodd" clip-rule="evenodd" d="M119.327 23.2079L122.8 26.6807C123.091 26.9719 123.6 26.9401 123.931 26.6101L124.066 26.4744C123.476 25.7784 122.761 24.992 121.891 24.1066C121.016 23.2163 120.239 22.4999 119.553 21.9219L119.397 22.0773C119.067 22.4073 119.035 22.916 119.327 23.2079Z" fill="#257DC1"/>
<path fill-rule="evenodd" clip-rule="evenodd" d="M121.911 26.8475L122.329 27.2651L117.205 30.8404L121.202 26.8433C121.397 26.649 121.715 26.6511 121.911 26.8475Z" fill="#257DC1"/>
<path fill-rule="evenodd" clip-rule="evenodd" d="M118.601 23.5378L119.019 23.9554C119.215 24.1519 119.217 24.4705 119.023 24.6641L115.026 28.6613L118.601 23.5378Z" fill="#257DC1"/>
<path fill-rule="evenodd" clip-rule="evenodd" d="M115.357 30.2795L115.588 30.5105C115.677 30.5996 115.865 30.5572 116.005 30.4166L120.486 25.9354C120.627 25.7948 120.67 25.6068 120.58 25.5178L120.349 25.2867C120.26 25.1977 120.072 25.2401 119.932 25.3807L115.451 29.8619C115.31 30.0025 115.268 30.1904 115.357 30.2795Z" fill="#257DC1"/>
<path fill-rule="evenodd" clip-rule="evenodd" d="M119.301 20.8889C119.301 20.8889 118.3 20.3258 116.611 20.0983C114.923 19.8707 114 20.2735 114 20.2735C114 20.2735 114.096 18.3332 116.547 16.4353C118.997 14.5374 122.165 15.386 122.165 15.386C122.165 15.386 120.873 17.3673 120.616 17.8909C120.36 18.4145 119.589 19.8552 119.301 20.8889Z" fill="#257DC1"/>
</svg>
