<svg width="24" height="24" viewBox="0 0 24 24" fill="none" xmlns="http://www.w3.org/2000/svg">
<path d="M0 4C0 1.79086 1.79086 0 4 0H24V20C24 22.2091 22.2091 24 20 24H4C1.79086 24 0 22.2091 0 20V4Z" fill="#FDFEFE"/>
<path fill-rule="evenodd" clip-rule="evenodd" d="M14.1785 15.1305C14.4857 15.5399 14.8556 16 14.8556 16C17.1271 15.9244 18 14.3726 18 14.3726C18 10.9226 16.5203 8.12677 16.5203 8.12677C15.0416 6.96851 13.6333 7.00122 13.6333 7.00122L13.4895 7.17265C15.2363 7.72978 16.0487 8.53278 16.0487 8.53278C14.4739 7.62835 12.6622 7.2753 10.8805 7.52565C10.8298 7.52565 10.7857 7.53327 10.7374 7.54162C10.7269 7.54343 10.7162 7.54527 10.7052 7.54708C10.3451 7.57979 9.47215 7.71963 8.37317 8.22264C7.99351 8.40421 7.76636 8.53278 7.76636 8.53278C7.76636 8.53278 8.61979 7.68693 10.4694 7.12866L10.3667 7.00009C10.3667 7.00009 8.95944 6.96739 7.47972 8.12565C7.47972 8.12565 6 10.9215 6 14.3714C6 14.3714 6.86209 15.9244 9.1325 16C9.1325 16 9.51325 15.5162 9.82153 15.1102C8.51595 14.703 8.02271 13.8459 8.02271 13.8459C8.02271 13.8459 8.12547 13.9203 8.31044 14.0263C8.32204 14.0406 8.33642 14.0521 8.35262 14.0602C8.3668 14.0702 8.38097 14.0775 8.39525 14.0849C8.41149 14.0933 8.42788 14.1017 8.44456 14.1143C8.68593 14.2533 8.93642 14.3742 9.19416 14.4763C9.68287 14.6783 10.1883 14.8331 10.7042 14.9387C12.1002 15.2182 13.5443 15.0621 14.8556 14.4899C15.2158 14.35 15.616 14.1448 16.0379 13.856C16.0379 13.856 15.5241 14.7335 14.1785 15.1305ZM9.69224 11C9.69224 10.4502 10.0569 10 10.5197 10C10.9816 10 11.3557 10.4493 11.3463 11C11.3463 11.5479 10.9816 12 10.5197 12C10.0654 12 9.69224 11.5479 9.69224 11ZM12.6536 11C12.6536 10.4502 13.0182 10 13.481 10C13.943 10 14.3068 10.4493 14.3076 11C14.3076 11.5479 13.943 12 13.481 12C13.0268 12 12.6536 11.5479 12.6536 11Z" fill="#0D0D0D"/>
</svg>
