<svg width="24" height="24" viewBox="0 0 24 24" fill="none" xmlns="http://www.w3.org/2000/svg">
<path d="M0 4C0 1.79086 1.79086 0 4 0H24V20C24 22.2091 22.2091 24 20 24H4C1.79086 24 0 22.2091 0 20V4Z" fill="#FDFEFE"/>
<path fill-rule="evenodd" clip-rule="evenodd" d="M12.1428 22.2856C17.7445 22.2856 22.2856 17.7445 22.2856 12.1428C22.2856 6.5411 17.7445 2 12.1428 2C6.5411 2 2 6.5411 2 12.1428C2 17.7445 6.5411 22.2856 12.1428 22.2856ZM12.1428 22.2856C17.744 22.2856 22.2856 17.744 22.2856 12.1428C22.2856 6.54163 17.744 2 12.1428 2C6.54163 2 2 6.54163 2 12.1428C2 17.744 6.54163 22.2856 12.1428 22.2856ZM17.015 8.62906L17.9387 7.74383V7.55138H14.7351L12.4507 13.2409L9.85616 7.54686H6.49409V7.74383L7.57629 9.0479C7.68496 9.14526 7.7393 9.28336 7.72345 9.42599V14.5427C7.73846 14.6337 7.73194 14.727 7.70442 14.8151C7.6769 14.9031 7.62914 14.9835 7.56497 15.0498L6.34692 16.5237V16.7207H9.80635V16.5237L8.58831 15.0498C8.45699 14.9163 8.39134 14.7283 8.4185 14.5427V10.1165L11.4478 16.7184H11.7987L14.4023 10.1165V15.3872C14.4023 15.5253 14.4023 15.5524 14.3095 15.6453L13.3745 16.5531V16.7411H17.9206V16.5441L17.015 15.6588C16.9335 15.6 16.895 15.5004 16.9109 15.4008V8.88716C16.895 8.7898 16.9335 8.69019 17.015 8.62906Z" fill="#0D0D0D"/>
</svg>
