<svg width="24" height="24" viewBox="0 0 24 24" fill="none" xmlns="http://www.w3.org/2000/svg">
<path d="M0 4C0 1.79086 1.79086 0 4 0H24V20C24 22.2091 22.2091 24 20 24H4C1.79086 24 0 22.2091 0 20V4Z" fill="#FDFEFE"/>
<path d="M18 8.12848C17.5587 8.31398 17.0785 8.44749 16.5838 8.49949C17.0974 8.20217 17.482 7.73246 17.6654 7.17848C17.1835 7.45785 16.6556 7.65374 16.105 7.75748C15.8749 7.51776 15.5966 7.3268 15.2875 7.19648C14.9783 7.06616 14.645 6.99928 14.3081 7.00001C12.9453 7.00001 11.8493 8.07648 11.8493 9.39749C11.8493 9.58299 11.8724 9.7685 11.9099 9.94697C9.86925 9.84298 8.04927 8.89298 6.83932 7.43847C6.61886 7.80542 6.50332 8.22324 6.50475 8.64845C6.50475 9.4804 6.93883 10.214 7.60077 10.6454C7.21068 10.6304 6.82972 10.526 6.48888 10.3405V10.37C6.48888 11.535 7.33397 12.5004 8.46028 12.7225C8.2488 12.776 8.03126 12.8034 7.81276 12.804C7.65269 12.804 7.50126 12.7885 7.3484 12.7675C7.6599 13.7175 8.567 14.4075 9.64716 14.43C8.80207 15.075 7.74354 15.4544 6.59416 15.4544C6.38793 15.4544 6.19757 15.4474 6 15.4249C7.09025 16.1065 8.38385 16.5 9.77695 16.5C14.2995 16.5 16.7742 12.849 16.7742 9.67996C16.7742 9.57597 16.7742 9.47197 16.767 9.36798C17.2458 9.02648 17.6654 8.60348 18 8.12848Z" fill="#0D0D0D"/>
</svg>
