<svg width="53" height="48" viewBox="0 0 53 48" fill="none" xmlns="http://www.w3.org/2000/svg">
<path d="M0 33.45V39.2727C0 44.0864 11.7273 48 26.1818 48C40.6364 48 52.3636 44.0864 52.3636 39.2727V33.45C46.7318 37.4182 36.4364 39.2727 26.1818 39.2727C15.9273 39.2727 5.63182 37.4182 0 33.45ZM0 19.1455V26.1818C0 30.9955 11.7273 34.9091 26.1818 34.9091C40.6364 34.9091 52.3636 30.9955 52.3636 26.1818V19.1455C46.7318 23.7818 36.4227 26.1818 26.1818 26.1818C15.9409 26.1818 5.63182 23.7818 0 19.1455ZM26.1818 0C11.7273 0 0 4.88182 0 10.9091C0 16.9364 11.7273 21.8182 26.1818 21.8182C40.6364 21.8182 52.3636 16.9364 52.3636 10.9091C52.3636 4.88182 40.6364 0 26.1818 0Z" fill="white"/>
</svg>
