<svg width="52" height="48" viewBox="0 0 52 48" fill="none" xmlns="http://www.w3.org/2000/svg">
<path d="M28.6 0.999999C28.6 0.447714 29.0477 0 29.6 0H38C38.5523 0 39 0.447715 39 1V4.64706C39 5.19934 38.5523 5.64706 38 5.64706H29.6C29.0477 5.64706 28.6 5.19934 28.6 4.64706V0.999999ZM2.6 15.1176C2.6 14.5654 3.04772 14.1176 3.6 14.1176H12C12.5523 14.1176 13 14.5654 13 15.1176V18.7647C13 19.317 12.5523 19.7647 12 19.7647H3.6C3.04772 19.7647 2.6 19.317 2.6 18.7647V15.1176ZM2.6 37.7059C2.6 37.1536 3.04772 36.7059 3.6 36.7059H12C12.5523 36.7059 13 37.1536 13 37.7059V41.3529C13 41.9052 12.5523 42.3529 12 42.3529H3.6C3.04772 42.3529 2.6 41.9052 2.6 41.3529V37.7059ZM0 26.4118C0 25.8595 0.447715 25.4118 1 25.4118H9.374C9.92628 25.4118 10.374 25.8595 10.374 26.4118V30.0588C10.374 30.6111 9.92628 31.0588 9.374 31.0588H1C0.447716 31.0588 0 30.6111 0 30.0588V26.4118ZM50.6149 11.1442C50.9671 10.7614 50.9671 10.1724 50.6146 9.78965L48.2974 7.27322C47.9013 6.84307 47.2223 6.84307 46.8262 7.27322L43.6984 10.6698C43.3669 11.0299 42.8248 11.0943 42.4032 10.8456C39.7663 9.2902 36.8095 8.47155 33.8 8.47059C23.7666 8.47059 15.6 17.3393 15.6 28.2353C15.6 39.1313 23.7666 48 33.8 48C43.8334 48 52 39.1313 52 28.2353C51.9976 23.5893 50.4816 19.1046 47.736 15.5671C47.426 15.1677 47.4345 14.6002 47.7768 14.2282L50.6149 11.1442ZM36.4 30.0588C36.4 30.6111 35.9523 31.0588 35.4 31.0588H32.2C31.6477 31.0588 31.2 30.6111 31.2 30.0588V17.8226C31.2 17.2703 31.6477 16.8226 32.2 16.8226H35.4C35.9523 16.8226 36.4 17.2703 36.4 17.8226V30.0588Z" fill="white"/>
</svg>
