<svg width="48" height="46" viewBox="0 0 48 46" fill="none" xmlns="http://www.w3.org/2000/svg">
<path d="M45.5111 37.9259V40.4148C45.5111 41.837 45.0173 43.042 44.0296 44.0296C43.042 45.0173 41.837 45.5111 40.4148 45.5111H5.0963C3.67407 45.5111 2.46914 45.0173 1.48148 44.0296C0.493827 43.042 0 41.837 0 40.4148V5.0963C0 3.67407 0.493827 2.46914 1.48148 1.48148C2.46914 0.493827 3.67407 0 5.0963 0H40.4148C41.837 0 43.042 0.493827 44.0296 1.48148C45.0173 2.46914 45.5111 3.67407 45.5111 5.0963V7.58519H22.7556C21.3333 7.58519 20.1284 8.07901 19.1407 9.06667C18.1531 10.0543 17.6593 11.2593 17.6593 12.6815V32.8296C17.6593 34.2519 18.1531 35.4568 19.1407 36.4444C20.1284 37.4321 21.3333 37.9259 22.7556 37.9259H45.5111ZM22.7556 32.8296V12.6815H48V32.8296H22.7556ZM32.8889 26.5481C33.9556 26.5481 34.8444 26.1728 35.5556 25.4222C36.2667 24.6716 36.6222 23.7827 36.6222 22.7556C36.6222 21.7284 36.2667 20.8395 35.5556 20.0889C34.8444 19.3383 33.9556 18.963 32.8889 18.963C31.8222 18.963 30.9136 19.3383 30.163 20.0889C29.4123 20.8395 29.037 21.7284 29.037 22.7556C29.037 23.7827 29.4123 24.6716 30.163 25.4222C30.9136 26.1728 31.8222 26.5481 32.8889 26.5481Z" fill="white"/>
</svg>
