<svg width="48" height="48" viewBox="0 0 48 48" fill="none" xmlns="http://www.w3.org/2000/svg">
<path d="M24 48C10.7448 48 0 37.2552 0 24C0 10.7448 10.7448 0 24 0C37.2552 0 48 10.7448 48 24C48 37.2552 37.2552 48 24 48ZM24 16.3C24 16.5761 23.7761 16.8 23.5 16.8H14.9C14.6239 16.8 14.4 17.0239 14.4 17.3V21.1C14.4 21.3761 14.6239 21.6 14.9 21.6H34.7929C35.2383 21.6 35.4614 21.0614 35.1464 20.7464L24.8536 10.4536C24.5386 10.1386 24 10.3617 24 10.8071V16.3ZM13.2071 26.4C12.7617 26.4 12.5386 26.9386 12.8536 27.2536L23.1464 37.5464C23.4614 37.8614 24 37.6383 24 37.1929V31.7C24 31.4239 24.2239 31.2 24.5 31.2H33.1C33.3761 31.2 33.6 30.9761 33.6 30.7V26.9C33.6 26.6239 33.3761 26.4 33.1 26.4H13.2071Z" fill="white"/>
</svg>
