<svg width="48" height="48" viewBox="0 0 48 48" fill="none" xmlns="http://www.w3.org/2000/svg">
<path d="M14.7326 0.00187094C12.8057 -0.0200037 10.8938 0.341916 9.10731 1.06667C7.32087 1.79143 5.69546 2.86462 4.32523 4.22409C2.955 5.58357 1.86716 7.20231 1.12473 8.98658C0.382288 10.7709 0 12.6852 0 14.6188C0 16.5523 0.382288 18.4667 1.12473 20.2509C1.86716 22.0352 2.955 23.6539 4.32523 25.0134C5.69546 26.3729 7.32087 27.4461 9.10731 28.1708C10.8938 28.8956 12.8057 29.2575 14.7326 29.2356C18.5962 29.2356 22.3015 27.6956 25.0335 24.9542C27.7655 22.2128 29.3003 18.4947 29.3003 14.6178C29.3003 10.7409 27.7655 7.02283 25.0335 4.28146C22.3015 1.54009 18.5962 8.16993e-08 14.7326 0V0.00187094ZM10.0712 5.08527C10.7068 5.08404 11.3365 5.20879 11.924 5.45237C12.5115 5.69595 13.0452 6.05356 13.4946 6.50467C13.944 6.95579 14.3002 7.49152 14.5427 8.08112C14.7852 8.67072 14.9093 9.30257 14.9078 9.94042C14.9095 10.5782 14.7856 11.2101 14.5432 11.7997C14.3007 12.3893 13.9445 12.925 13.495 13.3761C13.0456 13.8271 12.5117 14.1845 11.9241 14.4278C11.3365 14.6711 10.7068 14.7954 10.0712 14.7937C9.43553 14.7954 8.80582 14.6711 8.21823 14.4278C7.63065 14.1845 7.09678 13.8271 6.64731 13.3761C6.19784 12.925 5.84164 12.3893 5.59919 11.7997C5.35673 11.2101 5.2328 10.5782 5.23453 9.94042C5.2333 9.30273 5.35756 8.67108 5.60019 8.08169C5.84282 7.49231 6.19904 6.9568 6.64841 6.50589C7.09778 6.05497 7.63145 5.69753 8.21882 5.45407C8.80618 5.2106 9.43567 5.08591 10.0712 5.08714V5.08527ZM30.7565 21.3982C30.2449 22.5982 29.5994 23.7361 28.8323 24.7902L43.4001 39.4062C43.7064 39.7178 43.8781 40.1379 43.8781 40.5755C43.8781 41.0132 43.7064 41.4333 43.4001 41.7449C43.0891 42.0513 42.6706 42.2231 42.2347 42.2231C41.7988 42.2231 41.3804 42.0513 41.0694 41.7449L26.6769 27.2449C24.8593 28.9727 22.6938 30.2895 20.3262 31.1066V33.6792C20.3262 34.5024 21.018 35.1984 21.8421 35.1984H25.9199V39.2921C25.9199 40.1153 26.6116 40.8113 27.4358 40.8113H31.5135V44.9049C31.5135 45.7282 32.2071 46.4242 33.0294 46.4242H37.165L38.2147 47.4775C38.8524 48.1155 45.2404 48.4354 46.8383 46.8339C48.4362 45.2286 48.1136 38.8187 47.4778 38.1807L30.7565 21.4001V21.3982Z" fill="white"/>
</svg>
