<svg width="48" height="48" viewBox="0 0 48 48" fill="none" xmlns="http://www.w3.org/2000/svg">
<path d="M47.9904 16.4061C47.1373 9.31865 40.6405 3.99371 33.1499 1.52811C36.5624 5.22182 38.9998 10.9593 38.9998 17.9998H41.6342L30.7031 30.1403C30.4687 30.0841 30.2531 29.9997 29.9999 29.9997H25.5V17.9998H35.9999C35.9999 7.19993 29.5406 0 24 0C18.4594 0 12.0001 7.19993 12.0001 17.9998H22.5V29.9997H18.0001C17.7469 29.9997 17.5313 30.0841 17.2969 30.1403L6.36581 17.9998H9.00016C9.00016 10.9593 11.4376 5.22182 14.8501 1.52811C7.35955 4.00308 0.862741 9.32803 0.00962459 16.4061C-0.0934993 17.2592 0.647118 17.9998 1.50961 17.9998H2.32523L15.1407 32.2403C15.0751 32.484 14.9907 32.7278 14.9907 32.9997V44.9995C14.9907 46.6589 16.3313 47.9995 17.9907 47.9995H29.9906C31.6499 47.9995 32.9905 46.6589 32.9905 44.9995V32.9997C32.9905 32.7278 32.9062 32.4934 32.8405 32.2403L45.6654 17.9998H46.481C47.3529 17.9998 48.0935 17.2686 47.9904 16.4061Z" fill="white"/>
</svg>
